<?xml version="1.0" encoding="UTF-8"?>
<svg xmlns="http://www.w3.org/2000/svg" viewBox="0 0 560 232" width="560" height="232"
  role="img" aria-label="Measured ‖Â_svd − Â_gd‖_F² on page seed 1604623524: raw-gradient runs freeze above the SVD gap, tangent-projected runs converge">
  <rect width="560" height="232" fill="#fafafa"/>
  <line x1="56" y1="40" x2="56" y2="187" stroke="#2d2d2d" stroke-width="1.25"/>
  <line x1="56" y1="187" x2="540" y2="187" stroke="#2d2d2d" stroke-width="1.25"/>
  <text x="16" y="130" fill="#6b6b6b" font-size="11" font-family="IBM Plex Mono, ui-monospace, monospace"
    transform="rotate(-90 16 130)">‖Â_svd−Â_gd‖² (log)</text>
  <text x="298" y="203" fill="#6b6b6b" font-size="11"
    font-family="IBM Plex Mono, ui-monospace, monospace" text-anchor="middle">step</text>
  <path d="M56.00,50.14 L56.32,50.43 L56.65,50.48 L56.97,50.80 L57.29,50.84 L57.61,51.16 L57.94,51.21 L58.26,51.53 L58.58,51.58 L58.91,51.94 L59.23,52.00 L59.55,52.40 L59.87,52.46 L60.20,52.91 L60.52,52.98 L60.84,53.46 L61.17,53.53 L61.49,54.02 L61.81,54.10 L62.13,54.61 L62.46,54.68 L62.78,55.20 L63.10,55.28 L63.43,55.80 L63.75,55.88 L64.07,56.41 L64.39,56.49 L64.72,57.03 L65.04,57.10 L65.36,57.65 L65.69,57.73 L66.01,58.29 L66.33,58.37 L66.66,58.95 L66.98,59.03 L67.30,59.63 L67.62,59.72 L67.95,60.34 L68.27,60.43 L68.59,61.08 L68.92,61.17 L69.24,61.85 L69.56,61.94 L69.88,62.65 L70.21,62.75 L70.53,63.48 L70.85,63.58 L71.18,64.33 L71.50,64.44 L71.82,65.21 L72.14,65.32 L72.47,66.11 L72.79,66.23 L73.11,67.03 L73.44,67.14 L73.76,67.95 L74.08,68.07 L74.40,68.88 L74.73,69.00 L75.05,69.81 L75.37,69.92 L75.70,70.72 L76.02,70.84 L76.34,71.63 L76.66,71.74 L76.99,72.51 L77.31,72.62 L77.63,73.36 L77.96,73.47 L78.28,74.20 L78.60,74.30 L78.92,75.00 L79.25,75.10 L79.57,75.77 L79.89,75.87 L80.22,76.52 L80.54,76.61 L80.86,77.24 L81.18,77.33 L81.51,77.94 L81.83,78.03 L82.15,78.63 L82.48,78.71 L82.80,79.30 L83.12,79.38 L83.44,79.95 L83.77,80.04 L84.09,80.60 L84.41,80.68 L84.74,81.25 L85.06,81.33 L85.38,81.89 L85.71,81.97 L86.03,82.53 L86.35,82.61 L86.67,83.17 L87.00,83.25 L87.32,83.81 L87.64,83.90 L87.97,84.46 L88.29,84.54 L88.61,85.11 L88.93,85.19 L89.26,85.77 L89.58,85.85 L89.90,86.43 L90.23,86.51 L90.55,87.10 L90.87,87.18 L91.19,87.77 L91.52,87.86 L91.84,88.46 L92.16,88.54 L92.49,89.15 L92.81,89.23 L93.13,89.84 L93.45,89.93 L93.78,90.54 L94.10,90.63 L94.42,91.25 L94.75,91.34 L95.07,91.97 L95.39,92.06 L95.71,92.70 L96.04,92.79 L96.36,93.43 L96.68,93.52 L97.01,94.17 L97.33,94.26 L97.65,94.91 L97.97,95.01 L98.30,95.67 L98.62,95.76 L98.94,96.43 L99.27,96.53 L99.59,97.20 L99.91,97.30 L100.23,97.98 L100.56,98.07 L100.88,98.76 L101.20,98.86 L101.53,99.55 L101.85,99.65 L102.17,100.35 L102.49,100.45 L102.82,101.16 L103.14,101.26 L103.46,101.97 L103.79,102.07 L104.11,102.79 L104.43,102.89 L104.76,103.62 L105.08,103.72 L105.40,104.46 L105.72,104.56 L106.05,105.30 L106.37,105.40 L106.69,106.15 L107.02,106.26 L107.34,107.01 L107.66,107.12 L107.98,107.87 L108.31,107.98 L108.63,108.75 L108.95,108.85 L109.28,109.63 L109.60,109.74 L109.92,110.51 L110.24,110.62 L110.57,111.41 L110.89,111.52 L111.21,112.31 L111.54,112.42 L111.86,113.22 L112.18,113.33 L112.50,114.14 L112.83,114.25 L113.15,115.06 L113.47,115.18 L113.80,115.99 L114.12,116.11 L114.44,116.93 L114.76,117.05 L115.09,117.88 L115.41,118.00 L115.73,118.83 L116.06,118.95 L116.38,119.79 L116.70,119.91 L117.02,120.76 L117.35,120.88 L117.67,121.74 L117.99,121.86 L118.32,122.72 L118.64,122.84 L118.96,123.71 L119.28,123.83 L119.61,124.71 L119.93,124.83 L120.25,125.71 L120.58,125.84 L120.90,126.73 L121.22,126.85 L121.55,127.75 L121.87,127.87 L122.19,128.77 L122.51,128.90 L122.84,129.81 L123.16,129.94 L123.48,130.85 L123.81,130.98 L124.13,131.90 L124.45,132.03 L124.77,132.96 L125.10,133.09 L125.42,134.02 L125.74,134.16 L126.07,135.10 L126.39,135.23 L126.71,136.18 L127.03,136.31 L127.36,137.26 L127.68,137.40 L128.00,138.36 L128.33,138.50 L128.65,139.46 L128.97,139.60 L129.29,140.57 L129.62,140.71 L129.94,141.69 L130.26,141.83 L130.59,142.81 L130.91,142.96 L131.23,143.95 L131.55,144.09 L131.88,145.09 L132.20,145.23 L132.52,146.23 L132.85,146.38 L133.17,147.39 L133.49,147.53 L133.81,148.55 L134.14,148.70 L134.46,149.72 L134.78,149.87 L135.11,150.90 L135.43,151.05 L135.75,152.09 L136.07,152.24 L136.40,152.98 L136.72,153.13 L137.04,154.18 L137.37,154.33 L137.69,154.88 L138.01,155.03 L138.33,155.56 L138.66,155.60 L138.98,156.52 L139.30,156.52 L139.63,156.52 L139.95,156.52 L140.27,156.60 L140.60,156.60 L140.92,156.96 L141.24,156.98 L141.56,157.31 L141.89,157.47 L142.21,157.61 L142.53,157.65 L142.86,158.15 L143.18,158.15 L143.50,158.17 L143.82,158.17 L144.15,158.19 L144.47,158.19 L144.79,158.36 L145.12,158.36 L145.44,158.60 L145.76,158.61 L146.08,158.69 L146.41,158.69 L146.73,158.77 L147.05,158.77 L147.38,158.77 L147.70,158.77 L148.02,158.78 L148.34,158.78 L148.67,158.78 L148.99,158.87 L149.31,158.87 L149.64,158.87 L149.96,158.87 L150.28,158.87 L150.60,158.87 L150.93,158.87 L151.25,158.87 L151.57,158.87 L151.90,159.04 L152.22,159.04 L152.54,159.04 L152.86,159.22 L153.19,159.22 L153.51,159.22 L153.83,159.22 L154.16,159.31 L154.48,159.53 L154.80,159.53 L155.12,159.57 L155.45,159.57 L155.77,159.57 L156.09,159.57 L156.42,159.57 L156.74,159.57 L157.06,159.57 L157.38,159.57 L157.71,159.57 L158.03,159.57 L158.35,159.57 L158.68,159.57 L159.00,159.57 L159.32,159.57 L159.65,159.57 L159.97,159.57 L160.29,159.57 L160.61,159.57 L160.94,159.57 L161.26,159.57 L161.58,159.57 L161.91,159.57 L162.23,159.57 L162.55,159.57 L162.87,159.57 L163.20,159.57 L163.52,159.57 L163.84,159.57 L164.17,159.57 L164.49,159.57 L164.81,159.57 L165.13,159.57 L165.46,159.57 L165.78,159.57 L166.10,159.57 L166.43,159.57 L166.75,159.57 L167.07,159.57 L167.39,159.57 L167.72,159.57 L168.04,159.57 L168.36,159.57 L168.69,159.57 L169.01,159.57 L169.33,159.57 L169.65,159.57 L169.98,159.57 L170.30,159.57 L170.62,159.57 L170.95,159.57 L171.27,159.57 L171.59,159.57 L171.91,159.57 L172.24,159.57 L172.56,159.57 L172.88,159.57 L173.21,159.57 L173.53,159.57 L173.85,159.57 L174.17,159.57 L174.50,159.57 L174.82,159.57 L175.14,159.57 L175.47,159.57 L175.79,159.57 L176.11,159.57 L176.43,159.57 L176.76,159.57 L177.08,159.57 L177.40,159.57 L177.73,159.57 L178.05,159.57 L178.37,159.57 L178.70,159.57 L179.02,159.57 L179.34,159.57 L179.66,159.57 L179.99,159.57 L180.31,159.57 L180.63,159.57 L180.96,159.57 L181.28,159.57 L181.60,159.57 L181.92,159.57 L182.25,159.57 L182.57,159.57 L182.89,159.57 L183.22,159.57 L183.54,159.57 L183.86,159.57 L184.18,159.57 L184.51,159.57 L184.83,159.57 L185.15,159.57 L185.48,159.57 L185.80,159.57 L186.12,159.57 L186.44,159.57 L186.77,159.57 L187.09,159.57 L187.41,159.57 L187.74,159.57 L188.06,159.57 L188.38,159.57 L188.70,159.57 L189.03,159.57 L189.35,159.57 L189.67,159.57 L190.00,159.57 L190.32,159.57 L190.64,159.57 L190.96,159.57 L191.29,159.57 L191.61,159.57 L191.93,159.57 L192.26,159.57 L192.58,159.57 L192.90,159.57 L193.22,159.57 L193.55,159.57 L193.87,159.57 L194.19,159.57 L194.52,159.57 L194.84,159.57 L195.16,159.57 L195.48,159.57 L195.81,159.57 L196.13,159.57 L196.45,159.57 L196.78,159.57 L197.10,159.57 L197.42,159.57 L197.75,159.57 L198.07,159.57 L198.39,159.57 L198.71,159.57 L199.04,159.57 L199.36,159.57 L199.68,159.57 L200.01,159.57 L200.33,159.57 L200.65,159.57 L200.97,159.57 L201.30,159.57 L201.62,159.57 L201.94,159.57 L202.27,159.57 L202.59,159.57 L202.91,159.57 L203.23,159.57 L203.56,159.57 L203.88,159.57 L204.20,159.59 L204.53,159.59 L204.85,159.59 L205.17,159.59 L205.49,159.59 L205.82,159.59 L206.14,159.59 L206.46,159.59 L206.79,159.59 L207.11,159.59 L207.43,159.59 L207.75,159.59 L208.08,159.59 L208.40,159.59 L208.72,159.59 L209.05,159.59 L209.37,159.59 L209.69,159.59 L210.01,159.59 L210.34,159.59 L210.66,159.59 L210.98,159.59 L211.31,159.59 L211.63,159.59 L211.95,159.59 L212.27,159.59 L212.60,159.59 L212.92,159.59 L213.24,159.59 L213.57,159.59 L213.89,159.59 L214.21,159.59 L214.54,159.59 L214.86,159.59 L215.18,159.59 L215.50,159.59 L215.83,159.59 L216.15,159.59 L216.47,159.59 L216.80,159.59 L217.12,159.59 L217.44,159.59 L217.76,159.59 L218.09,159.59 L218.41,159.59 L218.73,159.59 L219.06,159.59 L219.38,159.59 L219.70,159.59 L220.02,159.59 L220.35,159.59 L220.67,159.59 L220.99,159.59 L221.32,159.59 L221.64,159.59 L221.96,159.59 L222.28,159.59 L222.61,159.59 L222.93,159.59 L223.25,159.59 L223.58,159.59 L223.90,159.59 L224.22,159.59 L224.54,159.59 L224.87,159.59 L225.19,159.59 L225.51,159.59 L225.84,159.59 L226.16,159.59 L226.48,159.59 L226.80,159.59 L227.13,159.59 L227.45,159.59 L227.77,159.59 L228.10,159.59 L228.42,159.59 L228.74,159.59 L229.06,159.59 L229.39,159.59 L229.71,159.59 L230.03,159.59 L230.36,159.59 L230.68,159.59 L231.00,159.59 L231.32,159.59 L231.65,159.59 L231.97,159.59 L232.29,159.59 L232.62,159.59 L232.94,159.59 L233.26,159.59 L233.59,159.59 L233.91,159.59 L234.23,159.59 L234.55,159.59 L234.88,159.59 L235.20,159.61 L235.52,159.61 L235.85,159.61 L236.17,159.61 L236.49,159.61 L236.81,159.61 L237.14,159.61 L237.46,159.61 L237.78,159.61 L238.11,159.61 L238.43,159.61 L238.75,159.61 L239.07,159.61 L239.40,159.61 L239.72,159.61 L240.04,159.61 L240.37,159.61 L240.69,159.61 L241.01,159.61 L241.33,159.61 L241.66,159.61 L241.98,159.61 L242.30,159.61 L242.63,159.61 L242.95,159.61 L243.27,159.61 L243.59,159.61 L243.92,159.61 L244.24,159.61 L244.56,159.61 L244.89,159.61 L245.21,159.61 L245.53,159.61 L245.85,159.61 L246.18,159.61 L246.50,159.61 L246.82,159.61 L247.15,159.61 L247.47,159.61 L247.79,159.61 L248.11,159.61 L248.44,159.61 L248.76,159.61 L249.08,159.61 L249.41,159.61 L249.73,159.61 L250.05,159.61 L250.37,159.61 L250.70,159.61 L251.02,159.61 L251.34,159.61 L251.67,159.61 L251.99,159.61 L252.31,159.61 L252.64,159.61 L252.96,159.61 L253.28,159.61 L253.60,159.61 L253.93,159.61 L254.25,159.61 L254.57,159.61 L254.90,159.61 L255.22,159.61 L255.54,159.61 L255.86,159.61 L256.19,159.61 L256.51,159.61 L256.83,159.61 L257.16,159.61 L257.48,159.61 L257.80,159.61 L258.12,159.61 L258.45,159.61 L258.77,159.61 L259.09,159.61 L259.42,159.61 L259.74,159.61 L260.06,159.61 L260.38,159.61 L260.71,159.61 L261.03,159.61 L261.35,159.61 L261.68,159.61 L262.00,159.61 L262.32,159.61 L262.64,159.61 L262.97,159.61 L263.29,159.61 L263.61,159.61 L263.94,159.61 L264.26,159.61 L264.58,159.61 L264.90,159.61 L265.23,159.61 L265.55,160.02 L265.87,160.02 L266.20,160.02 L266.52,160.02 L266.84,160.12 L267.16,160.12 L267.49,160.12 L267.81,160.12 L268.13,160.12 L268.46,160.12 L268.78,160.12 L269.10,160.12 L269.42,160.12 L269.75,160.12 L270.07,160.12 L270.39,160.12 L270.72,160.12 L271.04,160.12 L271.36,160.55 L271.69,160.56 L272.01,160.56 L272.33,160.56 L272.65,160.56 L272.98,160.56 L273.30,160.56 L273.62,160.56 L273.95,160.56 L274.27,160.56 L274.59,160.56 L274.91,160.56 L275.24,160.56 L275.56,160.56 L275.88,160.56 L276.21,160.56 L276.53,160.56 L276.85,160.56 L277.17,160.56 L277.50,160.56 L277.82,160.56 L278.14,160.56 L278.47,160.56 L278.79,160.56 L279.11,160.56 L279.43,160.56 L279.76,160.56 L280.08,160.56 L280.40,160.56 L280.73,160.56 L281.05,160.56 L281.37,160.56 L281.69,160.56 L282.02,160.56 L282.34,160.56 L282.66,160.56 L282.99,160.56 L283.31,160.56 L283.63,160.56 L283.95,160.56 L284.28,160.56 L284.60,160.56 L284.92,160.56 L285.25,160.56 L285.57,160.56 L285.89,160.56 L286.21,160.56 L286.54,160.56 L286.86,160.56 L287.18,160.56 L287.51,160.56 L287.83,160.56 L288.15,160.56 L288.47,160.56 L288.80,160.56 L289.12,160.56 L289.44,160.56 L289.77,160.56 L290.09,160.57 L290.41,160.57 L290.74,160.57 L291.06,160.57 L291.38,160.57 L291.70,160.57 L292.03,160.57 L292.35,160.57 L292.67,160.57 L293.00,160.57 L293.32,160.57 L293.64,160.57 L293.96,160.57 L294.29,160.57 L294.61,160.57 L294.93,160.57 L295.26,160.57 L295.58,160.57 L295.90,160.57 L296.22,160.57 L296.55,160.57 L296.87,160.57 L297.19,160.57 L297.52,160.57 L297.84,160.57 L298.16,160.57 L298.48,160.57 L298.81,160.57 L299.13,160.57 L299.45,160.57 L299.78,160.57 L300.10,160.57 L300.42,160.57 L300.74,160.57 L301.07,160.57 L301.39,160.57 L301.71,160.57 L302.04,160.57 L302.36,160.57 L302.68,160.57 L303.00,160.57 L303.33,160.57 L303.65,160.57 L303.97,160.57 L304.30,160.57 L304.62,160.57 L304.94,160.57 L305.26,160.57 L305.59,160.57 L305.91,160.57 L306.23,160.57 L306.56,160.57 L306.88,160.57 L307.20,160.57 L307.53,160.57 L307.85,160.57 L308.17,160.57 L308.49,160.57 L308.82,160.57 L309.14,160.57 L309.46,160.57 L309.79,160.57 L310.11,160.57 L310.43,160.57 L310.75,160.57 L311.08,160.57 L311.40,160.57 L311.72,160.57 L312.05,160.57 L312.37,160.57 L312.69,160.57 L313.01,160.57 L313.34,160.57 L313.66,160.57 L313.98,160.57 L314.31,160.57 L314.63,160.57 L314.95,160.57 L315.27,160.57 L315.60,160.57 L315.92,160.57 L316.24,160.57 L316.57,160.57 L316.89,160.57 L317.21,160.57 L317.53,160.57 L317.86,160.57 L318.18,160.57 L318.50,160.57 L318.83,160.57 L319.15,160.57 L319.47,160.57 L319.79,160.57 L320.12,160.57 L320.44,160.57 L320.76,160.57 L321.09,160.57 L321.41,160.57 L321.73,160.57 L322.05,160.57 L322.38,160.57 L322.70,160.57 L323.02,160.57 L323.35,160.57 L323.67,160.57 L323.99,160.57 L324.31,160.57 L324.64,160.57 L324.96,160.57 L325.28,160.57 L325.61,160.57 L325.93,160.57 L326.25,160.72 L326.58,160.72 L326.90,160.72 L327.22,160.72 L327.54,160.72 L327.87,160.72 L328.19,160.72 L328.51,160.72 L328.84,160.72 L329.16,160.72 L329.48,160.72 L329.80,160.72 L330.13,160.72 L330.45,160.72 L330.77,160.72 L331.10,160.72 L331.42,160.72 L331.74,160.72 L332.06,160.72 L332.39,160.72 L332.71,160.72 L333.03,160.72 L333.36,160.72 L333.68,160.72 L334.00,160.72 L334.32,160.72 L334.65,160.72 L334.97,160.72 L335.29,160.72 L335.62,160.72 L335.94,160.72 L336.26,160.72 L336.58,160.72 L336.91,160.72 L337.23,160.72 L337.55,160.72 L337.88,160.76 L338.20,160.76 L338.52,160.76 L338.84,160.76 L339.17,160.76 L339.49,160.76 L339.81,160.76 L340.14,160.76 L340.46,160.76 L340.78,160.76 L341.10,160.76 L341.43,160.76 L341.75,160.76 L342.07,160.76 L342.40,160.76 L342.72,160.76 L343.04,160.76 L343.36,160.76 L343.69,160.76 L344.01,160.76 L344.33,160.76 L344.66,160.76 L344.98,160.76 L345.30,160.76 L345.63,160.76 L345.95,160.76 L346.27,160.76 L346.59,160.76 L346.92,160.76 L347.24,160.76 L347.56,160.76 L347.89,160.76 L348.21,160.76 L348.53,160.76 L348.85,160.76 L349.18,160.76 L349.50,160.76 L349.82,160.76 L350.15,160.76 L350.47,160.76 L350.79,160.76 L351.11,160.76 L351.44,160.76 L351.76,160.76 L352.08,160.76 L352.41,160.76 L352.73,160.76 L353.05,160.76 L353.37,160.76 L353.70,160.76 L354.02,160.76 L354.34,160.76 L354.67,160.76 L354.99,160.76 L355.31,160.76 L355.63,160.76 L355.96,160.76 L356.28,160.76 L356.60,160.76 L356.93,160.76 L357.25,160.76 L357.57,160.76 L357.89,160.76 L358.22,160.76 L358.54,160.76 L358.86,160.76 L359.19,160.76 L359.51,160.76 L359.83,160.76 L360.15,160.76 L360.48,160.76 L360.80,160.76 L361.12,160.76 L361.45,160.76 L361.77,160.76 L362.09,160.76 L362.41,160.76 L362.74,160.76 L363.06,160.76 L363.38,160.76 L363.71,160.76 L364.03,160.76 L364.35,160.76 L364.68,160.76 L365.00,160.76 L365.32,160.76 L365.64,161.58 L365.97,161.58 L366.29,161.58 L366.61,161.58 L366.94,161.58 L367.26,161.58 L367.58,161.58 L367.90,161.58 L368.23,161.58 L368.55,161.58 L368.87,161.58 L369.20,161.58 L369.52,161.58 L369.84,161.58 L370.16,161.58 L370.49,161.58 L370.81,161.58 L371.13,161.58 L371.46,161.58 L371.78,161.58 L372.10,161.58 L372.42,161.58 L372.75,161.58 L373.07,161.58 L373.39,161.58 L373.72,161.58 L374.04,161.58 L374.36,161.58 L374.68,161.58 L375.01,161.58 L375.33,161.58 L375.65,161.58 L375.98,161.58 L376.30,161.58 L376.62,161.58 L376.94,161.58 L377.27,161.58 L377.59,161.58 L377.91,161.58 L378.24,161.58 L378.56,161.58 L378.88,161.58 L379.20,161.58 L379.53,161.58 L379.85,161.58 L380.17,161.58 L380.50,161.58 L380.82,161.58 L381.14,161.58 L381.46,161.58 L381.79,161.58 L382.11,161.58 L382.43,161.58 L382.76,161.58 L383.08,161.58 L383.40,161.58 L383.73,161.58 L384.05,161.58 L384.37,161.58 L384.69,161.58 L385.02,161.58 L385.34,161.58 L385.66,161.58 L385.99,161.58 L386.31,161.58 L386.63,161.58 L386.95,161.58 L387.28,161.58 L387.60,161.58 L387.92,161.58 L388.25,161.58 L388.57,161.58 L388.89,161.58 L389.21,161.58 L389.54,161.58 L389.86,161.58 L390.18,161.58 L390.51,161.58 L390.83,161.58 L391.15,161.58 L391.47,161.58 L391.80,161.58 L392.12,161.58 L392.44,161.58 L392.77,161.58 L393.09,161.58 L393.41,161.58 L393.73,161.58 L394.06,161.58 L394.38,161.58 L394.70,161.58 L395.03,161.58 L395.35,161.58 L395.67,161.58 L395.99,161.58 L396.32,161.58 L396.64,161.58 L396.96,161.58 L397.29,161.58 L397.61,161.58 L397.93,161.58 L398.25,161.58 L398.58,161.58 L398.90,161.58 L399.22,161.58 L399.55,161.58 L399.87,161.58 L400.19,161.58 L400.52,161.58 L400.84,161.58 L401.16,161.58 L401.48,161.58 L401.81,161.58 L402.13,161.58 L402.45,161.58 L402.78,161.58 L403.10,161.58 L403.42,161.58 L403.74,161.58 L404.07,161.58 L404.39,161.58 L404.71,161.58 L405.04,161.58 L405.36,161.58 L405.68,161.58 L406.00,161.58 L406.33,161.58 L406.65,161.58 L406.97,161.58 L407.30,161.58 L407.62,161.58 L407.94,161.58 L408.26,161.58 L408.59,161.58 L408.91,161.58 L409.23,161.58 L409.56,161.58 L409.88,161.58 L410.20,161.58 L410.52,161.58 L410.85,161.58 L411.17,161.58 L411.49,161.58 L411.82,161.58 L412.14,161.58 L412.46,161.58 L412.78,161.58 L413.11,161.58 L413.43,161.58 L413.75,161.58 L414.08,161.58 L414.40,161.58 L414.72,161.58 L415.04,161.58 L415.37,161.58 L415.69,161.58 L416.01,161.58 L416.34,161.58 L416.66,161.71 L416.98,161.71 L417.30,161.71 L417.63,161.71 L417.95,161.71 L418.27,161.71 L418.60,161.71 L418.92,161.71 L419.24,161.71 L419.57,161.71 L419.89,161.71 L420.21,161.71 L420.53,161.71 L420.86,161.71 L421.18,161.71 L421.50,161.71 L421.83,161.71 L422.15,161.71 L422.47,161.71 L422.79,161.71 L423.12,161.71 L423.44,161.71 L423.76,161.71 L424.09,161.71 L424.41,161.71 L424.73,161.71 L425.05,161.71 L425.38,161.71 L425.70,161.71 L426.02,161.71 L426.35,161.71 L426.67,161.71 L426.99,161.71 L427.31,161.71 L427.64,161.71 L427.96,161.71 L428.28,161.71 L428.61,161.71 L428.93,161.71 L429.25,161.71 L429.57,161.71 L429.90,161.71 L430.22,161.71 L430.54,161.71 L430.87,161.71 L431.19,161.71 L431.51,161.71 L431.83,161.71 L432.16,161.71 L432.48,161.71 L432.80,161.71 L433.13,161.71 L433.45,161.71 L433.77,161.71 L434.09,161.71 L434.42,161.71 L434.74,161.71 L435.06,161.71 L435.39,161.71 L435.71,161.71 L436.03,161.71 L436.35,161.71 L436.68,161.71 L437.00,161.71 L437.32,161.71 L437.65,161.71 L437.97,161.71 L438.29,161.71 L438.62,161.71 L438.94,161.71 L439.26,161.71 L439.58,161.71 L439.91,161.71 L440.23,161.71 L440.55,161.71 L440.88,161.71 L441.20,161.71 L441.52,161.71 L441.84,161.71 L442.17,161.71 L442.49,161.71 L442.81,161.71 L443.14,161.71 L443.46,161.71 L443.78,161.71 L444.10,161.71 L444.43,161.71 L444.75,161.71 L445.07,161.71 L445.40,161.71 L445.72,161.71 L446.04,161.71 L446.36,161.71 L446.69,161.71 L447.01,161.71 L447.33,161.71 L447.66,161.71 L447.98,161.71 L448.30,161.71 L448.62,161.71 L448.95,161.71 L449.27,161.71 L449.59,161.71 L449.92,161.71 L450.24,161.71 L450.56,161.71 L450.88,161.71 L451.21,161.71 L451.53,161.71 L451.85,161.71 L452.18,161.71 L452.50,161.71 L452.82,161.71 L453.14,161.71 L453.47,161.71 L453.79,161.71 L454.11,161.71 L454.44,161.71 L454.76,161.71 L455.08,161.71 L455.40,161.71 L455.73,161.71 L456.05,161.71 L456.37,161.71 L456.70,161.71 L457.02,161.71 L457.34,161.71 L457.67,161.71 L457.99,161.71 L458.31,161.71 L458.63,161.71 L458.96,161.71 L459.28,161.71 L459.60,161.71 L459.93,161.71 L460.25,161.71 L460.57,161.71 L460.89,161.71 L461.22,161.71 L461.54,161.71 L461.86,161.71 L462.19,161.71 L462.51,161.71 L462.83,161.71 L463.15,161.71 L463.48,161.71 L463.80,161.71 L464.12,161.71 L464.45,161.71 L464.77,161.71 L465.09,161.71 L465.41,161.71 L465.74,161.71 L466.06,161.71 L466.38,161.71 L466.71,161.71 L467.03,161.71 L467.35,161.71 L467.67,161.71 L468.00,161.71 L468.32,161.71 L468.64,161.71 L468.97,161.71 L469.29,161.71 L469.61,161.71 L469.93,161.71 L470.26,161.71 L470.58,161.71 L470.90,161.71 L471.23,161.71 L471.55,161.71 L471.87,161.71 L472.19,161.71 L472.52,161.71 L472.84,161.71 L473.16,161.71 L473.49,161.71 L473.81,161.71 L474.13,162.51 L474.45,162.51 L474.78,162.51 L475.10,162.51 L475.42,162.51 L475.75,162.51 L476.07,164.28 L476.39,164.28 L476.72,164.28 L477.04,164.28 L477.36,164.68 L477.68,164.68 L478.01,164.68 L478.33,164.68 L478.65,164.68 L478.98,164.68 L479.30,164.68 L479.62,164.68 L479.94,164.68 L480.27,164.68 L480.59,164.68 L480.91,164.68 L481.24,164.68 L481.56,164.68 L481.88,164.68 L482.20,164.68 L482.53,164.68 L482.85,164.68 L483.17,164.68 L483.50,164.68 L483.82,164.68 L484.14,164.68 L484.46,164.68 L484.79,164.68 L485.11,164.68 L485.43,164.68 L485.76,164.78 L486.08,164.78 L486.40,164.78 L486.72,164.78 L487.05,164.78 L487.37,164.78 L487.69,164.78 L488.02,164.78 L488.34,164.78 L488.66,164.78 L488.98,164.78 L489.31,164.78 L489.63,164.78 L489.95,164.78 L490.28,164.78 L490.60,164.78 L490.92,164.78 L491.24,164.78 L491.57,164.78 L491.89,164.78 L492.21,166.73 L492.54,166.73 L492.86,166.73 L493.18,166.73 L493.51,166.73 L493.83,166.73 L494.15,166.73 L494.47,166.73 L494.80,166.73 L495.12,166.73 L495.44,166.73 L495.77,166.73 L496.09,166.73 L496.41,166.73 L496.73,166.73 L497.06,166.73 L497.38,166.76 L497.70,166.76 L498.03,166.77 L498.35,166.77 L498.67,166.77 L498.99,166.77 L499.32,166.77 L499.64,166.77 L499.96,166.77 L500.29,166.77 L500.61,166.77 L500.93,166.77 L501.25,166.06 L501.58,166.06 L501.90,166.06 L502.22,166.06 L502.55,166.06 L502.87,166.06 L503.19,166.06 L503.51,166.06 L503.84,166.06 L504.16,166.06 L504.48,166.27 L504.81,166.27 L505.13,166.27 L505.45,166.27 L505.77,166.27 L506.10,166.27 L506.42,166.27 L506.74,166.27 L507.07,166.62 L507.39,166.62 L507.71,166.62 L508.03,166.62 L508.36,166.62 L508.68,166.62 L509.00,166.62 L509.33,166.62 L509.65,167.07 L509.97,167.07 L510.29,167.07 L510.62,167.07 L510.94,167.07 L511.26,167.07 L511.59,167.07 L511.91,167.07 L512.23,167.07 L512.56,167.07 L512.88,167.07 L513.20,167.07 L513.52,167.07 L513.85,167.07 L514.17,167.07 L514.49,167.07 L514.82,167.07 L515.14,167.07 L515.46,167.07 L515.78,167.07 L516.11,167.07 L516.43,167.07 L516.75,167.07 L517.08,167.07 L517.40,167.07 L517.72,167.07 L518.04,167.07 L518.37,167.07 L518.69,167.07 L519.01,167.17 L519.34,167.17 L519.66,167.17 L519.98,167.17 L520.30,167.17 L520.63,167.19 L520.95,167.19 L521.27,167.19 L521.60,167.19 L521.92,167.19 L522.24,167.19 L522.56,167.19 L522.89,167.19 L523.21,167.19 L523.53,167.19 L523.86,167.19 L524.18,167.19 L524.50,167.19 L524.82,167.19 L525.15,167.19 L525.47,167.19 L525.79,167.19 L526.12,167.19 L526.44,167.19 L526.76,167.19 L527.08,167.19 L527.41,167.19 L527.73,167.19 L528.05,167.19 L528.38,164.46 L528.70,164.46 L529.02,166.60 L529.34,166.60 L529.67,166.60 L529.99,166.60 L530.31,166.60 L530.64,166.60 L530.96,166.60 L531.28,166.60 L531.61,167.55 L531.93,167.55 L532.25,167.55 L532.57,167.55 L532.90,167.55 L533.22,167.55 L533.54,167.55 L533.87,167.55 L534.19,167.55 L534.51,167.55 L534.83,167.55 L535.16,167.55 L535.48,167.64 L535.80,167.64 L536.13,165.99 L536.45,165.99 L536.77,165.99 L537.09,165.99 L537.42,165.99 L537.74,165.99 L538.06,165.99 L538.39,165.99 L538.71,166.04 L539.03,166.04 L539.35,165.64 L539.68,165.64 L540.00,166.96" fill="none" stroke="#0072B2" stroke-width="2.25"/>
  <path d="M56.00,50.14 L56.32,50.39 L56.65,50.43 L56.97,50.67 L57.29,50.70 L57.61,50.91 L57.94,50.93 L58.26,51.11 L58.58,51.14 L58.91,51.30 L59.23,51.32 L59.55,51.47 L59.87,51.49 L60.20,51.62 L60.52,51.64 L60.84,51.75 L61.17,51.77 L61.49,51.87 L61.81,51.88 L62.13,51.95 L62.46,51.96 L62.78,51.99 L63.10,52.00 L63.43,52.00 L63.75,52.00 L64.07,52.00 L64.39,52.00 L64.72,52.00 L65.04,52.00 L65.36,52.00 L65.69,52.00 L66.01,52.00 L66.33,52.00 L66.66,52.00 L66.98,52.00 L67.30,52.00 L67.62,52.00 L67.95,52.00 L68.27,52.00 L68.59,52.00 L68.92,52.00 L69.24,52.00 L69.56,52.00 L69.88,52.00 L70.21,52.00 L70.53,52.00 L70.85,52.00 L71.18,52.00 L71.50,52.00 L71.82,52.00 L72.14,52.00 L72.47,52.00 L72.79,52.00 L73.11,52.00 L73.44,52.00 L73.76,52.00 L74.08,52.00 L74.40,52.00 L74.73,52.00 L75.05,52.00 L75.37,52.00 L75.70,52.00 L76.02,52.00 L76.34,52.00 L76.66,52.00 L76.99,52.00 L77.31,52.00 L77.63,52.00 L77.96,52.00 L78.28,52.00 L78.60,52.00 L78.92,52.00 L79.25,52.00 L79.57,52.00 L79.89,52.00 L80.22,52.00 L80.54,52.00 L80.86,52.00 L81.18,52.00 L81.51,52.00 L81.83,52.00 L82.15,52.00 L82.48,52.00 L82.80,52.00 L83.12,52.00 L83.44,52.00 L83.77,52.00 L84.09,52.00 L84.41,52.00 L84.74,52.00 L85.06,52.00 L85.38,52.00 L85.71,52.00 L86.03,52.00 L86.35,52.00 L86.67,52.00 L87.00,52.00 L87.32,52.00 L87.64,52.00 L87.97,52.00 L88.29,52.00 L88.61,52.00 L88.93,52.00 L89.26,52.00 L89.58,52.00 L89.90,52.00 L90.23,52.00 L90.55,52.00 L90.87,52.00 L91.19,52.00 L91.52,52.00 L91.84,52.00 L92.16,52.00 L92.49,52.00 L92.81,52.00 L93.13,52.00 L93.45,52.00 L93.78,52.00 L94.10,52.00 L94.42,52.00 L94.75,52.00 L95.07,52.00 L95.39,52.00 L95.71,52.00 L96.04,52.00 L96.36,52.00 L96.68,52.00 L97.01,52.00 L97.33,52.00 L97.65,52.00 L97.97,52.00 L98.30,52.00 L98.62,52.00 L98.94,52.00 L99.27,52.00 L99.59,52.00 L99.91,52.00 L100.23,52.00 L100.56,52.00 L100.88,52.00 L101.20,52.00 L101.53,52.00 L101.85,52.00 L102.17,52.00 L102.49,52.00 L102.82,52.00 L103.14,52.00 L103.46,52.00 L103.79,52.00 L104.11,52.00 L104.43,52.00 L104.76,52.00 L105.08,52.00 L105.40,52.00 L105.72,52.00 L106.05,52.00 L106.37,52.00 L106.69,52.00 L107.02,52.00 L107.34,52.00 L107.66,52.00 L107.98,52.00 L108.31,52.00 L108.63,52.00 L108.95,52.00 L109.28,52.00 L109.60,52.00 L109.92,52.00 L110.24,52.00 L110.57,52.00 L110.89,52.00 L111.21,52.00 L111.54,52.00 L111.86,52.00 L112.18,52.00 L112.50,52.00 L112.83,52.00 L113.15,52.00 L113.47,52.00 L113.80,52.00 L114.12,52.00 L114.44,52.00 L114.76,52.00 L115.09,52.00 L115.41,52.00 L115.73,52.00 L116.06,52.00 L116.38,52.00 L116.70,52.00 L117.02,52.00 L117.35,52.00 L117.67,52.00 L117.99,52.00 L118.32,52.00 L118.64,52.00 L118.96,52.00 L119.28,52.00 L119.61,52.00 L119.93,52.00 L120.25,52.00 L120.58,52.00 L120.90,52.00 L121.22,52.00 L121.55,52.00 L121.87,52.00 L122.19,52.00 L122.51,52.00 L122.84,52.00 L123.16,52.00 L123.48,52.00 L123.81,52.00 L124.13,52.00 L124.45,52.00 L124.77,52.00 L125.10,52.00 L125.42,52.00 L125.74,52.00 L126.07,52.00 L126.39,52.00 L126.71,52.00 L127.03,52.00 L127.36,52.00 L127.68,52.00 L128.00,52.00 L128.33,52.00 L128.65,52.00 L128.97,52.00 L129.29,52.00 L129.62,52.00 L129.94,52.00 L130.26,52.00 L130.59,52.00 L130.91,52.00 L131.23,52.00 L131.55,52.00 L131.88,52.00 L132.20,52.00 L132.52,52.00 L132.85,52.00 L133.17,52.00 L133.49,52.00 L133.81,52.00 L134.14,52.00 L134.46,52.00 L134.78,52.00 L135.11,52.00 L135.43,52.00 L135.75,52.00 L136.07,52.00 L136.40,52.00 L136.72,52.00 L137.04,52.00 L137.37,52.00 L137.69,52.00 L138.01,52.00 L138.33,52.00 L138.66,52.00 L138.98,52.00 L139.30,52.00 L139.63,52.00 L139.95,52.00 L140.27,52.00 L140.60,52.00 L140.92,52.00 L141.24,52.00 L141.56,52.00 L141.89,52.00 L142.21,52.00 L142.53,52.00 L142.86,52.00 L143.18,52.00 L143.50,52.00 L143.82,52.00 L144.15,52.00 L144.47,52.00 L144.79,52.00 L145.12,52.00 L145.44,52.00 L145.76,52.00 L146.08,52.00 L146.41,52.00 L146.73,52.00 L147.05,52.00 L147.38,52.00 L147.70,52.00 L148.02,52.00 L148.34,52.00 L148.67,52.00 L148.99,52.00 L149.31,52.00 L149.64,52.00 L149.96,52.00 L150.28,52.00 L150.60,52.00 L150.93,52.00 L151.25,52.00 L151.57,52.00 L151.90,52.00 L152.22,52.00 L152.54,52.00 L152.86,52.00 L153.19,52.00 L153.51,52.00 L153.83,52.00 L154.16,52.00 L154.48,52.00 L154.80,52.00 L155.12,52.00 L155.45,52.00 L155.77,52.00 L156.09,52.00 L156.42,52.00 L156.74,52.00 L157.06,52.00 L157.38,52.00 L157.71,52.00 L158.03,52.00 L158.35,52.00 L158.68,52.00 L159.00,52.00 L159.32,52.00 L159.65,52.00 L159.97,52.00 L160.29,52.00 L160.61,52.00 L160.94,52.00 L161.26,52.00 L161.58,52.00 L161.91,52.00 L162.23,52.00 L162.55,52.00 L162.87,52.00 L163.20,52.00 L163.52,52.00 L163.84,52.00 L164.17,52.00 L164.49,52.00 L164.81,52.00 L165.13,52.00 L165.46,52.00 L165.78,52.00 L166.10,52.00 L166.43,52.00 L166.75,52.00 L167.07,52.00 L167.39,52.00 L167.72,52.00 L168.04,52.00 L168.36,52.00 L168.69,52.00 L169.01,52.00 L169.33,52.00 L169.65,52.00 L169.98,52.00 L170.30,52.00 L170.62,52.00 L170.95,52.00 L171.27,52.00 L171.59,52.00 L171.91,52.00 L172.24,52.00 L172.56,52.00 L172.88,52.00 L173.21,52.00 L173.53,52.00 L173.85,52.00 L174.17,52.00 L174.50,52.00 L174.82,52.00 L175.14,52.00 L175.47,52.00 L175.79,52.00 L176.11,52.00 L176.43,52.00 L176.76,52.00 L177.08,52.00 L177.40,52.00 L177.73,52.00 L178.05,52.00 L178.37,52.00 L178.70,52.00 L179.02,52.00 L179.34,52.00 L179.66,52.00 L179.99,52.00 L180.31,52.00 L180.63,52.00 L180.96,52.00 L181.28,52.00 L181.60,52.00 L181.92,52.00 L182.25,52.00 L182.57,52.00 L182.89,52.00 L183.22,52.00 L183.54,52.00 L183.86,52.00 L184.18,52.00 L184.51,52.00 L184.83,52.00 L185.15,52.00 L185.48,52.00 L185.80,52.00 L186.12,52.00 L186.44,52.00 L186.77,52.00 L187.09,52.00 L187.41,52.00 L187.74,52.00 L188.06,52.00 L188.38,52.00 L188.70,52.00 L189.03,52.00 L189.35,52.00 L189.67,52.00 L190.00,52.00 L190.32,52.00 L190.64,52.00 L190.96,52.00 L191.29,52.00 L191.61,52.00 L191.93,52.00 L192.26,52.00 L192.58,52.00 L192.90,52.00 L193.22,52.00 L193.55,52.00 L193.87,52.00 L194.19,52.00 L194.52,52.00 L194.84,52.00 L195.16,52.00 L195.48,52.00 L195.81,52.00 L196.13,52.00 L196.45,52.00 L196.78,52.00 L197.10,52.00 L197.42,52.00 L197.75,52.00 L198.07,52.00 L198.39,52.00 L198.71,52.00 L199.04,52.00 L199.36,52.00 L199.68,52.00 L200.01,52.00 L200.33,52.00 L200.65,52.00 L200.97,52.00 L201.30,52.00 L201.62,52.00 L201.94,52.00 L202.27,52.00 L202.59,52.00 L202.91,52.00 L203.23,52.00 L203.56,52.00 L203.88,52.00 L204.20,52.00 L204.53,52.00 L204.85,52.00 L205.17,52.00 L205.49,52.00 L205.82,52.00 L206.14,52.00 L206.46,52.00 L206.79,52.00 L207.11,52.00 L207.43,52.00 L207.75,52.00 L208.08,52.00 L208.40,52.00 L208.72,52.00 L209.05,52.00 L209.37,52.00 L209.69,52.00 L210.01,52.00 L210.34,52.00 L210.66,52.00 L210.98,52.00 L211.31,52.00 L211.63,52.00 L211.95,52.00 L212.27,52.00 L212.60,52.00 L212.92,52.00 L213.24,52.00 L213.57,52.00 L213.89,52.00 L214.21,52.00 L214.54,52.00 L214.86,52.00 L215.18,52.00 L215.50,52.00 L215.83,52.00 L216.15,52.00 L216.47,52.00 L216.80,52.00 L217.12,52.00 L217.44,52.00 L217.76,52.00 L218.09,52.00 L218.41,52.00 L218.73,52.00 L219.06,52.00 L219.38,52.00 L219.70,52.00 L220.02,52.00 L220.35,52.00 L220.67,52.00 L220.99,52.00 L221.32,52.00 L221.64,52.00 L221.96,52.00 L222.28,52.00 L222.61,52.00 L222.93,52.00 L223.25,52.00 L223.58,52.00 L223.90,52.00 L224.22,52.00 L224.54,52.00 L224.87,52.00 L225.19,52.00 L225.51,52.00 L225.84,52.00 L226.16,52.00 L226.48,52.00 L226.80,52.00 L227.13,52.00 L227.45,52.00 L227.77,52.00 L228.10,52.00 L228.42,52.00 L228.74,52.00 L229.06,52.00 L229.39,52.00 L229.71,52.00 L230.03,52.00 L230.36,52.00 L230.68,52.00 L231.00,52.00 L231.32,52.00 L231.65,52.00 L231.97,52.00 L232.29,52.00 L232.62,52.00 L232.94,52.00 L233.26,52.00 L233.59,52.00 L233.91,52.00 L234.23,52.00 L234.55,52.00 L234.88,52.00 L235.20,52.00 L235.52,52.00 L235.85,52.00 L236.17,52.00 L236.49,52.00 L236.81,52.00 L237.14,52.00 L237.46,52.00 L237.78,52.00 L238.11,52.00 L238.43,52.00 L238.75,52.00 L239.07,52.00 L239.40,52.00 L239.72,52.00 L240.04,52.00 L240.37,52.00 L240.69,52.00 L241.01,52.00 L241.33,52.00 L241.66,52.00 L241.98,52.00 L242.30,52.00 L242.63,52.00 L242.95,52.00 L243.27,52.00 L243.59,52.00 L243.92,52.00 L244.24,52.00 L244.56,52.00 L244.89,52.00 L245.21,52.00 L245.53,52.00 L245.85,52.00 L246.18,52.00 L246.50,52.00 L246.82,52.00 L247.15,52.00 L247.47,52.00 L247.79,52.00 L248.11,52.00 L248.44,52.00 L248.76,52.00 L249.08,52.00 L249.41,52.00 L249.73,52.00 L250.05,52.00 L250.37,52.00 L250.70,52.00 L251.02,52.00 L251.34,52.00 L251.67,52.00 L251.99,52.00 L252.31,52.00 L252.64,52.00 L252.96,52.00 L253.28,52.00 L253.60,52.00 L253.93,52.00 L254.25,52.00 L254.57,52.00 L254.90,52.00 L255.22,52.00 L255.54,52.00 L255.86,52.00 L256.19,52.00 L256.51,52.00 L256.83,52.00 L257.16,52.00 L257.48,52.00 L257.80,52.00 L258.12,52.00 L258.45,52.00 L258.77,52.00 L259.09,52.00 L259.42,52.00 L259.74,52.00 L260.06,52.00 L260.38,52.00 L260.71,52.00 L261.03,52.00 L261.35,52.00 L261.68,52.00 L262.00,52.00 L262.32,52.00 L262.64,52.00 L262.97,52.00 L263.29,52.00 L263.61,52.00 L263.94,52.00 L264.26,52.00 L264.58,52.00 L264.90,52.00 L265.23,52.00 L265.55,52.00 L265.87,52.00 L266.20,52.00 L266.52,52.00 L266.84,52.00 L267.16,52.00 L267.49,52.00 L267.81,52.00 L268.13,52.00 L268.46,52.00 L268.78,52.00 L269.10,52.00 L269.42,52.00 L269.75,52.00 L270.07,52.00 L270.39,52.00 L270.72,52.00 L271.04,52.00 L271.36,52.00 L271.69,52.00 L272.01,52.00 L272.33,52.00 L272.65,52.00 L272.98,52.00 L273.30,52.00 L273.62,52.00 L273.95,52.00 L274.27,52.00 L274.59,52.00 L274.91,52.00 L275.24,52.00 L275.56,52.00 L275.88,52.00 L276.21,52.00 L276.53,52.00 L276.85,52.00 L277.17,52.00 L277.50,52.00 L277.82,52.00 L278.14,52.00 L278.47,52.00 L278.79,52.00 L279.11,52.00 L279.43,52.00 L279.76,52.00 L280.08,52.00 L280.40,52.00 L280.73,52.00 L281.05,52.00 L281.37,52.00 L281.69,52.00 L282.02,52.00 L282.34,52.00 L282.66,52.00 L282.99,52.00 L283.31,52.00 L283.63,52.00 L283.95,52.00 L284.28,52.00 L284.60,52.00 L284.92,52.00 L285.25,52.00 L285.57,52.00 L285.89,52.00 L286.21,52.00 L286.54,52.00 L286.86,52.00 L287.18,52.00 L287.51,52.00 L287.83,52.00 L288.15,52.00 L288.47,52.00 L288.80,52.00 L289.12,52.00 L289.44,52.00 L289.77,52.00 L290.09,52.00 L290.41,52.00 L290.74,52.00 L291.06,52.00 L291.38,52.00 L291.70,52.00 L292.03,52.00 L292.35,52.00 L292.67,52.00 L293.00,52.00 L293.32,52.00 L293.64,52.00 L293.96,52.00 L294.29,52.00 L294.61,52.00 L294.93,52.00 L295.26,52.00 L295.58,52.00 L295.90,52.00 L296.22,52.00 L296.55,52.00 L296.87,52.00 L297.19,52.00 L297.52,52.00 L297.84,52.00 L298.16,52.00 L298.48,52.00 L298.81,52.00 L299.13,52.00 L299.45,52.00 L299.78,52.00 L300.10,52.00 L300.42,52.00 L300.74,52.00 L301.07,52.00 L301.39,52.00 L301.71,52.00 L302.04,52.00 L302.36,52.00 L302.68,52.00 L303.00,52.00 L303.33,52.00 L303.65,52.00 L303.97,52.00 L304.30,52.00 L304.62,52.00 L304.94,52.00 L305.26,52.00 L305.59,52.00 L305.91,52.00 L306.23,52.00 L306.56,52.00 L306.88,52.00 L307.20,52.00 L307.53,52.00 L307.85,52.00 L308.17,52.00 L308.49,52.00 L308.82,52.00 L309.14,52.00 L309.46,52.00 L309.79,52.00 L310.11,52.00 L310.43,52.00 L310.75,52.00 L311.08,52.00 L311.40,52.00 L311.72,52.00 L312.05,52.00 L312.37,52.00 L312.69,52.00 L313.01,52.00 L313.34,52.00 L313.66,52.00 L313.98,52.00 L314.31,52.00 L314.63,52.00 L314.95,52.00 L315.27,52.00 L315.60,52.00 L315.92,52.00 L316.24,52.00 L316.57,52.00 L316.89,52.00 L317.21,52.00 L317.53,52.00 L317.86,52.00 L318.18,52.00 L318.50,52.00 L318.83,52.00 L319.15,52.00 L319.47,52.00 L319.79,52.00 L320.12,52.00 L320.44,52.00 L320.76,52.00 L321.09,52.00 L321.41,52.00 L321.73,52.00 L322.05,52.00 L322.38,52.00 L322.70,52.00 L323.02,52.00 L323.35,52.00 L323.67,52.00 L323.99,52.00 L324.31,52.00 L324.64,52.00 L324.96,52.00 L325.28,52.00 L325.61,52.00 L325.93,52.00 L326.25,52.00 L326.58,52.00 L326.90,52.00 L327.22,52.00 L327.54,52.00 L327.87,52.00 L328.19,52.00 L328.51,52.00 L328.84,52.00 L329.16,52.00 L329.48,52.00 L329.80,52.00 L330.13,52.00 L330.45,52.00 L330.77,52.00 L331.10,52.00 L331.42,52.00 L331.74,52.00 L332.06,52.00 L332.39,52.00 L332.71,52.00 L333.03,52.00 L333.36,52.00 L333.68,52.00 L334.00,52.00 L334.32,52.00 L334.65,52.00 L334.97,52.00 L335.29,52.00 L335.62,52.00 L335.94,52.00 L336.26,52.00 L336.58,52.00 L336.91,52.00 L337.23,52.00 L337.55,52.00 L337.88,52.00 L338.20,52.00 L338.52,52.00 L338.84,52.00 L339.17,52.00 L339.49,52.00 L339.81,52.00 L340.14,52.00 L340.46,52.00 L340.78,52.00 L341.10,52.00 L341.43,52.00 L341.75,52.00 L342.07,52.00 L342.40,52.00 L342.72,52.00 L343.04,52.00 L343.36,52.00 L343.69,52.00 L344.01,52.00 L344.33,52.00 L344.66,52.00 L344.98,52.00 L345.30,52.00 L345.63,52.00 L345.95,52.00 L346.27,52.00 L346.59,52.00 L346.92,52.00 L347.24,52.00 L347.56,52.00 L347.89,52.00 L348.21,52.00 L348.53,52.00 L348.85,52.00 L349.18,52.00 L349.50,52.00 L349.82,52.00 L350.15,52.00 L350.47,52.00 L350.79,52.00 L351.11,52.00 L351.44,52.00 L351.76,52.00 L352.08,52.00 L352.41,52.00 L352.73,52.00 L353.05,52.00 L353.37,52.00 L353.70,52.00 L354.02,52.00 L354.34,52.00 L354.67,52.00 L354.99,52.00 L355.31,52.00 L355.63,52.00 L355.96,52.00 L356.28,52.00 L356.60,52.00 L356.93,52.00 L357.25,52.00 L357.57,52.00 L357.89,52.00 L358.22,52.00 L358.54,52.00 L358.86,52.00 L359.19,52.00 L359.51,52.00 L359.83,52.00 L360.15,52.00 L360.48,52.00 L360.80,52.00 L361.12,52.00 L361.45,52.00 L361.77,52.00 L362.09,52.00 L362.41,52.00 L362.74,52.00 L363.06,52.00 L363.38,52.00 L363.71,52.00 L364.03,52.00 L364.35,52.00 L364.68,52.00 L365.00,52.00 L365.32,52.00 L365.64,52.00 L365.97,52.00 L366.29,52.00 L366.61,52.00 L366.94,52.00 L367.26,52.00 L367.58,52.00 L367.90,52.00 L368.23,52.00 L368.55,52.00 L368.87,52.00 L369.20,52.00 L369.52,52.00 L369.84,52.00 L370.16,52.00 L370.49,52.00 L370.81,52.00 L371.13,52.00 L371.46,52.00 L371.78,52.00 L372.10,52.00 L372.42,52.00 L372.75,52.00 L373.07,52.00 L373.39,52.00 L373.72,52.00 L374.04,52.00 L374.36,52.00 L374.68,52.00 L375.01,52.00 L375.33,52.00 L375.65,52.00 L375.98,52.00 L376.30,52.00 L376.62,52.00 L376.94,52.00 L377.27,52.00 L377.59,52.00 L377.91,52.00 L378.24,52.00 L378.56,52.00 L378.88,52.00 L379.20,52.00 L379.53,52.00 L379.85,52.00 L380.17,52.00 L380.50,52.00 L380.82,52.00 L381.14,52.00 L381.46,52.00 L381.79,52.00 L382.11,52.00 L382.43,52.00 L382.76,52.00 L383.08,52.00 L383.40,52.00 L383.73,52.00 L384.05,52.00 L384.37,52.00 L384.69,52.00 L385.02,52.00 L385.34,52.00 L385.66,52.00 L385.99,52.00 L386.31,52.00 L386.63,52.00 L386.95,52.00 L387.28,52.00 L387.60,52.00 L387.92,52.00 L388.25,52.00 L388.57,52.00 L388.89,52.00 L389.21,52.00 L389.54,52.00 L389.86,52.00 L390.18,52.00 L390.51,52.00 L390.83,52.00 L391.15,52.00 L391.47,52.00 L391.80,52.00 L392.12,52.00 L392.44,52.00 L392.77,52.00 L393.09,52.00 L393.41,52.00 L393.73,52.00 L394.06,52.00 L394.38,52.00 L394.70,52.00 L395.03,52.00 L395.35,52.00 L395.67,52.00 L395.99,52.00 L396.32,52.00 L396.64,52.00 L396.96,52.00 L397.29,52.00 L397.61,52.00 L397.93,52.00 L398.25,52.00 L398.58,52.00 L398.90,52.00 L399.22,52.00 L399.55,52.00 L399.87,52.00 L400.19,52.00 L400.52,52.00 L400.84,52.00 L401.16,52.00 L401.48,52.00 L401.81,52.00 L402.13,52.00 L402.45,52.00 L402.78,52.00 L403.10,52.00 L403.42,52.00 L403.74,52.00 L404.07,52.00 L404.39,52.00 L404.71,52.00 L405.04,52.00 L405.36,52.00 L405.68,52.00 L406.00,52.00 L406.33,52.00 L406.65,52.00 L406.97,52.00 L407.30,52.00 L407.62,52.00 L407.94,52.00 L408.26,52.00 L408.59,52.00 L408.91,52.00 L409.23,52.00 L409.56,52.00 L409.88,52.00 L410.20,52.00 L410.52,52.00 L410.85,52.00 L411.17,52.00 L411.49,52.00 L411.82,52.00 L412.14,52.00 L412.46,52.00 L412.78,52.00 L413.11,52.00 L413.43,52.00 L413.75,52.00 L414.08,52.00 L414.40,52.00 L414.72,52.00 L415.04,52.00 L415.37,52.00 L415.69,52.00 L416.01,52.00 L416.34,52.00 L416.66,52.00 L416.98,52.00 L417.30,52.00 L417.63,52.00 L417.95,52.00 L418.27,52.00 L418.60,52.00 L418.92,52.00 L419.24,52.00 L419.57,52.00 L419.89,52.00 L420.21,52.00 L420.53,52.00 L420.86,52.00 L421.18,52.00 L421.50,52.00 L421.83,52.00 L422.15,52.00 L422.47,52.00 L422.79,52.00 L423.12,52.00 L423.44,52.00 L423.76,52.00 L424.09,52.00 L424.41,52.00 L424.73,52.00 L425.05,52.00 L425.38,52.00 L425.70,52.00 L426.02,52.00 L426.35,52.00 L426.67,52.00 L426.99,52.00 L427.31,52.00 L427.64,52.00 L427.96,52.00 L428.28,52.00 L428.61,52.00 L428.93,52.00 L429.25,52.00 L429.57,52.00 L429.90,52.00 L430.22,52.00 L430.54,52.00 L430.87,52.00 L431.19,52.00 L431.51,52.00 L431.83,52.00 L432.16,52.00 L432.48,52.00 L432.80,52.00 L433.13,52.00 L433.45,52.00 L433.77,52.00 L434.09,52.00 L434.42,52.00 L434.74,52.00 L435.06,52.00 L435.39,52.00 L435.71,52.00 L436.03,52.00 L436.35,52.00 L436.68,52.00 L437.00,52.00 L437.32,52.00 L437.65,52.00 L437.97,52.00 L438.29,52.00 L438.62,52.00 L438.94,52.00 L439.26,52.00 L439.58,52.00 L439.91,52.00 L440.23,52.00 L440.55,52.00 L440.88,52.00 L441.20,52.00 L441.52,52.00 L441.84,52.00 L442.17,52.00 L442.49,52.00 L442.81,52.00 L443.14,52.00 L443.46,52.00 L443.78,52.00 L444.10,52.00 L444.43,52.00 L444.75,52.00 L445.07,52.00 L445.40,52.00 L445.72,52.00 L446.04,52.00 L446.36,52.00 L446.69,52.00 L447.01,52.00 L447.33,52.00 L447.66,52.00 L447.98,52.00 L448.30,52.00 L448.62,52.00 L448.95,52.00 L449.27,52.00 L449.59,52.00 L449.92,52.00 L450.24,52.00 L450.56,52.00 L450.88,52.00 L451.21,52.00 L451.53,52.00 L451.85,52.00 L452.18,52.00 L452.50,52.00 L452.82,52.00 L453.14,52.00 L453.47,52.00 L453.79,52.00 L454.11,52.00 L454.44,52.00 L454.76,52.00 L455.08,52.00 L455.40,52.00 L455.73,52.00 L456.05,52.00 L456.37,52.00 L456.70,52.00 L457.02,52.00 L457.34,52.00 L457.67,52.00 L457.99,52.00 L458.31,52.00 L458.63,52.00 L458.96,52.00 L459.28,52.00 L459.60,52.00 L459.93,52.00 L460.25,52.00 L460.57,52.00 L460.89,52.00 L461.22,52.00 L461.54,52.00 L461.86,52.00 L462.19,52.00 L462.51,52.00 L462.83,52.00 L463.15,52.00 L463.48,52.00 L463.80,52.00 L464.12,52.00 L464.45,52.00 L464.77,52.00 L465.09,52.00 L465.41,52.00 L465.74,52.00 L466.06,52.00 L466.38,52.00 L466.71,52.00 L467.03,52.00 L467.35,52.00 L467.67,52.00 L468.00,52.00 L468.32,52.00 L468.64,52.00 L468.97,52.00 L469.29,52.00 L469.61,52.00 L469.93,52.00 L470.26,52.00 L470.58,52.00 L470.90,52.00 L471.23,52.00 L471.55,52.00 L471.87,52.00 L472.19,52.00 L472.52,52.00 L472.84,52.00 L473.16,52.00 L473.49,52.00 L473.81,52.00 L474.13,52.00 L474.45,52.00 L474.78,52.00 L475.10,52.00 L475.42,52.00 L475.75,52.00 L476.07,52.00 L476.39,52.00 L476.72,52.00 L477.04,52.00 L477.36,52.00 L477.68,52.00 L478.01,52.00 L478.33,52.00 L478.65,52.00 L478.98,52.00 L479.30,52.00 L479.62,52.00 L479.94,52.00 L480.27,52.00 L480.59,52.00 L480.91,52.00 L481.24,52.00 L481.56,52.00 L481.88,52.00 L482.20,52.00 L482.53,52.00 L482.85,52.00 L483.17,52.00 L483.50,52.00 L483.82,52.00 L484.14,52.00 L484.46,52.00 L484.79,52.00 L485.11,52.00 L485.43,52.00 L485.76,52.00 L486.08,52.00 L486.40,52.00 L486.72,52.00 L487.05,52.00 L487.37,52.00 L487.69,52.00 L488.02,52.00 L488.34,52.00 L488.66,52.00 L488.98,52.00 L489.31,52.00 L489.63,52.00 L489.95,52.00 L490.28,52.00 L490.60,52.00 L490.92,52.00 L491.24,52.00 L491.57,52.00 L491.89,52.00 L492.21,52.00 L492.54,52.00 L492.86,52.00 L493.18,52.00 L493.51,52.00 L493.83,52.00 L494.15,52.00 L494.47,52.00 L494.80,52.00 L495.12,52.00 L495.44,52.00 L495.77,52.00 L496.09,52.00 L496.41,52.00 L496.73,52.00 L497.06,52.00 L497.38,52.00 L497.70,52.00 L498.03,52.00 L498.35,52.00 L498.67,52.00 L498.99,52.00 L499.32,52.00 L499.64,52.00 L499.96,52.00 L500.29,52.00 L500.61,52.00 L500.93,52.00 L501.25,52.00 L501.58,52.00 L501.90,52.00 L502.22,52.00 L502.55,52.00 L502.87,52.00 L503.19,52.00 L503.51,52.00 L503.84,52.00 L504.16,52.00 L504.48,52.00 L504.81,52.00 L505.13,52.00 L505.45,52.00 L505.77,52.00 L506.10,52.00 L506.42,52.00 L506.74,52.00 L507.07,52.00 L507.39,52.00 L507.71,52.00 L508.03,52.00 L508.36,52.00 L508.68,52.00 L509.00,52.00 L509.33,52.00 L509.65,52.00 L509.97,52.00 L510.29,52.00 L510.62,52.00 L510.94,52.00 L511.26,52.00 L511.59,52.00 L511.91,52.00 L512.23,52.00 L512.56,52.00 L512.88,52.00 L513.20,52.00 L513.52,52.00 L513.85,52.00 L514.17,52.00 L514.49,52.00 L514.82,52.00 L515.14,52.00 L515.46,52.00 L515.78,52.00 L516.11,52.00 L516.43,52.00 L516.75,52.00 L517.08,52.00 L517.40,52.00 L517.72,52.00 L518.04,52.00 L518.37,52.00 L518.69,52.00 L519.01,52.00 L519.34,52.00 L519.66,52.00 L519.98,52.00 L520.30,52.00 L520.63,52.00 L520.95,52.00 L521.27,52.00 L521.60,52.00 L521.92,52.00 L522.24,52.00 L522.56,52.00 L522.89,52.00 L523.21,52.00 L523.53,52.00 L523.86,52.00 L524.18,52.00 L524.50,52.00 L524.82,52.00 L525.15,52.00 L525.47,52.00 L525.79,52.00 L526.12,52.00 L526.44,52.00 L526.76,52.00 L527.08,52.00 L527.41,52.00 L527.73,52.00 L528.05,52.00 L528.38,52.00 L528.70,52.00 L529.02,52.00 L529.34,52.00 L529.67,52.00 L529.99,52.00 L530.31,52.00 L530.64,52.00 L530.96,52.00 L531.28,52.00 L531.61,52.00 L531.93,52.00 L532.25,52.00 L532.57,52.00 L532.90,52.00 L533.22,52.00 L533.54,52.00 L533.87,52.00 L534.19,52.00 L534.51,52.00 L534.83,52.00 L535.16,52.00 L535.48,52.00 L535.80,52.00 L536.13,52.00 L536.45,52.00 L536.77,52.00 L537.09,52.00 L537.42,52.00 L537.74,52.00 L538.06,52.00 L538.39,52.00 L538.71,52.00 L539.03,52.00 L539.35,52.00 L539.68,52.00 L540.00,52.00" fill="none" stroke="#E69F00" stroke-width="2.25"/>
  <path d="M56.00,50.14 L56.32,50.39 L56.65,50.43 L56.97,50.67 L57.29,50.70 L57.61,50.91 L57.94,50.93 L58.26,51.11 L58.58,51.14 L58.91,51.30 L59.23,51.32 L59.55,51.47 L59.87,51.49 L60.20,51.62 L60.52,51.64 L60.84,51.75 L61.17,51.77 L61.49,51.87 L61.81,51.88 L62.13,51.95 L62.46,51.96 L62.78,51.99 L63.10,52.00 L63.43,51.99 L63.75,51.99 L64.07,51.95 L64.39,51.94 L64.72,51.86 L65.04,51.85 L65.36,51.75 L65.69,51.74 L66.01,51.64 L66.33,51.63 L66.66,51.57 L66.98,51.56 L67.30,51.54 L67.62,51.54 L67.95,51.58 L68.27,51.59 L68.59,51.68 L68.92,51.70 L69.24,51.83 L69.56,51.85 L69.88,52.02 L70.21,52.04 L70.53,52.23 L70.85,52.26 L71.18,52.46 L71.50,52.49 L71.82,52.71 L72.14,52.74 L72.47,52.96 L72.79,52.99 L73.11,53.22 L73.44,53.25 L73.76,53.48 L74.08,53.51 L74.40,53.75 L74.73,53.78 L75.05,54.03 L75.37,54.06 L75.70,54.31 L76.02,54.34 L76.34,54.60 L76.66,54.63 L76.99,54.89 L77.31,54.93 L77.63,55.19 L77.96,55.23 L78.28,55.51 L78.60,55.55 L78.92,55.83 L79.25,55.87 L79.57,56.16 L79.89,56.20 L80.22,56.49 L80.54,56.54 L80.86,56.83 L81.18,56.87 L81.51,57.17 L81.83,57.21 L82.15,57.51 L82.48,57.55 L82.80,57.85 L83.12,57.89 L83.44,58.19 L83.77,58.23 L84.09,58.53 L84.41,58.58 L84.74,58.88 L85.06,58.93 L85.38,59.23 L85.71,59.28 L86.03,59.59 L86.35,59.63 L86.67,59.94 L87.00,59.99 L87.32,60.30 L87.64,60.34 L87.97,60.66 L88.29,60.71 L88.61,61.02 L88.93,61.07 L89.26,61.39 L89.58,61.44 L89.90,61.76 L90.23,61.81 L90.55,62.13 L90.87,62.18 L91.19,62.51 L91.52,62.56 L91.84,62.89 L92.16,62.94 L92.49,63.27 L92.81,63.32 L93.13,63.65 L93.45,63.70 L93.78,64.04 L94.10,64.09 L94.42,64.43 L94.75,64.48 L95.07,64.83 L95.39,64.88 L95.71,65.22 L96.04,65.27 L96.36,65.62 L96.68,65.67 L97.01,66.03 L97.33,66.08 L97.65,66.43 L97.97,66.49 L98.30,66.84 L98.62,66.89 L98.94,67.26 L99.27,67.31 L99.59,67.67 L99.91,67.72 L100.23,68.09 L100.56,68.14 L100.88,68.51 L101.20,68.56 L101.53,68.93 L101.85,68.98 L102.17,69.36 L102.49,69.41 L102.82,69.79 L103.14,69.84 L103.46,70.22 L103.79,70.27 L104.11,70.65 L104.43,70.71 L104.76,71.09 L105.08,71.14 L105.40,71.53 L105.72,71.58 L106.05,71.97 L106.37,72.02 L106.69,72.41 L107.02,72.46 L107.34,72.85 L107.66,72.91 L107.98,73.30 L108.31,73.36 L108.63,73.75 L108.95,73.81 L109.28,74.20 L109.60,74.26 L109.92,74.66 L110.24,74.71 L110.57,75.11 L110.89,75.17 L111.21,75.57 L111.54,75.62 L111.86,76.02 L112.18,76.08 L112.50,76.48 L112.83,76.54 L113.15,76.95 L113.47,77.00 L113.80,77.41 L114.12,77.47 L114.44,77.87 L114.76,77.93 L115.09,78.34 L115.41,78.40 L115.73,78.81 L116.06,78.86 L116.38,79.27 L116.70,79.33 L117.02,79.74 L117.35,79.80 L117.67,80.21 L117.99,80.27 L118.32,80.68 L118.64,80.74 L118.96,81.15 L119.28,81.21 L119.61,81.63 L119.93,81.69 L120.25,82.10 L120.58,82.16 L120.90,82.57 L121.22,82.63 L121.55,83.05 L121.87,83.11 L122.19,83.52 L122.51,83.58 L122.84,84.00 L123.16,84.06 L123.48,84.48 L123.81,84.54 L124.13,84.95 L124.45,85.01 L124.77,85.43 L125.10,85.49 L125.42,85.91 L125.74,85.97 L126.07,86.39 L126.39,86.45 L126.71,86.86 L127.03,86.92 L127.36,87.34 L127.68,87.40 L128.00,87.82 L128.33,87.88 L128.65,88.30 L128.97,88.36 L129.29,88.78 L129.62,88.84 L129.94,89.26 L130.26,89.32 L130.59,89.74 L130.91,89.80 L131.23,90.22 L131.55,90.28 L131.88,90.70 L132.20,90.76 L132.52,91.19 L132.85,91.25 L133.17,91.67 L133.49,91.73 L133.81,92.15 L134.14,92.21 L134.46,92.63 L134.78,92.69 L135.11,93.12 L135.43,93.18 L135.75,93.60 L136.07,93.66 L136.40,94.08 L136.72,94.14 L137.04,94.57 L137.37,94.63 L137.69,95.05 L138.01,95.11 L138.33,95.54 L138.66,95.60 L138.98,96.03 L139.30,96.09 L139.63,96.51 L139.95,96.57 L140.27,97.00 L140.60,97.06 L140.92,97.49 L141.24,97.55 L141.56,97.98 L141.89,98.04 L142.21,98.47 L142.53,98.53 L142.86,98.96 L143.18,99.02 L143.50,99.45 L143.82,99.52 L144.15,99.95 L144.47,100.01 L144.79,100.44 L145.12,100.51 L145.44,100.94 L145.76,101.00 L146.08,101.44 L146.41,101.50 L146.73,101.94 L147.05,102.00 L147.38,102.44 L147.70,102.50 L148.02,102.94 L148.34,103.00 L148.67,103.44 L148.99,103.51 L149.31,103.95 L149.64,104.01 L149.96,104.45 L150.28,104.52 L150.60,104.96 L150.93,105.03 L151.25,105.47 L151.57,105.54 L151.90,105.98 L152.22,106.05 L152.54,106.50 L152.86,106.56 L153.19,107.01 L153.51,107.08 L153.83,107.53 L154.16,107.60 L154.48,108.05 L154.80,108.12 L155.12,108.57 L155.45,108.64 L155.77,109.10 L156.09,109.16 L156.42,109.62 L156.74,109.69 L157.06,110.15 L157.38,110.22 L157.71,110.68 L158.03,110.75 L158.35,111.21 L158.68,111.28 L159.00,111.75 L159.32,111.81 L159.65,112.28 L159.97,112.35 L160.29,112.82 L160.61,112.89 L160.94,113.37 L161.26,113.43 L161.58,113.91 L161.91,113.98 L162.23,114.46 L162.55,114.53 L162.87,115.01 L163.20,115.08 L163.52,115.56 L163.84,115.63 L164.17,116.11 L164.49,116.18 L164.81,116.67 L165.13,116.74 L165.46,117.23 L165.78,117.30 L166.10,117.79 L166.43,117.86 L166.75,118.36 L167.07,118.43 L167.39,118.93 L167.72,119.00 L168.04,119.50 L168.36,119.57 L168.69,120.07 L169.01,120.14 L169.33,120.65 L169.65,120.72 L169.98,121.23 L170.30,121.30 L170.62,121.81 L170.95,121.88 L171.27,122.39 L171.59,122.47 L171.91,122.98 L172.24,123.05 L172.56,123.57 L172.88,123.65 L173.21,124.16 L173.53,124.24 L173.85,124.76 L174.17,124.84 L174.50,125.36 L174.82,125.44 L175.14,125.96 L175.47,126.04 L175.79,126.57 L176.11,126.64 L176.43,127.18 L176.76,127.25 L177.08,127.79 L177.40,127.87 L177.73,128.40 L178.05,128.48 L178.37,129.02 L178.70,129.10 L179.02,129.64 L179.34,129.72 L179.66,130.27 L179.99,130.34 L180.31,130.89 L180.63,130.97 L180.96,131.52 L181.28,131.60 L181.60,132.16 L181.92,132.24 L182.25,132.79 L182.57,132.87 L182.89,133.43 L183.22,133.51 L183.54,134.08 L183.86,134.16 L184.18,134.72 L184.51,134.80 L184.83,135.37 L185.15,135.45 L185.48,136.02 L185.80,136.10 L186.12,136.68 L186.44,136.76 L186.77,137.34 L187.09,137.42 L187.41,138.00 L187.74,138.08 L188.06,138.67 L188.38,138.75 L188.70,139.33 L189.03,139.42 L189.35,140.01 L189.67,140.09 L190.00,140.68 L190.32,140.77 L190.64,141.36 L190.96,141.45 L191.29,142.04 L191.61,142.13 L191.93,142.73 L192.26,142.82 L192.58,143.42 L192.90,143.50 L193.22,144.11 L193.55,144.20 L193.87,144.81 L194.19,144.89 L194.52,145.51 L194.84,145.59 L195.16,146.21 L195.48,146.30 L195.81,146.91 L196.13,147.00 L196.45,147.62 L196.78,147.71 L197.10,148.34 L197.42,148.43 L197.75,149.05 L198.07,149.14 L198.39,149.77 L198.71,149.86 L199.04,150.50 L199.36,150.59 L199.68,151.22 L200.01,151.31 L200.33,151.95 L200.65,152.05 L200.97,152.69 L201.30,152.78 L201.62,153.43 L201.94,153.52 L202.27,154.17 L202.59,154.26 L202.91,154.91 L203.23,155.00 L203.56,155.66 L203.88,155.75 L204.20,156.41 L204.53,156.51 L204.85,157.17 L205.17,157.26 L205.49,157.93 L205.82,158.02 L206.14,158.69 L206.46,158.78 L206.79,159.46 L207.11,159.55 L207.43,160.23 L207.75,160.32 L208.08,161.00 L208.40,161.10 L208.72,161.78 L209.05,161.87 L209.37,162.56 L209.69,162.66 L210.01,163.34 L210.34,163.44 L210.66,164.13 L210.98,164.23 L211.31,164.92 L211.63,165.02 L211.95,165.72 L212.27,165.82 L212.60,166.52 L212.92,166.62 L213.24,167.32 L213.57,167.42 L213.89,168.13 L214.21,168.23 L214.54,168.94 L214.86,169.04 L215.18,169.76 L215.50,169.86 L215.83,170.58 L216.15,170.68 L216.47,171.40 L216.80,171.50 L217.12,172.22 L217.44,172.33 L217.76,173.05 L218.09,173.16 L218.41,173.89 L218.73,173.99 L219.06,174.73 L219.38,174.83 L219.70,175.57 L220.02,175.68 L220.35,176.42 L220.67,176.52 L220.99,176.86 L221.32,176.86 L221.64,176.86 L221.96,176.86 L222.28,176.86 L222.61,176.86 L222.93,176.86 L223.25,176.86 L223.58,176.86 L223.90,176.86 L224.22,176.86 L224.54,176.86 L224.87,176.86 L225.19,176.86 L225.51,176.86 L225.84,176.86 L226.16,176.86 L226.48,176.86 L226.80,176.86 L227.13,176.86 L227.45,176.86 L227.77,176.86 L228.10,176.86 L228.42,176.86 L228.74,176.86 L229.06,176.86 L229.39,176.86 L229.71,176.86 L230.03,176.86 L230.36,176.86 L230.68,176.86 L231.00,176.86 L231.32,176.86 L231.65,176.86 L231.97,176.86 L232.29,176.86 L232.62,176.86 L232.94,176.86 L233.26,176.86 L233.59,176.86 L233.91,176.86 L234.23,176.86 L234.55,176.86 L234.88,176.86 L235.20,176.86 L235.52,176.86 L235.85,176.86 L236.17,176.86 L236.49,176.86 L236.81,176.86 L237.14,176.86 L237.46,176.86 L237.78,176.86 L238.11,176.86 L238.43,176.86 L238.75,176.86 L239.07,176.86 L239.40,176.86 L239.72,176.86 L240.04,176.86 L240.37,176.86 L240.69,176.86 L241.01,176.86 L241.33,176.86 L241.66,176.86 L241.98,176.86 L242.30,176.86 L242.63,176.86 L242.95,176.86 L243.27,176.86 L243.59,176.86 L243.92,176.86 L244.24,176.86 L244.56,176.86 L244.89,176.86 L245.21,176.86 L245.53,176.86 L245.85,176.86 L246.18,176.86 L246.50,176.86 L246.82,176.86 L247.15,176.86 L247.47,176.86 L247.79,176.86 L248.11,176.86 L248.44,176.86 L248.76,176.86 L249.08,176.86 L249.41,176.86 L249.73,176.86 L250.05,176.86 L250.37,176.86 L250.70,176.86 L251.02,176.86 L251.34,176.86 L251.67,176.86 L251.99,176.86 L252.31,176.86 L252.64,176.86 L252.96,176.86 L253.28,176.86 L253.60,176.86 L253.93,176.86 L254.25,176.86 L254.57,176.86 L254.90,176.86 L255.22,176.86 L255.54,176.86 L255.86,176.86 L256.19,176.86 L256.51,176.86 L256.83,176.86 L257.16,176.86 L257.48,176.86 L257.80,176.86 L258.12,176.86 L258.45,176.86 L258.77,176.86 L259.09,176.86 L259.42,176.86 L259.74,176.86 L260.06,176.86 L260.38,176.86 L260.71,176.86 L261.03,176.86 L261.35,176.86 L261.68,176.86 L262.00,176.86 L262.32,176.86 L262.64,176.86 L262.97,176.86 L263.29,176.86 L263.61,176.86 L263.94,176.86 L264.26,176.86 L264.58,176.86 L264.90,176.86 L265.23,176.86 L265.55,176.86 L265.87,176.86 L266.20,176.86 L266.52,176.86 L266.84,176.86 L267.16,176.86 L267.49,176.86 L267.81,176.86 L268.13,176.86 L268.46,176.86 L268.78,176.86 L269.10,176.86 L269.42,176.86 L269.75,176.86 L270.07,176.86 L270.39,176.86 L270.72,176.86 L271.04,176.86 L271.36,176.86 L271.69,176.86 L272.01,176.86 L272.33,176.86 L272.65,176.86 L272.98,176.86 L273.30,176.86 L273.62,176.86 L273.95,176.86 L274.27,176.86 L274.59,176.86 L274.91,176.86 L275.24,176.86 L275.56,176.86 L275.88,176.86 L276.21,176.86 L276.53,176.86 L276.85,176.86 L277.17,176.86 L277.50,176.86 L277.82,176.86 L278.14,176.86 L278.47,176.86 L278.79,176.86 L279.11,176.86 L279.43,176.86 L279.76,176.86 L280.08,176.86 L280.40,176.86 L280.73,176.86 L281.05,176.86 L281.37,176.86 L281.69,176.86 L282.02,176.86 L282.34,176.86 L282.66,176.86 L282.99,176.86 L283.31,176.86 L283.63,176.86 L283.95,176.86 L284.28,176.86 L284.60,176.86 L284.92,176.86 L285.25,176.86 L285.57,176.86 L285.89,176.86 L286.21,176.86 L286.54,176.86 L286.86,176.86 L287.18,176.86 L287.51,176.86 L287.83,176.86 L288.15,176.86 L288.47,176.86 L288.80,176.86 L289.12,176.86 L289.44,176.86 L289.77,176.86 L290.09,176.86 L290.41,176.86 L290.74,176.86 L291.06,176.86 L291.38,176.86 L291.70,176.86 L292.03,176.86 L292.35,176.86 L292.67,176.86 L293.00,176.86 L293.32,176.86 L293.64,176.86 L293.96,176.86 L294.29,176.86 L294.61,176.86 L294.93,176.86 L295.26,176.86 L295.58,176.86 L295.90,176.86 L296.22,176.86 L296.55,176.86 L296.87,176.86 L297.19,176.86 L297.52,176.86 L297.84,176.86 L298.16,176.86 L298.48,176.86 L298.81,176.86 L299.13,176.86 L299.45,176.86 L299.78,176.86 L300.10,176.86 L300.42,176.86 L300.74,176.86 L301.07,176.86 L301.39,176.86 L301.71,176.86 L302.04,176.86 L302.36,176.86 L302.68,176.86 L303.00,176.86 L303.33,176.86 L303.65,176.86 L303.97,176.86 L304.30,176.86 L304.62,176.86 L304.94,176.86 L305.26,176.86 L305.59,176.86 L305.91,176.86 L306.23,176.86 L306.56,176.86 L306.88,176.86 L307.20,176.86 L307.53,176.86 L307.85,176.86 L308.17,176.86 L308.49,176.86 L308.82,176.86 L309.14,176.86 L309.46,176.86 L309.79,176.86 L310.11,176.86 L310.43,176.86 L310.75,176.86 L311.08,176.86 L311.40,176.86 L311.72,176.86 L312.05,176.86 L312.37,176.86 L312.69,176.86 L313.01,176.86 L313.34,176.86 L313.66,176.86 L313.98,176.86 L314.31,176.86 L314.63,176.86 L314.95,176.86 L315.27,176.86 L315.60,176.86 L315.92,176.86 L316.24,176.86 L316.57,176.86 L316.89,176.86 L317.21,176.86 L317.53,176.86 L317.86,176.86 L318.18,176.86 L318.50,176.86 L318.83,176.86 L319.15,176.86 L319.47,176.86 L319.79,176.86 L320.12,176.86 L320.44,176.86 L320.76,176.86 L321.09,176.86 L321.41,176.86 L321.73,176.86 L322.05,176.86 L322.38,176.86 L322.70,176.86 L323.02,176.86 L323.35,176.86 L323.67,176.86 L323.99,176.86 L324.31,176.86 L324.64,176.86 L324.96,176.86 L325.28,176.86 L325.61,176.86 L325.93,176.86 L326.25,176.86 L326.58,176.86 L326.90,176.86 L327.22,176.86 L327.54,176.86 L327.87,176.86 L328.19,176.86 L328.51,176.86 L328.84,176.86 L329.16,176.86 L329.48,176.86 L329.80,176.86 L330.13,176.86 L330.45,176.86 L330.77,176.86 L331.10,176.86 L331.42,176.86 L331.74,176.86 L332.06,176.86 L332.39,176.86 L332.71,176.86 L333.03,176.86 L333.36,176.86 L333.68,176.86 L334.00,176.86 L334.32,176.86 L334.65,176.86 L334.97,176.86 L335.29,176.86 L335.62,176.86 L335.94,176.86 L336.26,176.86 L336.58,176.86 L336.91,176.86 L337.23,176.86 L337.55,176.86 L337.88,176.86 L338.20,176.86 L338.52,176.86 L338.84,176.86 L339.17,176.86 L339.49,176.86 L339.81,176.86 L340.14,176.86 L340.46,176.86 L340.78,176.86 L341.10,176.86 L341.43,176.86 L341.75,176.86 L342.07,176.86 L342.40,176.86 L342.72,176.86 L343.04,176.86 L343.36,176.86 L343.69,176.86 L344.01,176.86 L344.33,176.86 L344.66,176.86 L344.98,176.86 L345.30,176.86 L345.63,176.21 L345.95,175.22 L346.27,168.15 L346.59,167.12 L346.92,159.75 L347.24,158.67 L347.56,151.00 L347.89,149.88 L348.21,141.92 L348.53,140.76 L348.85,132.49 L349.18,131.29 L349.50,122.73 L349.82,121.49 L350.15,112.63 L350.47,111.35 L350.79,102.20 L351.11,100.87 L351.44,91.43 L351.76,90.06 L352.08,80.33 L352.41,78.92 L352.73,68.93 L353.05,69.58 L353.37,68.93 L353.70,69.58 L354.02,68.93 L354.34,69.58 L354.67,68.94 L354.99,69.57 L355.31,68.94 L355.63,69.56 L355.96,68.95 L356.28,69.56 L356.60,68.96 L356.93,69.55 L357.25,68.96 L357.57,69.54 L357.89,68.97 L358.22,69.54 L358.54,68.97 L358.86,69.53 L359.19,68.98 L359.51,69.53 L359.83,68.99 L360.15,69.52 L360.48,68.99 L360.80,69.51 L361.12,69.00 L361.45,69.51 L361.77,69.00 L362.09,69.50 L362.41,69.01 L362.74,69.50 L363.06,69.01 L363.38,69.49 L363.71,69.02 L364.03,69.49 L364.35,69.02 L364.68,69.48 L365.00,69.03 L365.32,69.47 L365.64,69.03 L365.97,69.47 L366.29,69.04 L366.61,69.46 L366.94,69.04 L367.26,69.46 L367.58,69.05 L367.90,69.46 L368.23,69.05 L368.55,69.45 L368.87,69.05 L369.20,69.45 L369.52,69.06 L369.84,69.44 L370.16,69.06 L370.49,69.44 L370.81,69.07 L371.13,69.43 L371.46,69.07 L371.78,69.43 L372.10,69.07 L372.42,69.43 L372.75,69.08 L373.07,69.42 L373.39,69.08 L373.72,69.42 L374.04,69.09 L374.36,69.41 L374.68,69.09 L375.01,69.41 L375.33,69.09 L375.65,69.41 L375.98,69.10 L376.30,69.40 L376.62,69.10 L376.94,69.40 L377.27,69.10 L377.59,69.40 L377.91,69.11 L378.24,69.39 L378.56,69.11 L378.88,69.39 L379.20,69.11 L379.53,69.39 L379.85,69.11 L380.17,69.38 L380.50,69.12 L380.82,69.38 L381.14,69.12 L381.46,69.38 L381.79,69.12 L382.11,69.37 L382.43,69.13 L382.76,69.37 L383.08,69.13 L383.40,69.37 L383.73,69.13 L384.05,69.37 L384.37,69.13 L384.69,69.36 L385.02,69.14 L385.34,69.36 L385.66,69.14 L385.99,69.36 L386.31,69.14 L386.63,69.36 L386.95,69.14 L387.28,69.35 L387.60,69.15 L387.92,69.35 L388.25,69.15 L388.57,69.35 L388.89,69.15 L389.21,69.35 L389.54,69.15 L389.86,69.35 L390.18,69.15 L390.51,69.34 L390.83,69.16 L391.15,69.34 L391.47,69.16 L391.80,69.34 L392.12,69.16 L392.44,69.34 L392.77,69.16 L393.09,69.34 L393.41,69.16 L393.73,69.33 L394.06,69.17 L394.38,69.33 L394.70,69.17 L395.03,69.33 L395.35,69.17 L395.67,69.33 L395.99,69.17 L396.32,69.33 L396.64,69.17 L396.96,69.32 L397.29,69.17 L397.61,69.32 L397.93,69.18 L398.25,69.32 L398.58,69.18 L398.90,69.32 L399.22,69.18 L399.55,69.32 L399.87,69.18 L400.19,69.32 L400.52,69.18 L400.84,69.31 L401.16,69.18 L401.48,69.31 L401.81,69.19 L402.13,69.31 L402.45,69.19 L402.78,69.31 L403.10,69.19 L403.42,69.31 L403.74,69.19 L404.07,69.31 L404.39,69.19 L404.71,69.31 L405.04,69.19 L405.36,69.31 L405.68,69.19 L406.00,69.30 L406.33,69.19 L406.65,69.30 L406.97,69.20 L407.30,69.30 L407.62,69.20 L407.94,69.30 L408.26,69.20 L408.59,69.30 L408.91,69.20 L409.23,69.30 L409.56,69.20 L409.88,69.30 L410.20,69.20 L410.52,69.30 L410.85,69.20 L411.17,69.30 L411.49,69.20 L411.82,69.29 L412.14,69.20 L412.46,69.29 L412.78,69.20 L413.11,69.29 L413.43,69.21 L413.75,69.29 L414.08,69.21 L414.40,69.29 L414.72,69.21 L415.04,69.29 L415.37,69.21 L415.69,69.29 L416.01,69.21 L416.34,69.29 L416.66,69.21 L416.98,69.29 L417.30,69.21 L417.63,69.29 L417.95,69.21 L418.27,69.29 L418.60,69.21 L418.92,69.28 L419.24,69.21 L419.57,69.28 L419.89,69.21 L420.21,69.28 L420.53,69.22 L420.86,69.28 L421.18,69.22 L421.50,69.28 L421.83,69.22 L422.15,69.28 L422.47,69.22 L422.79,69.28 L423.12,69.22 L423.44,69.28 L423.76,69.22 L424.09,69.28 L424.41,69.22 L424.73,69.28 L425.05,69.22 L425.38,69.28 L425.70,69.22 L426.02,69.28 L426.35,69.22 L426.67,69.28 L426.99,69.22 L427.31,69.28 L427.64,69.22 L427.96,69.27 L428.28,69.22 L428.61,69.27 L428.93,69.22 L429.25,69.27 L429.57,69.22 L429.90,69.27 L430.22,69.22 L430.54,69.27 L430.87,69.23 L431.19,69.27 L431.51,69.23 L431.83,69.27 L432.16,69.23 L432.48,69.27 L432.80,69.23 L433.13,69.27 L433.45,69.23 L433.77,69.27 L434.09,69.23 L434.42,69.27 L434.74,69.23 L435.06,69.27 L435.39,69.23 L435.71,69.27 L436.03,69.23 L436.35,69.27 L436.68,69.23 L437.00,69.27 L437.32,69.23 L437.65,69.27 L437.97,69.23 L438.29,69.27 L438.62,69.23 L438.94,69.27 L439.26,69.23 L439.58,69.27 L439.91,69.23 L440.23,69.27 L440.55,69.23 L440.88,69.27 L441.20,69.23 L441.52,69.27 L441.84,69.23 L442.17,69.26 L442.49,69.23 L442.81,69.26 L443.14,69.23 L443.46,69.26 L443.78,69.23 L444.10,69.26 L444.43,69.23 L444.75,69.26 L445.07,69.23 L445.40,69.26 L445.72,69.23 L446.04,69.26 L446.36,69.23 L446.69,69.26 L447.01,69.24 L447.33,69.26 L447.66,69.24 L447.98,69.26 L448.30,69.24 L448.62,69.26 L448.95,69.24 L449.27,69.26 L449.59,69.24 L449.92,69.26 L450.24,69.24 L450.56,69.26 L450.88,69.24 L451.21,69.26 L451.53,69.24 L451.85,69.26 L452.18,69.24 L452.50,69.26 L452.82,69.24 L453.14,69.26 L453.47,69.24 L453.79,69.26 L454.11,69.24 L454.44,69.26 L454.76,69.24 L455.08,69.26 L455.40,69.24 L455.73,69.26 L456.05,69.24 L456.37,69.26 L456.70,69.24 L457.02,69.26 L457.34,69.24 L457.67,69.26 L457.99,69.24 L458.31,69.26 L458.63,69.24 L458.96,69.26 L459.28,69.24 L459.60,69.26 L459.93,69.24 L460.25,69.26 L460.57,69.24 L460.89,69.26 L461.22,69.24 L461.54,69.26 L461.86,69.24 L462.19,69.26 L462.51,69.24 L462.83,69.26 L463.15,69.24 L463.48,69.26 L463.80,69.24 L464.12,69.26 L464.45,69.24 L464.77,69.26 L465.09,69.24 L465.41,69.26 L465.74,69.24 L466.06,69.26 L466.38,69.24 L466.71,69.26 L467.03,69.24 L467.35,69.26 L467.67,69.24 L468.00,69.26 L468.32,69.24 L468.64,69.26 L468.97,69.24 L469.29,69.26 L469.61,69.24 L469.93,69.25 L470.26,69.24 L470.58,69.25 L470.90,69.24 L471.23,69.25 L471.55,69.24 L471.87,69.25 L472.19,69.24 L472.52,69.25 L472.84,69.24 L473.16,69.25 L473.49,69.24 L473.81,69.25 L474.13,69.24 L474.45,69.25 L474.78,69.24 L475.10,69.25 L475.42,69.24 L475.75,69.25 L476.07,69.24 L476.39,69.25 L476.72,69.24 L477.04,69.25 L477.36,69.24 L477.68,69.25 L478.01,69.24 L478.33,69.25 L478.65,69.24 L478.98,69.25 L479.30,69.24 L479.62,69.25 L479.94,69.24 L480.27,69.25 L480.59,69.24 L480.91,69.25 L481.24,69.24 L481.56,69.25 L481.88,69.24 L482.20,69.25 L482.53,69.24 L482.85,69.25 L483.17,69.24 L483.50,69.25 L483.82,69.24 L484.14,69.25 L484.46,69.24 L484.79,69.25 L485.11,69.25 L485.43,69.25 L485.76,69.25 L486.08,69.25 L486.40,69.25 L486.72,69.25 L487.05,69.25 L487.37,69.25 L487.69,69.25 L488.02,69.25 L488.34,69.25 L488.66,69.25 L488.98,69.25 L489.31,69.25 L489.63,69.25 L489.95,69.25 L490.28,69.25 L490.60,69.25 L490.92,69.25 L491.24,69.25 L491.57,69.25 L491.89,69.25 L492.21,69.25 L492.54,69.25 L492.86,69.25 L493.18,69.25 L493.51,69.25 L493.83,69.25 L494.15,69.25 L494.47,69.25 L494.80,69.25 L495.12,69.25 L495.44,69.25 L495.77,69.25 L496.09,69.25 L496.41,69.25 L496.73,69.25 L497.06,69.25 L497.38,69.25 L497.70,69.25 L498.03,69.25 L498.35,69.25 L498.67,69.25 L498.99,69.25 L499.32,69.25 L499.64,69.25 L499.96,69.25 L500.29,69.25 L500.61,69.25 L500.93,69.25 L501.25,69.25 L501.58,69.25 L501.90,69.25 L502.22,69.25 L502.55,69.25 L502.87,69.25 L503.19,69.25 L503.51,69.25 L503.84,69.25 L504.16,69.25 L504.48,69.25 L504.81,69.25 L505.13,69.25 L505.45,69.25 L505.77,69.25 L506.10,69.25 L506.42,69.25 L506.74,69.25 L507.07,69.25 L507.39,69.25 L507.71,69.25 L508.03,69.25 L508.36,69.25 L508.68,69.25 L509.00,69.25 L509.33,69.25 L509.65,69.25 L509.97,69.25 L510.29,69.25 L510.62,69.25 L510.94,69.25 L511.26,69.25 L511.59,69.25 L511.91,69.25 L512.23,69.25 L512.56,69.25 L512.88,69.25 L513.20,69.25 L513.52,69.25 L513.85,69.25 L514.17,69.25 L514.49,69.25 L514.82,69.25 L515.14,69.25 L515.46,69.25 L515.78,69.25 L516.11,69.25 L516.43,69.25 L516.75,69.25 L517.08,69.25 L517.40,69.25 L517.72,69.25 L518.04,69.25 L518.37,69.25 L518.69,69.25 L519.01,69.25 L519.34,69.25 L519.66,69.25 L519.98,69.25 L520.30,69.25 L520.63,69.25 L520.95,69.25 L521.27,69.25 L521.60,69.25 L521.92,69.25 L522.24,69.25 L522.56,69.25 L522.89,69.25 L523.21,69.25 L523.53,69.25 L523.86,69.25 L524.18,69.25 L524.50,69.25 L524.82,69.25 L525.15,69.25 L525.47,69.25 L525.79,69.25 L526.12,69.25 L526.44,69.25 L526.76,69.25 L527.08,69.25 L527.41,69.25 L527.73,69.25 L528.05,69.25 L528.38,69.25 L528.70,69.25 L529.02,69.25 L529.34,69.25 L529.67,69.25 L529.99,69.25 L530.31,69.25 L530.64,69.25 L530.96,69.25 L531.28,69.25 L531.61,69.25 L531.93,69.25 L532.25,69.25 L532.57,69.25 L532.90,69.25 L533.22,69.25 L533.54,69.25 L533.87,69.25 L534.19,69.25 L534.51,69.25 L534.83,69.25 L535.16,69.25 L535.48,69.25 L535.80,69.25 L536.13,69.25 L536.45,69.25 L536.77,69.25 L537.09,69.25 L537.42,69.25 L537.74,69.25 L538.06,69.25 L538.39,69.25 L538.71,69.25 L539.03,69.25 L539.35,69.25 L539.68,69.25 L540.00,69.25" fill="none" stroke="#D55E00" stroke-width="1.75" stroke-dasharray="5 3"/>
  <path d="M56.00,50.14 L56.32,50.43 L56.65,50.48 L56.97,50.80 L57.29,50.84 L57.61,51.16 L57.94,51.21 L58.26,51.53 L58.58,51.58 L58.91,51.94 L59.23,52.00 L59.55,52.40 L59.87,52.46 L60.20,52.91 L60.52,52.98 L60.84,53.46 L61.17,53.53 L61.49,54.02 L61.81,54.10 L62.13,54.61 L62.46,54.68 L62.78,55.20 L63.10,55.28 L63.43,55.80 L63.75,55.88 L64.07,56.41 L64.39,56.49 L64.72,57.03 L65.04,57.10 L65.36,57.65 L65.69,57.73 L66.01,58.29 L66.33,58.37 L66.66,58.95 L66.98,59.03 L67.30,59.63 L67.62,59.72 L67.95,60.34 L68.27,60.43 L68.59,61.08 L68.92,61.17 L69.24,61.85 L69.56,61.94 L69.88,62.65 L70.21,62.75 L70.53,63.48 L70.85,63.58 L71.18,64.33 L71.50,64.44 L71.82,65.21 L72.14,65.32 L72.47,66.11 L72.79,66.23 L73.11,67.03 L73.44,67.14 L73.76,67.95 L74.08,68.07 L74.40,68.88 L74.73,69.00 L75.05,69.81 L75.37,69.92 L75.70,70.72 L76.02,70.84 L76.34,71.63 L76.66,71.74 L76.99,72.51 L77.31,72.62 L77.63,73.36 L77.96,73.47 L78.28,74.20 L78.60,74.30 L78.92,75.00 L79.25,75.10 L79.57,75.77 L79.89,75.87 L80.22,76.52 L80.54,76.61 L80.86,77.24 L81.18,77.33 L81.51,77.94 L81.83,78.03 L82.15,78.63 L82.48,78.71 L82.80,79.30 L83.12,79.38 L83.44,79.95 L83.77,80.04 L84.09,80.60 L84.41,80.68 L84.74,81.25 L85.06,81.33 L85.38,81.89 L85.71,81.97 L86.03,82.53 L86.35,82.61 L86.67,83.17 L87.00,83.25 L87.32,83.81 L87.64,83.90 L87.97,84.46 L88.29,84.54 L88.61,85.11 L88.93,85.19 L89.26,85.77 L89.58,85.85 L89.90,86.43 L90.23,86.51 L90.55,87.10 L90.87,87.18 L91.19,87.77 L91.52,87.86 L91.84,88.46 L92.16,88.54 L92.49,89.15 L92.81,89.23 L93.13,89.84 L93.45,89.93 L93.78,90.54 L94.10,90.63 L94.42,91.25 L94.75,91.34 L95.07,91.97 L95.39,92.06 L95.71,92.70 L96.04,92.79 L96.36,93.43 L96.68,93.52 L97.01,94.17 L97.33,94.26 L97.65,94.91 L97.97,95.01 L98.30,95.67 L98.62,95.76 L98.94,96.43 L99.27,96.53 L99.59,97.20 L99.91,97.30 L100.23,97.98 L100.56,98.07 L100.88,98.76 L101.20,98.86 L101.53,99.55 L101.85,99.65 L102.17,100.35 L102.49,100.45 L102.82,101.16 L103.14,101.26 L103.46,101.97 L103.79,102.07 L104.11,102.79 L104.43,102.89 L104.76,103.62 L105.08,103.72 L105.40,104.46 L105.72,104.56 L106.05,105.30 L106.37,105.40 L106.69,106.15 L107.02,106.26 L107.34,107.01 L107.66,107.12 L107.98,107.87 L108.31,107.98 L108.63,108.75 L108.95,108.85 L109.28,109.63 L109.60,109.74 L109.92,110.51 L110.24,110.62 L110.57,111.41 L110.89,111.52 L111.21,112.31 L111.54,112.42 L111.86,113.22 L112.18,113.33 L112.50,114.14 L112.83,114.25 L113.15,115.06 L113.47,115.18 L113.80,115.99 L114.12,116.11 L114.44,116.93 L114.76,117.05 L115.09,117.88 L115.41,118.00 L115.73,118.83 L116.06,118.95 L116.38,119.79 L116.70,119.91 L117.02,120.76 L117.35,120.88 L117.67,121.74 L117.99,121.86 L118.32,122.72 L118.64,122.84 L118.96,123.71 L119.28,123.83 L119.61,124.71 L119.93,124.83 L120.25,125.71 L120.58,125.84 L120.90,126.73 L121.22,126.85 L121.55,127.75 L121.87,127.87 L122.19,128.77 L122.51,128.90 L122.84,129.81 L123.16,129.94 L123.48,130.85 L123.81,130.98 L124.13,131.90 L124.45,132.03 L124.77,132.96 L125.10,133.09 L125.42,134.02 L125.74,134.16 L126.07,135.10 L126.39,135.23 L126.71,136.18 L127.03,136.31 L127.36,137.26 L127.68,137.40 L128.00,138.36 L128.33,138.50 L128.65,139.46 L128.97,139.60 L129.29,140.57 L129.62,140.71 L129.94,141.69 L130.26,141.83 L130.59,142.81 L130.91,142.96 L131.23,143.95 L131.55,144.09 L131.88,145.09 L132.20,145.23 L132.52,146.23 L132.85,146.38 L133.17,147.39 L133.49,147.53 L133.81,148.55 L134.14,148.70 L134.46,149.72 L134.78,149.87 L135.11,150.90 L135.43,151.05 L135.75,152.09 L136.07,152.24 L136.40,153.23 L136.72,153.49 L137.04,152.19 L137.37,151.40 L137.69,142.60 L138.01,141.18 L138.33,130.89 L138.66,129.38 L138.98,118.64 L139.30,117.07 L139.63,105.90 L139.95,104.27 L140.27,92.66 L140.60,90.97 L140.92,78.94 L141.24,77.19 L141.56,70.16 L141.89,70.16 L142.21,71.72 L142.53,70.16 L142.86,71.72 L143.18,71.72 L143.50,70.16 L143.82,71.72 L144.15,70.16 L144.47,71.72 L144.79,70.16 L145.12,71.72 L145.44,70.16 L145.76,71.72 L146.08,70.16 L146.41,71.72 L146.73,70.16 L147.05,70.17 L147.38,71.72 L147.70,71.70 L148.02,70.18 L148.34,71.69 L148.67,70.19 L148.99,71.68 L149.31,70.20 L149.64,71.67 L149.96,70.21 L150.28,71.66 L150.60,70.21 L150.93,71.65 L151.25,70.22 L151.57,71.64 L151.90,70.23 L152.22,71.63 L152.54,70.24 L152.86,71.62 L153.19,70.25 L153.51,71.61 L153.83,70.25 L154.16,71.60 L154.48,70.26 L154.80,71.59 L155.12,70.27 L155.45,71.58 L155.77,70.28 L156.09,71.57 L156.42,70.29 L156.74,71.56 L157.06,70.29 L157.38,71.55 L157.71,70.30 L158.03,71.54 L158.35,70.31 L158.68,71.53 L159.00,70.31 L159.32,71.53 L159.65,70.32 L159.97,71.52 L160.29,70.33 L160.61,71.51 L160.94,70.33 L161.26,71.50 L161.58,70.34 L161.91,71.49 L162.23,70.35 L162.55,71.49 L162.87,70.35 L163.20,71.48 L163.52,70.36 L163.84,71.47 L164.17,70.36 L164.49,71.46 L164.81,70.37 L165.13,71.46 L165.46,70.38 L165.78,71.45 L166.10,70.38 L166.43,71.44 L166.75,70.39 L167.07,71.44 L167.39,70.39 L167.72,71.43 L168.04,70.40 L168.36,71.42 L168.69,70.40 L169.01,71.42 L169.33,70.41 L169.65,71.41 L169.98,70.42 L170.30,71.40 L170.62,70.42 L170.95,71.40 L171.27,70.43 L171.59,71.39 L171.91,70.43 L172.24,71.39 L172.56,70.44 L172.88,71.38 L173.21,70.44 L173.53,71.37 L173.85,70.45 L174.17,71.37 L174.50,70.45 L174.82,71.36 L175.14,70.46 L175.47,71.36 L175.79,70.46 L176.11,71.35 L176.43,70.46 L176.76,71.35 L177.08,70.47 L177.40,71.34 L177.73,70.47 L178.05,71.34 L178.37,70.48 L178.70,71.33 L179.02,70.48 L179.34,71.33 L179.66,70.49 L179.99,71.32 L180.31,70.49 L180.63,71.32 L180.96,70.50 L181.28,71.31 L181.60,70.50 L181.92,71.31 L182.25,70.50 L182.57,71.30 L182.89,70.51 L183.22,71.30 L183.54,70.51 L183.86,71.29 L184.18,70.52 L184.51,71.29 L184.83,70.52 L185.15,71.28 L185.48,70.52 L185.80,71.28 L186.12,70.53 L186.44,71.27 L186.77,70.53 L187.09,71.27 L187.41,70.53 L187.74,71.27 L188.06,70.54 L188.38,71.26 L188.70,70.54 L189.03,71.26 L189.35,70.55 L189.67,71.25 L190.00,70.55 L190.32,71.25 L190.64,70.55 L190.96,71.25 L191.29,70.56 L191.61,71.24 L191.93,70.56 L192.26,71.24 L192.58,70.56 L192.90,71.24 L193.22,70.57 L193.55,71.23 L193.87,70.57 L194.19,71.23 L194.52,70.57 L194.84,71.22 L195.16,70.58 L195.48,71.22 L195.81,70.58 L196.13,71.22 L196.45,70.58 L196.78,71.21 L197.10,70.58 L197.42,71.21 L197.75,70.59 L198.07,71.21 L198.39,70.59 L198.71,71.20 L199.04,70.59 L199.36,71.20 L199.68,70.60 L200.01,71.20 L200.33,70.60 L200.65,71.19 L200.97,70.60 L201.30,71.19 L201.62,70.61 L201.94,71.19 L202.27,70.61 L202.59,71.19 L202.91,70.61 L203.23,71.18 L203.56,70.61 L203.88,71.18 L204.20,70.62 L204.53,71.18 L204.85,70.62 L205.17,71.17 L205.49,70.62 L205.82,71.17 L206.14,70.62 L206.46,71.17 L206.79,70.63 L207.11,71.16 L207.43,70.63 L207.75,71.16 L208.08,70.63 L208.40,71.16 L208.72,70.63 L209.05,71.16 L209.37,70.64 L209.69,71.15 L210.01,70.64 L210.34,71.15 L210.66,70.64 L210.98,71.15 L211.31,70.64 L211.63,71.15 L211.95,70.65 L212.27,71.14 L212.60,70.65 L212.92,71.14 L213.24,70.65 L213.57,71.14 L213.89,70.65 L214.21,71.14 L214.54,70.66 L214.86,71.13 L215.18,70.66 L215.50,71.13 L215.83,70.66 L216.15,71.13 L216.47,70.66 L216.80,71.13 L217.12,70.66 L217.44,71.12 L217.76,70.67 L218.09,71.12 L218.41,70.67 L218.73,71.12 L219.06,70.67 L219.38,71.12 L219.70,70.67 L220.02,71.12 L220.35,70.67 L220.67,71.11 L220.99,70.68 L221.32,71.11 L221.64,70.68 L221.96,71.11 L222.28,70.68 L222.61,71.11 L222.93,70.68 L223.25,71.10 L223.58,70.68 L223.90,71.10 L224.22,70.69 L224.54,71.10 L224.87,70.69 L225.19,71.10 L225.51,70.69 L225.84,71.10 L226.16,70.69 L226.48,71.09 L226.80,70.69 L227.13,71.09 L227.45,70.70 L227.77,71.09 L228.10,70.70 L228.42,71.09 L228.74,70.70 L229.06,71.09 L229.39,70.70 L229.71,71.08 L230.03,70.70 L230.36,71.08 L230.68,70.70 L231.00,71.08 L231.32,70.71 L231.65,71.08 L231.97,70.71 L232.29,71.08 L232.62,70.71 L232.94,71.08 L233.26,70.71 L233.59,71.07 L233.91,70.71 L234.23,71.07 L234.55,70.71 L234.88,71.07 L235.20,70.72 L235.52,71.07 L235.85,70.72 L236.17,71.07 L236.49,70.72 L236.81,71.07 L237.14,70.72 L237.46,71.06 L237.78,70.72 L238.11,71.06 L238.43,70.72 L238.75,71.06 L239.07,70.73 L239.40,71.06 L239.72,70.73 L240.04,71.06 L240.37,70.73 L240.69,71.06 L241.01,70.73 L241.33,71.05 L241.66,70.73 L241.98,71.05 L242.30,70.73 L242.63,71.05 L242.95,70.73 L243.27,71.05 L243.59,70.74 L243.92,71.05 L244.24,70.74 L244.56,71.05 L244.89,70.74 L245.21,71.05 L245.53,70.74 L245.85,71.04 L246.18,70.74 L246.50,71.04 L246.82,70.74 L247.15,71.04 L247.47,70.74 L247.79,71.04 L248.11,70.74 L248.44,71.04 L248.76,70.75 L249.08,71.04 L249.41,70.75 L249.73,71.04 L250.05,70.75 L250.37,71.03 L250.70,70.75 L251.02,71.03 L251.34,70.75 L251.67,71.03 L251.99,70.75 L252.31,71.03 L252.64,70.75 L252.96,71.03 L253.28,70.75 L253.60,71.03 L253.93,70.76 L254.25,71.03 L254.57,70.76 L254.90,71.03 L255.22,70.76 L255.54,71.02 L255.86,70.76 L256.19,71.02 L256.51,70.76 L256.83,71.02 L257.16,70.76 L257.48,71.02 L257.80,70.76 L258.12,71.02 L258.45,70.76 L258.77,71.02 L259.09,70.77 L259.42,71.02 L259.74,70.77 L260.06,71.02 L260.38,70.77 L260.71,71.02 L261.03,70.77 L261.35,71.01 L261.68,70.77 L262.00,71.01 L262.32,70.77 L262.64,71.01 L262.97,70.77 L263.29,71.01 L263.61,70.77 L263.94,71.01 L264.26,70.77 L264.58,71.01 L264.90,70.77 L265.23,71.01 L265.55,70.78 L265.87,71.01 L266.20,70.78 L266.52,71.01 L266.84,70.78 L267.16,71.00 L267.49,70.78 L267.81,71.00 L268.13,70.78 L268.46,71.00 L268.78,70.78 L269.10,71.00 L269.42,70.78 L269.75,71.00 L270.07,70.78 L270.39,71.00 L270.72,70.78 L271.04,71.00 L271.36,70.78 L271.69,71.00 L272.01,70.79 L272.33,71.00 L272.65,70.79 L272.98,71.00 L273.30,70.79 L273.62,71.00 L273.95,70.79 L274.27,70.99 L274.59,70.79 L274.91,70.99 L275.24,70.79 L275.56,70.99 L275.88,70.79 L276.21,70.99 L276.53,70.79 L276.85,70.99 L277.17,70.79 L277.50,70.99 L277.82,70.79 L278.14,70.99 L278.47,70.79 L278.79,70.99 L279.11,70.79 L279.43,70.99 L279.76,70.80 L280.08,70.99 L280.40,70.80 L280.73,70.99 L281.05,70.80 L281.37,70.98 L281.69,70.80 L282.02,70.98 L282.34,70.80 L282.66,70.98 L282.99,70.80 L283.31,70.98 L283.63,70.80 L283.95,70.98 L284.28,70.80 L284.60,70.98 L284.92,70.80 L285.25,70.98 L285.57,70.80 L285.89,70.98 L286.21,70.80 L286.54,70.98 L286.86,70.80 L287.18,70.98 L287.51,70.81 L287.83,70.98 L288.15,70.81 L288.47,70.98 L288.80,70.81 L289.12,70.98 L289.44,70.81 L289.77,70.97 L290.09,70.81 L290.41,70.97 L290.74,70.81 L291.06,70.97 L291.38,70.81 L291.70,70.97 L292.03,70.81 L292.35,70.97 L292.67,70.81 L293.00,70.97 L293.32,70.81 L293.64,70.97 L293.96,70.81 L294.29,70.97 L294.61,70.81 L294.93,70.97 L295.26,70.81 L295.58,70.97 L295.90,70.81 L296.22,70.97 L296.55,70.81 L296.87,70.97 L297.19,70.82 L297.52,70.97 L297.84,70.82 L298.16,70.97 L298.48,70.82 L298.81,70.97 L299.13,70.82 L299.45,70.96 L299.78,70.82 L300.10,70.96 L300.42,70.82 L300.74,70.96 L301.07,70.82 L301.39,70.96 L301.71,70.82 L302.04,70.96 L302.36,70.82 L302.68,70.96 L303.00,70.82 L303.33,70.96 L303.65,70.82 L303.97,70.96 L304.30,70.82 L304.62,70.96 L304.94,70.82 L305.26,70.96 L305.59,70.82 L305.91,70.96 L306.23,70.82 L306.56,70.96 L306.88,70.82 L307.20,70.96 L307.53,70.82 L307.85,70.96 L308.17,70.83 L308.49,70.96 L308.82,70.83 L309.14,70.96 L309.46,70.83 L309.79,70.96 L310.11,70.83 L310.43,70.95 L310.75,70.83 L311.08,70.95 L311.40,70.83 L311.72,70.95 L312.05,70.83 L312.37,70.95 L312.69,70.83 L313.01,70.95 L313.34,70.83 L313.66,70.95 L313.98,70.83 L314.31,70.95 L314.63,70.83 L314.95,70.95 L315.27,70.83 L315.60,70.95 L315.92,70.83 L316.24,70.95 L316.57,70.83 L316.89,70.95 L317.21,70.83 L317.53,70.95 L317.86,70.83 L318.18,70.95 L318.50,70.83 L318.83,70.95 L319.15,70.83 L319.47,70.95 L319.79,70.83 L320.12,70.95 L320.44,70.84 L320.76,70.95 L321.09,70.84 L321.41,70.95 L321.73,70.84 L322.05,70.95 L322.38,70.84 L322.70,70.95 L323.02,70.84 L323.35,70.94 L323.67,70.84 L323.99,70.94 L324.31,70.84 L324.64,70.94 L324.96,70.84 L325.28,70.94 L325.61,70.84 L325.93,70.94 L326.25,70.84 L326.58,70.94 L326.90,70.84 L327.22,70.94 L327.54,70.84 L327.87,70.94 L328.19,70.84 L328.51,70.94 L328.84,70.84 L329.16,70.94 L329.48,70.84 L329.80,70.94 L330.13,70.84 L330.45,70.94 L330.77,70.84 L331.10,70.94 L331.42,70.84 L331.74,70.94 L332.06,70.84 L332.39,70.94 L332.71,70.84 L333.03,70.94 L333.36,70.84 L333.68,70.94 L334.00,70.84 L334.32,70.94 L334.65,70.84 L334.97,70.94 L335.29,70.84 L335.62,70.94 L335.94,70.85 L336.26,70.94 L336.58,70.85 L336.91,70.94 L337.23,70.85 L337.55,70.94 L337.88,70.85 L338.20,70.94 L338.52,70.85 L338.84,70.93 L339.17,70.85 L339.49,70.93 L339.81,70.85 L340.14,70.93 L340.46,70.85 L340.78,70.93 L341.10,70.85 L341.43,70.93 L341.75,70.85 L342.07,70.93 L342.40,70.85 L342.72,70.93 L343.04,70.85 L343.36,70.93 L343.69,70.85 L344.01,70.93 L344.33,70.85 L344.66,70.93 L344.98,70.85 L345.30,70.93 L345.63,70.85 L345.95,70.93 L346.27,70.85 L346.59,70.93 L346.92,70.85 L347.24,70.93 L347.56,70.85 L347.89,70.93 L348.21,70.85 L348.53,70.93 L348.85,70.85 L349.18,70.93 L349.50,70.85 L349.82,70.93 L350.15,70.85 L350.47,70.93 L350.79,70.85 L351.11,70.93 L351.44,70.85 L351.76,70.93 L352.08,70.85 L352.41,70.93 L352.73,70.85 L353.05,70.93 L353.37,70.85 L353.70,70.93 L354.02,70.85 L354.34,70.93 L354.67,70.85 L354.99,70.93 L355.31,70.86 L355.63,70.93 L355.96,70.86 L356.28,70.93 L356.60,70.86 L356.93,70.93 L357.25,70.86 L357.57,70.93 L357.89,70.86 L358.22,70.93 L358.54,70.86 L358.86,70.92 L359.19,70.86 L359.51,70.92 L359.83,70.86 L360.15,70.92 L360.48,70.86 L360.80,70.92 L361.12,70.86 L361.45,70.92 L361.77,70.86 L362.09,70.92 L362.41,70.86 L362.74,70.92 L363.06,70.86 L363.38,70.92 L363.71,70.86 L364.03,70.92 L364.35,70.86 L364.68,70.92 L365.00,70.86 L365.32,70.92 L365.64,70.86 L365.97,70.92 L366.29,70.86 L366.61,70.92 L366.94,70.86 L367.26,70.92 L367.58,70.86 L367.90,70.92 L368.23,70.86 L368.55,70.92 L368.87,70.86 L369.20,70.92 L369.52,70.86 L369.84,70.92 L370.16,70.86 L370.49,70.92 L370.81,70.86 L371.13,70.92 L371.46,70.86 L371.78,70.92 L372.10,70.86 L372.42,70.92 L372.75,70.86 L373.07,70.92 L373.39,70.86 L373.72,70.92 L374.04,70.86 L374.36,70.92 L374.68,70.86 L375.01,70.92 L375.33,70.86 L375.65,70.92 L375.98,70.86 L376.30,70.92 L376.62,70.86 L376.94,70.92 L377.27,70.86 L377.59,70.92 L377.91,70.86 L378.24,70.92 L378.56,70.86 L378.88,70.92 L379.20,70.86 L379.53,70.92 L379.85,70.86 L380.17,70.92 L380.50,70.86 L380.82,70.92 L381.14,70.87 L381.46,70.92 L381.79,70.87 L382.11,70.92 L382.43,70.87 L382.76,70.92 L383.08,70.87 L383.40,70.92 L383.73,70.87 L384.05,70.92 L384.37,70.87 L384.69,70.92 L385.02,70.87 L385.34,70.91 L385.66,70.87 L385.99,70.91 L386.31,70.87 L386.63,70.91 L386.95,70.87 L387.28,70.91 L387.60,70.87 L387.92,70.91 L388.25,70.87 L388.57,70.91 L388.89,70.87 L389.21,70.91 L389.54,70.87 L389.86,70.91 L390.18,70.87 L390.51,70.91 L390.83,70.87 L391.15,70.91 L391.47,70.87 L391.80,70.91 L392.12,70.87 L392.44,70.91 L392.77,70.87 L393.09,70.91 L393.41,70.87 L393.73,70.91 L394.06,70.87 L394.38,70.91 L394.70,70.87 L395.03,70.91 L395.35,70.87 L395.67,70.91 L395.99,70.87 L396.32,70.91 L396.64,70.87 L396.96,70.91 L397.29,70.87 L397.61,70.91 L397.93,70.87 L398.25,70.91 L398.58,70.87 L398.90,70.91 L399.22,70.87 L399.55,70.91 L399.87,70.87 L400.19,70.91 L400.52,70.87 L400.84,70.91 L401.16,70.87 L401.48,70.91 L401.81,70.87 L402.13,70.91 L402.45,70.87 L402.78,70.91 L403.10,70.87 L403.42,70.91 L403.74,70.87 L404.07,70.91 L404.39,70.87 L404.71,70.91 L405.04,70.87 L405.36,70.91 L405.68,70.87 L406.00,70.91 L406.33,70.87 L406.65,70.91 L406.97,70.87 L407.30,70.91 L407.62,70.87 L407.94,70.91 L408.26,70.87 L408.59,70.91 L408.91,70.87 L409.23,70.91 L409.56,70.87 L409.88,70.91 L410.20,70.87 L410.52,70.91 L410.85,70.87 L411.17,70.91 L411.49,70.87 L411.82,70.91 L412.14,70.87 L412.46,70.91 L412.78,70.87 L413.11,70.91 L413.43,70.87 L413.75,70.91 L414.08,70.87 L414.40,70.91 L414.72,70.87 L415.04,70.91 L415.37,70.87 L415.69,70.91 L416.01,70.87 L416.34,70.91 L416.66,70.87 L416.98,70.91 L417.30,70.87 L417.63,70.91 L417.95,70.87 L418.27,70.91 L418.60,70.87 L418.92,70.91 L419.24,70.87 L419.57,70.91 L419.89,70.87 L420.21,70.91 L420.53,70.88 L420.86,70.91 L421.18,70.88 L421.50,70.91 L421.83,70.88 L422.15,70.91 L422.47,70.88 L422.79,70.91 L423.12,70.88 L423.44,70.91 L423.76,70.88 L424.09,70.91 L424.41,70.88 L424.73,70.91 L425.05,70.88 L425.38,70.91 L425.70,70.88 L426.02,70.91 L426.35,70.88 L426.67,70.91 L426.99,70.88 L427.31,70.90 L427.64,70.88 L427.96,70.90 L428.28,70.88 L428.61,70.90 L428.93,70.88 L429.25,70.90 L429.57,70.88 L429.90,70.90 L430.22,70.88 L430.54,70.90 L430.87,70.88 L431.19,70.90 L431.51,70.88 L431.83,70.90 L432.16,70.88 L432.48,70.90 L432.80,70.88 L433.13,70.90 L433.45,70.88 L433.77,70.90 L434.09,70.88 L434.42,70.90 L434.74,70.88 L435.06,70.90 L435.39,70.88 L435.71,70.90 L436.03,70.88 L436.35,70.90 L436.68,70.88 L437.00,70.90 L437.32,70.88 L437.65,70.90 L437.97,70.88 L438.29,70.90 L438.62,70.88 L438.94,70.90 L439.26,70.88 L439.58,70.90 L439.91,70.88 L440.23,70.90 L440.55,70.88 L440.88,70.90 L441.20,70.88 L441.52,70.90 L441.84,70.88 L442.17,70.90 L442.49,70.88 L442.81,70.90 L443.14,70.88 L443.46,70.90 L443.78,70.88 L444.10,70.90 L444.43,70.88 L444.75,70.90 L445.07,70.88 L445.40,70.90 L445.72,70.88 L446.04,70.90 L446.36,70.88 L446.69,70.90 L447.01,70.88 L447.33,70.90 L447.66,70.88 L447.98,70.90 L448.30,70.88 L448.62,70.90 L448.95,70.88 L449.27,70.90 L449.59,70.88 L449.92,70.90 L450.24,70.88 L450.56,70.90 L450.88,70.88 L451.21,70.90 L451.53,70.88 L451.85,70.90 L452.18,70.88 L452.50,70.90 L452.82,70.88 L453.14,70.90 L453.47,70.88 L453.79,70.90 L454.11,70.88 L454.44,70.90 L454.76,70.88 L455.08,70.90 L455.40,70.88 L455.73,70.90 L456.05,70.88 L456.37,70.90 L456.70,70.88 L457.02,70.90 L457.34,70.88 L457.67,70.90 L457.99,70.88 L458.31,70.90 L458.63,70.88 L458.96,70.90 L459.28,70.88 L459.60,70.90 L459.93,70.88 L460.25,70.90 L460.57,70.88 L460.89,70.90 L461.22,70.88 L461.54,70.90 L461.86,70.88 L462.19,70.90 L462.51,70.88 L462.83,70.90 L463.15,70.88 L463.48,70.90 L463.80,70.88 L464.12,70.90 L464.45,70.88 L464.77,70.90 L465.09,70.88 L465.41,70.90 L465.74,70.88 L466.06,70.90 L466.38,70.88 L466.71,70.90 L467.03,70.88 L467.35,70.90 L467.67,70.88 L468.00,70.90 L468.32,70.88 L468.64,70.90 L468.97,70.88 L469.29,70.90 L469.61,70.88 L469.93,70.90 L470.26,70.88 L470.58,70.90 L470.90,70.88 L471.23,70.90 L471.55,70.88 L471.87,70.90 L472.19,70.88 L472.52,70.90 L472.84,70.88 L473.16,70.90 L473.49,70.88 L473.81,70.90 L474.13,70.88 L474.45,70.90 L474.78,70.88 L475.10,70.90 L475.42,70.88 L475.75,70.90 L476.07,70.88 L476.39,70.90 L476.72,70.88 L477.04,70.90 L477.36,70.88 L477.68,70.90 L478.01,70.88 L478.33,70.90 L478.65,70.88 L478.98,70.90 L479.30,70.88 L479.62,70.90 L479.94,70.88 L480.27,70.90 L480.59,70.88 L480.91,70.90 L481.24,70.88 L481.56,70.90 L481.88,70.88 L482.20,70.90 L482.53,70.88 L482.85,70.90 L483.17,70.88 L483.50,70.90 L483.82,70.88 L484.14,70.90 L484.46,70.88 L484.79,70.90 L485.11,70.88 L485.43,70.90 L485.76,70.88 L486.08,70.90 L486.40,70.88 L486.72,70.90 L487.05,70.88 L487.37,70.90 L487.69,70.88 L488.02,70.90 L488.34,70.88 L488.66,70.90 L488.98,70.88 L489.31,70.90 L489.63,70.88 L489.95,70.90 L490.28,70.88 L490.60,70.90 L490.92,70.88 L491.24,70.90 L491.57,70.88 L491.89,70.90 L492.21,70.88 L492.54,70.90 L492.86,70.88 L493.18,70.90 L493.51,70.88 L493.83,70.90 L494.15,70.88 L494.47,70.90 L494.80,70.88 L495.12,70.90 L495.44,70.88 L495.77,70.90 L496.09,70.88 L496.41,70.90 L496.73,70.88 L497.06,70.90 L497.38,70.88 L497.70,70.90 L498.03,70.88 L498.35,70.90 L498.67,70.88 L498.99,70.90 L499.32,70.88 L499.64,70.90 L499.96,70.88 L500.29,70.90 L500.61,70.88 L500.93,70.90 L501.25,70.88 L501.58,70.90 L501.90,70.89 L502.22,70.90 L502.55,70.89 L502.87,70.90 L503.19,70.89 L503.51,70.90 L503.84,70.89 L504.16,70.90 L504.48,70.89 L504.81,70.90 L505.13,70.89 L505.45,70.90 L505.77,70.89 L506.10,70.90 L506.42,70.89 L506.74,70.90 L507.07,70.89 L507.39,70.90 L507.71,70.89 L508.03,70.90 L508.36,70.89 L508.68,70.90 L509.00,70.89 L509.33,70.90 L509.65,70.89 L509.97,70.90 L510.29,70.89 L510.62,70.90 L510.94,70.89 L511.26,70.90 L511.59,70.89 L511.91,70.90 L512.23,70.89 L512.56,70.90 L512.88,70.89 L513.20,70.90 L513.52,70.89 L513.85,70.90 L514.17,70.89 L514.49,70.90 L514.82,70.89 L515.14,70.90 L515.46,70.89 L515.78,70.90 L516.11,70.89 L516.43,70.90 L516.75,70.89 L517.08,70.90 L517.40,70.89 L517.72,70.90 L518.04,70.89 L518.37,70.90 L518.69,70.89 L519.01,70.90 L519.34,70.89 L519.66,70.90 L519.98,70.89 L520.30,70.90 L520.63,70.89 L520.95,70.90 L521.27,70.89 L521.60,70.90 L521.92,70.89 L522.24,70.90 L522.56,70.89 L522.89,70.90 L523.21,70.89 L523.53,70.89 L523.86,70.89 L524.18,70.89 L524.50,70.89 L524.82,70.89 L525.15,70.89 L525.47,70.89 L525.79,70.89 L526.12,70.89 L526.44,70.89 L526.76,70.89 L527.08,70.89 L527.41,70.89 L527.73,70.89 L528.05,70.89 L528.38,70.89 L528.70,70.89 L529.02,70.89 L529.34,70.89 L529.67,70.89 L529.99,70.89 L530.31,70.89 L530.64,70.89 L530.96,70.89 L531.28,70.89 L531.61,70.89 L531.93,70.89 L532.25,70.89 L532.57,70.89 L532.90,70.89 L533.22,70.89 L533.54,70.89 L533.87,70.89 L534.19,70.89 L534.51,70.89 L534.83,70.89 L535.16,70.89 L535.48,70.89 L535.80,70.89 L536.13,70.89 L536.45,70.89 L536.77,70.89 L537.09,70.89 L537.42,70.89 L537.74,70.89 L538.06,70.89 L538.39,70.89 L538.71,70.89 L539.03,70.89 L539.35,70.89 L539.68,70.89 L540.00,70.89" fill="none" stroke="#009E73" stroke-width="1.75" stroke-dasharray="5 3"/>
  <line x1="56" y1="18" x2="76" y2="18" stroke="#0072B2" stroke-width="2.25"/>
  <text x="82" y="22" fill="#2d2d2d" font-size="11" font-family="DM Sans, system-ui, sans-serif">proj+Armijo</text>
  <line x1="175" y1="18" x2="195" y2="18" stroke="#009E73" stroke-width="1.75" stroke-dasharray="5 3"/>
  <text x="201" y="22" fill="#2d2d2d" font-size="11" font-family="DM Sans, system-ui, sans-serif">proj, no Armijo</text>
  <line x1="322" y1="18" x2="342" y2="18" stroke="#D55E00" stroke-width="1.75" stroke-dasharray="5 3"/>
  <text x="348" y="22" fill="#2d2d2d" font-size="11" font-family="DM Sans, system-ui, sans-serif">raw, no Armijo</text>
  <line x1="462" y1="18" x2="482" y2="18" stroke="#E69F00" stroke-width="2.25"/>
  <text x="488" y="22" fill="#2d2d2d" font-size="11" font-family="DM Sans, system-ui, sans-serif">raw (freeze)</text>
  <text x="56" y="226" fill="#8a8a8a" font-size="9"
    font-family="IBM Plex Mono, ui-monospace, monospace">n=5 k=3 steps=6000 lr=0.01 seed=1604623524 (gradient.html?seed=1604623524) · v† floor on · generated by scripts/gen-freeze-plot.mjs</text>
</svg>
