<?xml version="1.0" encoding="UTF-8"?>
<svg xmlns="http://www.w3.org/2000/svg" viewBox="0 0 560 220" width="560" height="220"
  role="img" aria-label="Measured ‖Â_svd − Â_gd‖_F² with and without second-moment floor">
  <rect width="560" height="220" fill="#fafafa"/>
  <line x1="56" y1="28" x2="56" y2="175" stroke="#2d2d2d" stroke-width="1.25"/>
  <line x1="56" y1="175" x2="540" y2="175" stroke="#2d2d2d" stroke-width="1.25"/>
  <text x="16" y="118" fill="#6b6b6b" font-size="11" font-family="IBM Plex Mono, ui-monospace, monospace"
    transform="rotate(-90 16 118)">‖Â_svd−Â_gd‖² (log)</text>
  <text x="298" y="208" fill="#6b6b6b" font-size="11"
    font-family="IBM Plex Mono, ui-monospace, monospace" text-anchor="middle">step</text>
  <path d="M56.00,38.14 L56.54,38.27 L57.08,38.37 L57.62,38.47 L58.15,38.55 L58.69,38.63 L59.23,38.71 L59.77,38.78 L60.31,38.87 L60.85,38.95 L61.38,39.04 L61.92,39.13 L62.46,39.22 L63.00,39.33 L63.54,39.43 L64.08,39.55 L64.61,39.67 L65.15,39.81 L65.69,39.95 L66.23,40.10 L66.77,40.27 L67.31,40.44 L67.84,40.63 L68.38,40.82 L68.92,41.03 L69.46,41.24 L70.00,41.47 L70.54,41.69 L71.07,41.93 L71.61,42.17 L72.15,42.41 L72.69,42.66 L73.23,42.90 L73.77,43.15 L74.30,43.40 L74.84,43.65 L75.38,43.89 L75.92,44.14 L76.46,44.38 L77.00,44.62 L77.54,44.85 L78.07,45.09 L78.61,45.32 L79.15,45.54 L79.69,45.76 L80.23,45.98 L80.77,46.20 L81.30,46.41 L81.84,46.62 L82.38,46.83 L82.92,47.04 L83.46,47.25 L84.00,47.45 L84.53,47.66 L85.07,47.87 L85.61,48.08 L86.15,48.29 L86.69,48.51 L87.23,48.73 L87.76,48.95 L88.30,49.18 L88.84,49.41 L89.38,49.65 L89.92,49.89 L90.46,50.14 L90.99,50.39 L91.53,50.65 L92.07,50.91 L92.61,51.18 L93.15,51.44 L93.69,51.72 L94.22,51.99 L94.76,52.27 L95.30,52.55 L95.84,52.84 L96.38,53.13 L96.92,53.42 L97.45,53.71 L97.99,54.01 L98.53,54.31 L99.07,54.61 L99.61,54.91 L100.15,55.21 L100.69,55.52 L101.22,55.83 L101.76,56.14 L102.30,56.45 L102.84,56.77 L103.38,57.08 L103.92,57.40 L104.45,57.72 L104.99,58.04 L105.53,58.37 L106.07,58.69 L106.61,59.02 L107.15,59.35 L107.68,59.68 L108.22,60.01 L108.76,60.35 L109.30,60.68 L109.84,61.02 L110.38,61.36 L110.91,61.70 L111.45,62.05 L111.99,62.39 L112.53,62.74 L113.07,63.09 L113.61,63.44 L114.14,63.79 L114.68,64.14 L115.22,64.50 L115.76,64.85 L116.30,65.21 L116.84,65.57 L117.37,65.93 L117.91,66.30 L118.45,66.66 L118.99,67.03 L119.53,67.40 L120.07,67.76 L120.61,68.14 L121.14,68.51 L121.68,68.88 L122.22,69.26 L122.76,69.63 L123.30,70.01 L123.84,70.39 L124.37,70.77 L124.91,71.15 L125.45,71.53 L125.99,71.92 L126.53,72.30 L127.07,72.69 L127.60,73.07 L128.14,73.46 L128.68,73.85 L129.22,74.24 L129.76,74.63 L130.30,75.02 L130.83,75.41 L131.37,75.80 L131.91,76.20 L132.45,76.59 L132.99,76.98 L133.53,77.38 L134.06,77.77 L134.60,78.17 L135.14,78.56 L135.68,78.95 L136.22,79.35 L136.76,79.74 L137.29,80.13 L137.83,80.53 L138.37,80.92 L138.91,81.31 L139.45,81.70 L139.99,82.09 L140.53,82.48 L141.06,82.86 L141.60,83.25 L142.14,83.63 L142.68,84.02 L143.22,84.40 L143.76,84.77 L144.29,85.15 L144.83,85.53 L145.37,85.90 L145.91,86.27 L146.45,86.63 L146.99,87.00 L147.52,87.36 L148.06,87.72 L148.60,88.08 L149.14,88.43 L149.68,88.78 L150.22,89.13 L150.75,89.47 L151.29,89.81 L151.83,90.15 L152.37,90.49 L152.91,90.82 L153.45,91.15 L153.98,91.48 L154.52,91.80 L155.06,92.12 L155.60,92.44 L156.14,92.76 L156.68,93.07 L157.21,93.39 L157.75,93.70 L158.29,94.00 L158.83,94.31 L159.37,94.61 L159.91,94.91 L160.44,95.21 L160.98,95.51 L161.52,95.81 L162.06,96.10 L162.60,96.40 L163.14,96.69 L163.68,96.98 L164.21,97.27 L164.75,97.55 L165.29,97.82 L165.83,98.05 L166.37,98.15 L166.91,97.95 L167.44,97.09 L167.98,95.36 L168.52,92.94 L169.06,90.16 L169.60,87.24 L170.14,84.25 L170.67,81.22 L171.21,78.17 L171.75,75.09 L172.29,71.99 L172.83,68.86 L173.37,65.72 L173.90,62.55 L174.44,59.36 L174.98,56.14 L175.52,52.92 L176.06,49.69 L176.60,46.50 L177.13,43.47 L177.67,40.90 L178.21,39.27 L178.75,38.84 L179.29,39.65 L179.83,41.67 L180.36,44.46 L180.90,47.26 L181.44,49.42 L181.98,50.81 L182.52,51.65 L183.06,52.21 L183.60,52.65 L184.13,53.04 L184.67,53.41 L185.21,53.78 L185.75,54.14 L186.29,54.50 L186.83,54.86 L187.36,55.22 L187.90,55.58 L188.44,55.94 L188.98,56.31 L189.52,56.67 L190.06,57.04 L190.59,57.40 L191.13,57.77 L191.67,58.14 L192.21,58.51 L192.75,58.88 L193.29,59.25 L193.82,59.63 L194.36,60.00 L194.90,60.37 L195.44,60.75 L195.98,61.12 L196.52,61.50 L197.05,61.88 L197.59,62.26 L198.13,62.64 L198.67,63.02 L199.21,63.40 L199.75,63.78 L200.28,64.17 L200.82,64.55 L201.36,64.94 L201.90,65.32 L202.44,65.71 L202.98,66.10 L203.52,66.49 L204.05,66.88 L204.59,67.27 L205.13,67.66 L205.67,68.05 L206.21,68.44 L206.75,68.84 L207.28,69.23 L207.82,69.62 L208.36,70.02 L208.90,70.41 L209.44,70.81 L209.98,71.20 L210.51,71.59 L211.05,71.97 L211.59,72.35 L212.13,72.72 L212.67,73.07 L213.21,73.40 L213.74,73.69 L214.28,73.92 L214.82,74.08 L215.36,74.12 L215.90,74.03 L216.44,73.78 L216.97,73.37 L217.51,72.80 L218.05,72.09 L218.59,71.27 L219.13,70.37 L219.67,69.40 L220.20,68.38 L220.74,67.33 L221.28,66.25 L221.82,65.13 L222.36,64.00 L222.90,62.84 L223.43,61.66 L223.97,60.46 L224.51,59.24 L225.05,58.00 L225.59,56.74 L226.13,55.47 L226.67,54.18 L227.20,52.88 L227.74,51.57 L228.28,50.26 L228.82,48.95 L229.36,47.67 L229.90,46.43 L230.43,45.26 L230.97,44.22 L231.51,43.36 L232.05,42.74 L232.59,42.42 L233.13,42.42 L233.66,42.76 L234.20,43.39 L234.74,44.25 L235.28,45.26 L235.82,46.35 L236.36,47.46 L236.89,48.54 L237.43,49.57 L237.97,50.52 L238.51,51.41 L239.05,52.21 L239.59,52.95 L240.12,53.62 L240.66,54.23 L241.20,54.79 L241.74,55.29 L242.28,55.76 L242.82,56.18 L243.35,56.56 L243.89,56.91 L244.43,57.22 L244.97,57.49 L245.51,57.73 L246.05,57.94 L246.59,58.10 L247.12,58.23 L247.66,58.32 L248.20,58.37 L248.74,58.38 L249.28,58.35 L249.82,58.28 L250.35,58.17 L250.89,58.02 L251.43,57.82 L251.97,57.60 L252.51,57.33 L253.05,57.03 L253.58,56.70 L254.12,56.34 L254.66,55.95 L255.20,55.54 L255.74,55.09 L256.28,54.63 L256.81,54.14 L257.35,53.63 L257.89,53.11 L258.43,52.56 L258.97,52.01 L259.51,51.44 L260.04,50.86 L260.58,50.28 L261.12,49.70 L261.66,49.12 L262.20,48.55 L262.74,48.00 L263.27,47.47 L263.81,46.98 L264.35,46.53 L264.89,46.14 L265.43,45.81 L265.97,45.56 L266.51,45.40 L267.04,45.32 L267.58,45.33 L268.12,45.44 L268.66,45.62 L269.20,45.88 L269.74,46.20 L270.27,46.56 L270.81,46.96 L271.35,47.39 L271.89,47.82 L272.43,48.25 L272.97,48.68 L273.50,49.10 L274.04,49.49 L274.58,49.87 L275.12,50.22 L275.66,50.54 L276.20,50.84 L276.73,51.10 L277.27,51.34 L277.81,51.55 L278.35,51.73 L278.89,51.88 L279.43,52.00 L279.96,52.09 L280.50,52.16 L281.04,52.20 L281.58,52.21 L282.12,52.20 L282.66,52.16 L283.19,52.10 L283.73,52.02 L284.27,51.92 L284.81,51.79 L285.35,51.65 L285.89,51.49 L286.42,51.32 L286.96,51.12 L287.50,50.92 L288.04,50.71 L288.58,50.48 L289.12,50.25 L289.66,50.01 L290.19,49.76 L290.73,49.51 L291.27,49.27 L291.81,49.03 L292.35,48.79 L292.89,48.56 L293.42,48.34 L293.96,48.13 L294.50,47.94 L295.04,47.77 L295.58,47.62 L296.12,47.50 L296.65,47.40 L297.19,47.33 L297.73,47.28 L298.27,47.26 L298.81,47.27 L299.35,47.30 L299.88,47.36 L300.42,47.44 L300.96,47.54 L301.50,47.66 L302.04,47.80 L302.58,47.95 L303.11,48.10 L303.65,48.27 L304.19,48.43 L304.73,48.60 L305.27,48.76 L305.81,48.92 L306.34,49.08 L306.88,49.23 L307.42,49.37 L307.96,49.50 L308.50,49.62 L309.04,49.73 L309.58,49.83 L310.11,49.91 L310.65,49.98 L311.19,50.04 L311.73,50.09 L312.27,50.13 L312.81,50.15 L313.34,50.16 L313.88,50.16 L314.42,50.14 L314.96,50.12 L315.50,50.08 L316.04,50.04 L316.57,49.99 L317.11,49.93 L317.65,49.86 L318.19,49.78 L318.73,49.70 L319.27,49.62 L319.80,49.53 L320.34,49.43 L320.88,49.34 L321.42,49.24 L321.96,49.15 L322.50,49.05 L323.03,48.96 L323.57,48.87 L324.11,48.78 L324.65,48.70 L325.19,48.62 L325.73,48.55 L326.26,48.49 L326.80,48.43 L327.34,48.39 L327.88,48.35 L328.42,48.32 L328.96,48.30 L329.49,48.29 L330.03,48.29 L330.57,48.29 L331.11,48.31 L331.65,48.33 L332.19,48.36 L332.73,48.39 L333.26,48.43 L333.80,48.48 L334.34,48.53 L334.88,48.59 L335.42,48.64 L335.96,48.70 L336.49,48.76 L337.03,48.82 L337.57,48.88 L338.11,48.94 L338.65,49.00 L339.19,49.06 L339.72,49.11 L340.26,49.16 L340.80,49.20 L341.34,49.24 L341.88,49.28 L342.42,49.31 L342.95,49.34 L343.49,49.36 L344.03,49.38 L344.57,49.39 L345.11,49.40 L345.65,49.41 L346.18,49.41 L346.72,49.40 L347.26,49.39 L347.80,49.38 L348.34,49.36 L348.88,49.34 L349.41,49.32 L349.95,49.29 L350.49,49.27 L351.03,49.23 L351.57,49.20 L352.11,49.17 L352.65,49.14 L353.18,49.10 L353.72,49.07 L354.26,49.03 L354.80,49.00 L355.34,48.96 L355.88,48.93 L356.41,48.90 L356.95,48.87 L357.49,48.85 L358.03,48.82 L358.57,48.80 L359.11,48.78 L359.64,48.77 L360.18,48.75 L360.72,48.74 L361.26,48.74 L361.80,48.73 L362.34,48.73 L362.87,48.73 L363.41,48.74 L363.95,48.74 L364.49,48.75 L365.03,48.76 L365.57,48.78 L366.10,48.79 L366.64,48.81 L367.18,48.83 L367.72,48.85 L368.26,48.87 L368.80,48.89 L369.33,48.91 L369.87,48.93 L370.41,48.95 L370.95,48.97 L371.49,48.99 L372.03,49.01 L372.57,49.03 L373.10,49.04 L373.64,49.06 L374.18,49.07 L374.72,49.09 L375.26,49.10 L375.80,49.11 L376.33,49.12 L376.87,49.12 L377.41,49.13 L377.95,49.13 L378.49,49.13 L379.03,49.13 L379.56,49.13 L380.10,49.13 L380.64,49.12 L381.18,49.12 L381.72,49.11 L382.26,49.10 L382.79,49.09 L383.33,49.08 L383.87,49.07 L384.41,49.06 L384.95,49.05 L385.49,49.04 L386.02,49.03 L386.56,49.01 L387.10,49.00 L387.64,48.99 L388.18,48.98 L388.72,48.97 L389.25,48.96 L389.79,48.95 L390.33,48.94 L390.87,48.93 L391.41,48.92 L391.95,48.92 L392.48,48.91 L393.02,48.91 L393.56,48.90 L394.10,48.90 L394.64,48.90 L395.18,48.90 L395.72,48.90 L396.25,48.90 L396.79,48.90 L397.33,48.90 L397.87,48.91 L398.41,48.91 L398.95,48.92 L399.48,48.92 L400.02,48.93 L400.56,48.93 L401.10,48.94 L401.64,48.95 L402.18,48.95 L402.71,48.96 L403.25,48.97 L403.79,48.97 L404.33,48.98 L404.87,48.99 L405.41,48.99 L405.94,49.00 L406.48,49.00 L407.02,49.01 L407.56,49.01 L408.10,49.02 L408.64,49.02 L409.17,49.02 L409.71,49.03 L410.25,49.03 L410.79,49.03 L411.33,49.03 L411.87,49.03 L412.40,49.03 L412.94,49.03 L413.48,49.03 L414.02,49.03 L414.56,49.03 L415.10,49.03 L415.64,49.02 L416.17,49.02 L416.71,49.02 L417.25,49.01 L417.79,49.01 L418.33,49.01 L418.87,49.00 L419.40,49.00 L419.94,49.00 L420.48,48.99 L421.02,48.99 L421.56,48.98 L422.10,48.98 L422.63,48.98 L423.17,48.97 L423.71,48.97 L424.25,48.97 L424.79,48.97 L425.33,48.96 L425.86,48.96 L426.40,48.96 L426.94,48.96 L427.48,48.96 L428.02,48.96 L428.56,48.96 L429.09,48.96 L429.63,48.96 L430.17,48.96 L430.71,48.96 L431.25,48.96 L431.79,48.96 L432.32,48.96 L432.86,48.96 L433.40,48.96 L433.94,48.97 L434.48,48.97 L435.02,48.97 L435.56,48.97 L436.09,48.98 L436.63,48.98 L437.17,48.98 L437.71,48.98 L438.25,48.98 L438.79,48.99 L439.32,48.99 L439.86,48.99 L440.40,48.99 L440.94,48.99 L441.48,48.99 L442.02,49.00 L442.55,49.00 L443.09,49.00 L443.63,49.00 L444.17,49.00 L444.71,49.00 L445.25,49.00 L445.78,49.00 L446.32,49.00 L446.86,49.00 L447.40,49.00 L447.94,49.00 L448.48,49.00 L449.01,49.00 L449.55,49.00 L450.09,49.00 L450.63,48.99 L451.17,48.99 L451.71,48.99 L452.24,48.99 L452.78,48.99 L453.32,48.99 L453.86,48.99 L454.40,48.99 L454.94,48.99 L455.47,48.98 L456.01,48.98 L456.55,48.98 L457.09,48.98 L457.63,48.98 L458.17,48.98 L458.71,48.98 L459.24,48.98 L459.78,48.98 L460.32,48.98 L460.86,48.98 L461.40,48.98 L461.94,48.98 L462.47,48.98 L463.01,48.98 L463.55,48.98 L464.09,48.98 L464.63,48.98 L465.17,48.98 L465.70,48.98 L466.24,48.98 L466.78,48.98 L467.32,48.98 L467.86,48.98 L468.40,48.98 L468.93,48.98 L469.47,48.98 L470.01,48.98 L470.55,48.98 L471.09,48.98 L471.63,48.98 L472.16,48.98 L472.70,48.98 L473.24,48.99 L473.78,48.99 L474.32,48.99 L474.86,48.99 L475.39,48.99 L475.93,48.99 L476.47,48.99 L477.01,48.99 L477.55,48.99 L478.09,48.99 L478.63,48.99 L479.16,48.99 L479.70,48.99 L480.24,48.99 L480.78,48.99 L481.32,48.99 L481.86,48.99 L482.39,48.99 L482.93,48.99 L483.47,48.99 L484.01,48.99 L484.55,48.99 L485.09,48.99 L485.62,48.99 L486.16,48.99 L486.70,48.99 L487.24,48.99 L487.78,48.99 L488.32,48.99 L488.85,48.99 L489.39,48.98 L489.93,48.98 L490.47,48.98 L491.01,48.98 L491.55,48.98 L492.08,48.98 L492.62,48.98 L493.16,48.98 L493.70,48.98 L494.24,48.98 L494.78,48.98 L495.31,48.98 L495.85,48.98 L496.39,48.98 L496.93,48.98 L497.47,48.98 L498.01,48.98 L498.55,48.98 L499.08,48.98 L499.62,48.98 L500.16,48.98 L500.70,48.98 L501.24,48.98 L501.78,48.98 L502.31,48.98 L502.85,48.98 L503.39,48.98 L503.93,48.98 L504.47,48.98 L505.01,48.98 L505.54,48.98 L506.08,48.98 L506.62,48.98 L507.16,48.98 L507.70,48.98 L508.24,48.98 L508.77,48.99 L509.31,48.99 L509.85,48.99 L510.39,48.99 L510.93,48.99 L511.47,48.99 L512.00,48.99 L512.54,48.99 L513.08,48.99 L513.62,48.99 L514.16,48.99 L514.70,48.99 L515.23,48.99 L515.77,48.99 L516.31,48.99 L516.85,48.99 L517.39,48.99 L517.93,48.99 L518.46,48.99 L519.00,48.99 L519.54,48.99 L520.08,48.99 L520.62,48.99 L521.16,48.99 L521.70,48.99 L522.23,48.99 L522.77,48.98 L523.31,48.98 L523.85,48.98 L524.39,48.98 L524.93,48.98 L525.46,48.98 L526.00,48.98 L526.54,48.98 L527.08,48.98 L527.62,48.98 L528.16,48.98 L528.69,48.98 L529.23,48.98 L529.77,48.98 L530.31,48.98 L530.85,48.98 L531.39,48.98 L531.92,48.98 L532.46,48.98 L533.00,48.98 L533.54,48.98 L534.08,48.98 L534.62,48.98 L535.15,48.98 L535.69,48.98 L536.23,48.98 L536.77,48.98 L537.31,48.98 L537.85,48.98 L538.38,48.98 L538.92,48.98 L539.46,48.98 L540.00,48.98" fill="none" stroke="#E69F00" stroke-width="2"/>
  <path d="M56.00,38.14 L56.54,38.27 L57.08,38.37 L57.62,38.46 L58.15,38.54 L58.69,38.61 L59.23,38.68 L59.77,38.75 L60.31,38.82 L60.85,38.89 L61.38,38.96 L61.92,39.04 L62.46,39.11 L63.00,39.19 L63.54,39.27 L64.08,39.36 L64.61,39.45 L65.15,39.54 L65.69,39.64 L66.23,39.74 L66.77,39.86 L67.31,39.97 L67.84,40.10 L68.38,40.23 L68.92,40.37 L69.46,40.51 L70.00,40.66 L70.54,40.82 L71.07,40.99 L71.61,41.17 L72.15,41.35 L72.69,41.53 L73.23,41.72 L73.77,41.92 L74.30,42.12 L74.84,42.33 L75.38,42.54 L75.92,42.76 L76.46,42.98 L77.00,43.20 L77.54,43.43 L78.07,43.66 L78.61,43.89 L79.15,44.13 L79.69,44.36 L80.23,44.60 L80.77,44.83 L81.30,45.06 L81.84,45.29 L82.38,45.51 L82.92,45.73 L83.46,45.95 L84.00,46.16 L84.53,46.37 L85.07,46.58 L85.61,46.79 L86.15,47.00 L86.69,47.20 L87.23,47.41 L87.76,47.61 L88.30,47.82 L88.84,48.03 L89.38,48.24 L89.92,48.46 L90.46,48.67 L90.99,48.90 L91.53,49.12 L92.07,49.35 L92.61,49.59 L93.15,49.83 L93.69,50.07 L94.22,50.32 L94.76,50.57 L95.30,50.83 L95.84,51.09 L96.38,51.35 L96.92,51.62 L97.45,51.89 L97.99,52.16 L98.53,52.44 L99.07,52.72 L99.61,53.00 L100.15,53.28 L100.69,53.57 L101.22,53.86 L101.76,54.15 L102.30,54.44 L102.84,54.74 L103.38,55.03 L103.92,55.33 L104.45,55.63 L104.99,55.94 L105.53,56.24 L106.07,56.55 L106.61,56.85 L107.15,57.16 L107.68,57.48 L108.22,57.79 L108.76,58.10 L109.30,58.42 L109.84,58.74 L110.38,59.06 L110.91,59.38 L111.45,59.70 L111.99,60.03 L112.53,60.35 L113.07,60.68 L113.61,61.01 L114.14,61.34 L114.68,61.67 L115.22,62.01 L115.76,62.34 L116.30,62.68 L116.84,63.02 L117.37,63.36 L117.91,63.70 L118.45,64.05 L118.99,64.39 L119.53,64.74 L120.07,65.09 L120.61,65.43 L121.14,65.79 L121.68,66.14 L122.22,66.49 L122.76,66.85 L123.30,67.20 L123.84,67.56 L124.37,67.92 L124.91,68.28 L125.45,68.64 L125.99,69.01 L126.53,69.37 L127.07,69.74 L127.60,70.10 L128.14,70.47 L128.68,70.84 L129.22,71.21 L129.76,71.58 L130.30,71.96 L130.83,72.33 L131.37,72.70 L131.91,73.08 L132.45,73.45 L132.99,73.83 L133.53,74.21 L134.06,74.59 L134.60,74.97 L135.14,75.35 L135.68,75.73 L136.22,76.11 L136.76,76.49 L137.29,76.87 L137.83,77.25 L138.37,77.63 L138.91,78.01 L139.45,78.40 L139.99,78.78 L140.53,79.16 L141.06,79.54 L141.60,79.92 L142.14,80.30 L142.68,80.68 L143.22,81.06 L143.76,81.44 L144.29,81.82 L144.83,82.20 L145.37,82.57 L145.91,82.95 L146.45,83.32 L146.99,83.69 L147.52,84.06 L148.06,84.43 L148.60,84.80 L149.14,85.16 L149.68,85.52 L150.22,85.89 L150.75,86.24 L151.29,86.60 L151.83,86.95 L152.37,87.30 L152.91,87.65 L153.45,88.00 L153.98,88.34 L154.52,88.68 L155.06,89.02 L155.60,89.36 L156.14,89.69 L156.68,90.02 L157.21,90.34 L157.75,90.67 L158.29,90.99 L158.83,91.31 L159.37,91.62 L159.91,91.94 L160.44,92.25 L160.98,92.56 L161.52,92.86 L162.06,93.17 L162.60,93.47 L163.14,93.77 L163.68,94.06 L164.21,94.36 L164.75,94.65 L165.29,94.95 L165.83,95.24 L166.37,95.52 L166.91,95.81 L167.44,96.10 L167.98,96.38 L168.52,96.67 L169.06,96.95 L169.60,97.23 L170.14,97.51 L170.67,97.79 L171.21,98.07 L171.75,98.35 L172.29,98.63 L172.83,98.91 L173.37,99.19 L173.90,99.46 L174.44,99.74 L174.98,100.01 L175.52,100.28 L176.06,100.54 L176.60,100.77 L177.13,100.89 L177.67,101.24 L178.21,101.46 L178.75,101.59 L179.29,101.93 L179.83,102.15 L180.36,102.27 L180.90,102.62 L181.44,102.83 L181.98,102.91 L182.52,103.30 L183.06,103.50 L183.60,103.52 L184.13,103.99 L184.67,104.15 L185.21,104.44 L185.75,104.66 L186.29,104.76 L186.83,105.13 L187.36,105.31 L187.90,105.57 L188.44,105.80 L188.98,105.91 L189.52,106.26 L190.06,106.44 L190.59,106.71 L191.13,106.93 L191.67,107.00 L192.21,107.39 L192.75,107.54 L193.29,107.85 L193.82,108.04 L194.36,108.29 L194.90,108.51 L195.44,108.56 L195.98,108.98 L196.52,109.08 L197.05,109.43 L197.59,109.57 L198.13,109.88 L198.67,110.05 L199.21,110.33 L199.75,110.52 L200.28,110.78 L200.82,110.98 L201.36,111.23 L201.90,111.44 L202.44,111.68 L202.98,111.89 L203.52,112.13 L204.05,112.35 L204.59,112.58 L205.13,112.79 L205.67,113.03 L206.21,113.24 L206.75,113.48 L207.28,113.68 L207.82,113.93 L208.36,114.12 L208.90,114.38 L209.44,114.55 L209.98,114.84 L210.51,114.97 L211.05,115.28 L211.59,115.37 L212.13,115.73 L212.67,115.74 L213.21,116.16 L213.74,116.40 L214.28,116.58 L214.82,116.85 L215.36,116.98 L215.90,117.30 L216.44,117.34 L216.97,117.73 L217.51,117.97 L218.05,118.14 L218.59,118.42 L219.13,118.50 L219.67,118.85 L220.20,119.08 L220.74,119.26 L221.28,119.53 L221.82,119.61 L222.36,119.96 L222.90,120.20 L223.43,120.35 L223.97,120.64 L224.51,120.66 L225.05,121.06 L225.59,121.31 L226.13,121.40 L226.67,121.74 L227.20,121.97 L227.74,122.10 L228.28,122.41 L228.82,122.64 L229.36,122.79 L229.90,123.08 L230.43,123.30 L230.97,123.46 L231.51,123.74 L232.05,123.96 L232.59,124.12 L233.13,124.41 L233.66,124.62 L234.20,124.77 L234.74,125.06 L235.28,125.29 L235.82,125.40 L236.36,125.71 L236.89,125.95 L237.43,126.01 L237.97,126.36 L238.51,126.61 L239.05,126.82 L239.59,126.98 L240.12,127.26 L240.66,127.48 L241.20,127.56 L241.74,127.89 L242.28,128.14 L242.82,128.35 L243.35,128.48 L243.89,128.77 L244.43,129.01 L244.97,129.00 L245.51,129.37 L246.05,129.65 L246.59,129.88 L247.12,130.08 L247.66,130.24 L248.20,130.51 L248.74,130.75 L249.28,130.95 L249.82,131.08 L250.35,131.37 L250.89,131.61 L251.43,131.82 L251.97,131.89 L252.51,132.20 L253.05,132.46 L253.58,132.69 L254.12,132.64 L254.66,133.00 L255.20,133.29 L255.74,133.54 L256.28,133.76 L256.81,133.96 L257.35,134.07 L257.89,134.35 L258.43,134.60 L258.97,134.83 L259.51,135.04 L260.04,135.09 L260.58,135.39 L261.12,135.72 L261.66,136.07 L262.20,136.29 L262.74,136.53 L263.27,136.74 L263.81,136.95 L264.35,136.99 L264.89,137.46 L265.43,137.81 L265.97,137.93 L266.51,138.30 L267.04,138.39 L267.58,138.77 L268.12,139.14 L268.66,139.33 L269.20,139.70 L269.74,140.02 L270.27,140.00 L270.81,140.55 L271.35,140.90 L271.89,141.02 L272.43,141.40 L272.97,141.45 L273.50,141.45 L274.04,141.45 L274.58,141.63 L275.12,141.65 L275.66,141.74 L276.20,141.74 L276.73,141.75 L277.27,141.75 L277.81,141.75 L278.35,141.75 L278.89,141.75 L279.43,141.75 L279.96,142.13 L280.50,142.13 L281.04,142.13 L281.58,142.15 L282.12,142.16 L282.66,142.16 L283.19,142.16 L283.73,142.16 L284.27,142.16 L284.81,142.16 L285.35,142.16 L285.89,142.16 L286.42,142.16 L286.96,142.16 L287.50,142.16 L288.04,142.16 L288.58,142.16 L289.12,142.16 L289.66,142.16 L290.19,142.16 L290.73,142.16 L291.27,142.16 L291.81,142.16 L292.35,142.16 L292.89,142.16 L293.42,142.16 L293.96,142.16 L294.50,142.16 L295.04,142.16 L295.58,142.16 L296.12,142.16 L296.65,142.17 L297.19,142.17 L297.73,142.17 L298.27,142.27 L298.81,142.27 L299.35,142.27 L299.88,142.27 L300.42,142.27 L300.96,142.27 L301.50,142.27 L302.04,142.27 L302.58,142.27 L303.11,142.37 L303.65,142.37 L304.19,142.37 L304.73,142.57 L305.27,142.57 L305.81,142.57 L306.34,142.57 L306.88,142.58 L307.42,143.00 L307.96,143.05 L308.50,143.46 L309.04,143.88 L309.58,143.88 L310.11,143.88 L310.65,143.88 L311.19,143.88 L311.73,143.88 L312.27,143.89 L312.81,143.89 L313.34,143.89 L313.88,143.89 L314.42,143.89 L314.96,143.89 L315.50,143.89 L316.04,143.90 L316.57,143.90 L317.11,144.01 L317.65,144.01 L318.19,144.01 L318.73,144.01 L319.27,144.01 L319.80,144.01 L320.34,144.06 L320.88,144.06 L321.42,144.06 L321.96,144.06 L322.50,144.06 L323.03,144.06 L323.57,144.06 L324.11,144.06 L324.65,144.06 L325.19,144.06 L325.73,144.06 L326.26,144.06 L326.80,144.06 L327.34,144.06 L327.88,144.06 L328.42,144.06 L328.96,144.06 L329.49,144.06 L330.03,144.06 L330.57,144.06 L331.11,144.06 L331.65,144.06 L332.19,144.17 L332.73,144.17 L333.26,144.17 L333.80,144.17 L334.34,144.17 L334.88,144.17 L335.42,144.17 L335.96,144.17 L336.49,144.17 L337.03,144.17 L337.57,144.17 L338.11,144.17 L338.65,144.17 L339.19,144.17 L339.72,144.17 L340.26,144.17 L340.80,144.17 L341.34,144.17 L341.88,144.17 L342.42,144.17 L342.95,144.17 L343.49,144.17 L344.03,144.17 L344.57,144.17 L345.11,144.17 L345.65,144.17 L346.18,144.17 L346.72,144.17 L347.26,144.17 L347.80,144.17 L348.34,144.17 L348.88,144.17 L349.41,144.17 L349.95,144.17 L350.49,144.17 L351.03,144.17 L351.57,144.17 L352.11,144.17 L352.65,144.17 L353.18,144.17 L353.72,144.17 L354.26,144.17 L354.80,144.17 L355.34,144.17 L355.88,144.17 L356.41,144.17 L356.95,144.17 L357.49,144.17 L358.03,144.17 L358.57,144.17 L359.11,144.17 L359.64,144.17 L360.18,144.17 L360.72,144.17 L361.26,144.17 L361.80,144.17 L362.34,144.17 L362.87,144.17 L363.41,144.17 L363.95,144.17 L364.49,144.17 L365.03,144.17 L365.57,144.17 L366.10,144.17 L366.64,144.17 L367.18,144.17 L367.72,144.17 L368.26,144.17 L368.80,144.17 L369.33,144.17 L369.87,144.17 L370.41,144.17 L370.95,144.17 L371.49,144.17 L372.03,144.17 L372.57,144.17 L373.10,144.17 L373.64,144.17 L374.18,144.17 L374.72,144.17 L375.26,144.17 L375.80,144.17 L376.33,144.17 L376.87,144.17 L377.41,144.17 L377.95,144.17 L378.49,144.17 L379.03,144.17 L379.56,144.17 L380.10,144.17 L380.64,144.17 L381.18,144.17 L381.72,144.17 L382.26,144.17 L382.79,144.17 L383.33,144.17 L383.87,144.17 L384.41,144.17 L384.95,144.17 L385.49,144.17 L386.02,144.17 L386.56,144.17 L387.10,144.17 L387.64,144.17 L388.18,144.17 L388.72,144.17 L389.25,144.17 L389.79,144.17 L390.33,144.17 L390.87,144.17 L391.41,144.17 L391.95,144.17 L392.48,144.17 L393.02,144.17 L393.56,144.17 L394.10,144.17 L394.64,144.17 L395.18,144.17 L395.72,144.17 L396.25,144.17 L396.79,144.17 L397.33,144.17 L397.87,144.17 L398.41,144.17 L398.95,144.17 L399.48,144.17 L400.02,144.17 L400.56,144.17 L401.10,144.17 L401.64,144.17 L402.18,144.17 L402.71,144.17 L403.25,144.17 L403.79,144.17 L404.33,144.17 L404.87,144.17 L405.41,144.17 L405.94,144.17 L406.48,144.17 L407.02,144.17 L407.56,144.17 L408.10,144.17 L408.64,144.17 L409.17,144.17 L409.71,144.17 L410.25,144.17 L410.79,144.17 L411.33,144.17 L411.87,144.17 L412.40,144.17 L412.94,144.17 L413.48,144.17 L414.02,144.17 L414.56,144.17 L415.10,144.17 L415.64,144.17 L416.17,144.17 L416.71,144.17 L417.25,144.17 L417.79,144.17 L418.33,144.17 L418.87,144.17 L419.40,144.17 L419.94,144.17 L420.48,144.17 L421.02,144.17 L421.56,144.17 L422.10,144.17 L422.63,144.17 L423.17,144.17 L423.71,144.17 L424.25,144.17 L424.79,144.17 L425.33,144.17 L425.86,144.17 L426.40,144.17 L426.94,144.17 L427.48,144.17 L428.02,144.17 L428.56,144.17 L429.09,144.17 L429.63,144.17 L430.17,144.17 L430.71,144.17 L431.25,144.17 L431.79,144.17 L432.32,144.17 L432.86,144.17 L433.40,144.17 L433.94,144.17 L434.48,144.17 L435.02,144.17 L435.56,144.17 L436.09,144.17 L436.63,144.17 L437.17,144.17 L437.71,144.17 L438.25,144.17 L438.79,144.17 L439.32,144.17 L439.86,144.17 L440.40,144.17 L440.94,144.17 L441.48,144.17 L442.02,144.17 L442.55,144.17 L443.09,144.17 L443.63,144.17 L444.17,144.17 L444.71,144.17 L445.25,144.17 L445.78,144.17 L446.32,144.17 L446.86,144.17 L447.40,144.17 L447.94,144.17 L448.48,144.17 L449.01,144.17 L449.55,144.17 L450.09,144.17 L450.63,144.17 L451.17,144.17 L451.71,144.17 L452.24,144.17 L452.78,144.17 L453.32,144.17 L453.86,144.17 L454.40,144.17 L454.94,144.17 L455.47,144.17 L456.01,144.17 L456.55,144.17 L457.09,144.17 L457.63,144.17 L458.17,144.17 L458.71,144.17 L459.24,144.17 L459.78,144.17 L460.32,144.17 L460.86,144.17 L461.40,144.17 L461.94,144.17 L462.47,144.17 L463.01,144.17 L463.55,144.17 L464.09,144.17 L464.63,144.17 L465.17,144.17 L465.70,144.17 L466.24,144.17 L466.78,144.17 L467.32,144.17 L467.86,144.17 L468.40,144.17 L468.93,144.17 L469.47,144.17 L470.01,144.17 L470.55,144.17 L471.09,144.17 L471.63,144.17 L472.16,144.17 L472.70,144.17 L473.24,144.17 L473.78,144.17 L474.32,144.17 L474.86,144.17 L475.39,144.17 L475.93,144.17 L476.47,144.17 L477.01,144.17 L477.55,144.17 L478.09,144.17 L478.63,144.17 L479.16,144.17 L479.70,144.17 L480.24,144.17 L480.78,144.17 L481.32,144.17 L481.86,144.17 L482.39,144.17 L482.93,144.17 L483.47,144.17 L484.01,144.17 L484.55,144.17 L485.09,144.17 L485.62,144.17 L486.16,144.17 L486.70,144.17 L487.24,144.17 L487.78,144.17 L488.32,144.17 L488.85,144.17 L489.39,144.17 L489.93,144.17 L490.47,144.17 L491.01,144.17 L491.55,144.17 L492.08,144.17 L492.62,144.17 L493.16,144.17 L493.70,144.17 L494.24,144.17 L494.78,144.17 L495.31,144.17 L495.85,144.17 L496.39,144.17 L496.93,144.17 L497.47,144.17 L498.01,144.17 L498.55,144.17 L499.08,144.17 L499.62,144.17 L500.16,144.17 L500.70,144.17 L501.24,144.17 L501.78,144.17 L502.31,144.17 L502.85,144.17 L503.39,144.17 L503.93,144.17 L504.47,144.17 L505.01,144.17 L505.54,144.17 L506.08,144.17 L506.62,144.17 L507.16,144.17 L507.70,144.17 L508.24,144.17 L508.77,144.17 L509.31,144.17 L509.85,144.17 L510.39,144.17 L510.93,144.17 L511.47,144.17 L512.00,144.17 L512.54,144.17 L513.08,144.17 L513.62,144.17 L514.16,144.17 L514.70,144.17 L515.23,144.17 L515.77,144.17 L516.31,144.17 L516.85,144.17 L517.39,144.17 L517.93,144.17 L518.46,144.17 L519.00,144.17 L519.54,144.17 L520.08,144.17 L520.62,144.17 L521.16,144.17 L521.70,144.17 L522.23,144.17 L522.77,144.17 L523.31,144.17 L523.85,144.17 L524.39,144.17 L524.93,144.17 L525.46,144.17 L526.00,144.17 L526.54,144.17 L527.08,144.17 L527.62,144.17 L528.16,144.17 L528.69,144.17 L529.23,144.17 L529.77,144.17 L530.31,144.17 L530.85,144.17 L531.39,144.17 L531.92,144.17 L532.46,144.17 L533.00,144.17 L533.54,144.17 L534.08,144.17 L534.62,144.17 L535.15,144.17 L535.69,144.17 L536.23,144.17 L536.77,144.17 L537.31,144.17 L537.85,144.17 L538.38,144.17 L538.92,144.17 L539.46,144.17 L540.00,144.17" fill="none" stroke="#0072B2" stroke-width="2.25"/>
  <line x1="64" y1="18" x2="86" y2="18" stroke="#0072B2" stroke-width="2.25"/>
  <text x="92" y="22" fill="#2d2d2d" font-size="11" font-family="DM Sans, system-ui, sans-serif">with v† floor</text>
  <line x1="220" y1="18" x2="242" y2="18" stroke="#E69F00" stroke-width="2"/>
  <text x="248" y="22" fill="#2d2d2d" font-size="11" font-family="DM Sans, system-ui, sans-serif">unfloored η=η₀/√v̂</text>
  <text x="56" y="214" fill="#8a8a8a" font-size="9"
    font-family="IBM Plex Mono, ui-monospace, monospace">n=6 k=3 steps=900 lr=0.05 seed=7 · generated by scripts/gen-ringing-plot.mjs</text>
</svg>
