<?xml version="1.0" encoding="UTF-8"?>
<svg xmlns="http://www.w3.org/2000/svg" viewBox="0 0 560 232" width="560" height="232"
  role="img" aria-label="Measured ‖Â_svd − Â_gd‖_F², 2×2 ablation over v† floor and Armijo backtracking">
  <rect width="560" height="232" fill="#fafafa"/>
  <line x1="56" y1="40" x2="56" y2="187" stroke="#2d2d2d" stroke-width="1.25"/>
  <line x1="56" y1="187" x2="540" y2="187" stroke="#2d2d2d" stroke-width="1.25"/>
  <text x="16" y="130" fill="#6b6b6b" font-size="11" font-family="IBM Plex Mono, ui-monospace, monospace"
    transform="rotate(-90 16 130)">‖Â_svd−Â_gd‖² (log)</text>
  <text x="298" y="203" fill="#6b6b6b" font-size="11"
    font-family="IBM Plex Mono, ui-monospace, monospace" text-anchor="middle">step</text>
  <path d="M56.00,50.14 L56.54,50.27 L57.08,50.37 L57.62,50.47 L58.15,50.55 L58.69,50.63 L59.23,50.71 L59.77,50.78 L60.31,50.87 L60.85,50.95 L61.38,51.04 L61.92,51.13 L62.46,51.22 L63.00,51.33 L63.54,51.43 L64.08,51.55 L64.61,51.67 L65.15,51.81 L65.69,51.95 L66.23,52.10 L66.77,52.27 L67.31,52.44 L67.84,52.63 L68.38,52.82 L68.92,53.03 L69.46,53.24 L70.00,53.47 L70.54,53.69 L71.07,53.93 L71.61,54.17 L72.15,54.41 L72.69,54.66 L73.23,54.90 L73.77,55.15 L74.30,55.40 L74.84,55.65 L75.38,55.89 L75.92,56.14 L76.46,56.38 L77.00,56.62 L77.54,56.85 L78.07,57.09 L78.61,57.32 L79.15,57.54 L79.69,57.76 L80.23,57.98 L80.77,58.20 L81.30,58.41 L81.84,58.62 L82.38,58.83 L82.92,59.04 L83.46,59.25 L84.00,59.45 L84.53,59.66 L85.07,59.87 L85.61,60.08 L86.15,60.29 L86.69,60.51 L87.23,60.73 L87.76,60.95 L88.30,61.18 L88.84,61.41 L89.38,61.65 L89.92,61.89 L90.46,62.14 L90.99,62.39 L91.53,62.65 L92.07,62.91 L92.61,63.18 L93.15,63.44 L93.69,63.72 L94.22,63.99 L94.76,64.27 L95.30,64.55 L95.84,64.84 L96.38,65.13 L96.92,65.42 L97.45,65.71 L97.99,66.01 L98.53,66.31 L99.07,66.61 L99.61,66.91 L100.15,67.21 L100.69,67.52 L101.22,67.83 L101.76,68.14 L102.30,68.45 L102.84,68.77 L103.38,69.08 L103.92,69.40 L104.45,69.72 L104.99,70.04 L105.53,70.37 L106.07,70.69 L106.61,71.02 L107.15,71.35 L107.68,71.68 L108.22,72.01 L108.76,72.35 L109.30,72.68 L109.84,73.02 L110.38,73.36 L110.91,73.70 L111.45,74.05 L111.99,74.39 L112.53,74.74 L113.07,75.09 L113.61,75.44 L114.14,75.79 L114.68,76.14 L115.22,76.50 L115.76,76.85 L116.30,77.21 L116.84,77.57 L117.37,77.93 L117.91,78.30 L118.45,78.66 L118.99,79.03 L119.53,79.40 L120.07,79.76 L120.61,80.14 L121.14,80.51 L121.68,80.88 L122.22,81.26 L122.76,81.63 L123.30,82.01 L123.84,82.39 L124.37,82.77 L124.91,83.15 L125.45,83.53 L125.99,83.92 L126.53,84.30 L127.07,84.69 L127.60,85.07 L128.14,85.46 L128.68,85.85 L129.22,86.24 L129.76,86.63 L130.30,87.02 L130.83,87.41 L131.37,87.80 L131.91,88.20 L132.45,88.59 L132.99,88.98 L133.53,89.38 L134.06,89.77 L134.60,90.17 L135.14,90.56 L135.68,90.95 L136.22,91.35 L136.76,91.74 L137.29,92.13 L137.83,92.53 L138.37,92.92 L138.91,93.31 L139.45,93.70 L139.99,94.09 L140.53,94.48 L141.06,94.86 L141.60,95.25 L142.14,95.63 L142.68,96.02 L143.22,96.40 L143.76,96.77 L144.29,97.15 L144.83,97.53 L145.37,97.90 L145.91,98.27 L146.45,98.63 L146.99,99.00 L147.52,99.36 L148.06,99.72 L148.60,100.08 L149.14,100.43 L149.68,100.78 L150.22,101.13 L150.75,101.47 L151.29,101.81 L151.83,102.15 L152.37,102.49 L152.91,102.82 L153.45,103.15 L153.98,103.48 L154.52,103.80 L155.06,104.12 L155.60,104.44 L156.14,104.76 L156.68,105.07 L157.21,105.39 L157.75,105.70 L158.29,106.00 L158.83,106.31 L159.37,106.61 L159.91,106.91 L160.44,107.21 L160.98,107.51 L161.52,107.81 L162.06,108.10 L162.60,108.40 L163.14,108.69 L163.68,108.98 L164.21,109.27 L164.75,109.55 L165.29,109.82 L165.83,110.05 L166.37,110.15 L166.91,109.95 L167.44,109.09 L167.98,107.36 L168.52,104.94 L169.06,102.16 L169.60,99.24 L170.14,96.25 L170.67,93.22 L171.21,90.17 L171.75,87.09 L172.29,83.99 L172.83,80.86 L173.37,77.72 L173.90,74.55 L174.44,71.36 L174.98,68.14 L175.52,64.92 L176.06,61.69 L176.60,58.50 L177.13,55.47 L177.67,52.90 L178.21,51.27 L178.75,50.84 L179.29,51.65 L179.83,53.67 L180.36,56.46 L180.90,59.26 L181.44,61.42 L181.98,62.81 L182.52,63.65 L183.06,64.21 L183.60,64.65 L184.13,65.04 L184.67,65.41 L185.21,65.78 L185.75,66.14 L186.29,66.50 L186.83,66.86 L187.36,67.22 L187.90,67.58 L188.44,67.94 L188.98,68.31 L189.52,68.67 L190.06,69.04 L190.59,69.40 L191.13,69.77 L191.67,70.14 L192.21,70.51 L192.75,70.88 L193.29,71.25 L193.82,71.63 L194.36,72.00 L194.90,72.37 L195.44,72.75 L195.98,73.12 L196.52,73.50 L197.05,73.88 L197.59,74.26 L198.13,74.64 L198.67,75.02 L199.21,75.40 L199.75,75.78 L200.28,76.17 L200.82,76.55 L201.36,76.94 L201.90,77.32 L202.44,77.71 L202.98,78.10 L203.52,78.49 L204.05,78.88 L204.59,79.27 L205.13,79.66 L205.67,80.05 L206.21,80.44 L206.75,80.84 L207.28,81.23 L207.82,81.62 L208.36,82.02 L208.90,82.41 L209.44,82.81 L209.98,83.20 L210.51,83.59 L211.05,83.97 L211.59,84.35 L212.13,84.72 L212.67,85.07 L213.21,85.40 L213.74,85.69 L214.28,85.92 L214.82,86.08 L215.36,86.12 L215.90,86.03 L216.44,85.78 L216.97,85.37 L217.51,84.80 L218.05,84.09 L218.59,83.27 L219.13,82.37 L219.67,81.40 L220.20,80.38 L220.74,79.33 L221.28,78.25 L221.82,77.13 L222.36,76.00 L222.90,74.84 L223.43,73.66 L223.97,72.46 L224.51,71.24 L225.05,70.00 L225.59,68.74 L226.13,67.47 L226.67,66.18 L227.20,64.88 L227.74,63.57 L228.28,62.26 L228.82,60.95 L229.36,59.67 L229.90,58.43 L230.43,57.26 L230.97,56.22 L231.51,55.36 L232.05,54.74 L232.59,54.42 L233.13,54.42 L233.66,54.76 L234.20,55.39 L234.74,56.25 L235.28,57.26 L235.82,58.35 L236.36,59.46 L236.89,60.54 L237.43,61.57 L237.97,62.52 L238.51,63.41 L239.05,64.21 L239.59,64.95 L240.12,65.62 L240.66,66.23 L241.20,66.79 L241.74,67.29 L242.28,67.76 L242.82,68.18 L243.35,68.56 L243.89,68.91 L244.43,69.22 L244.97,69.49 L245.51,69.73 L246.05,69.94 L246.59,70.10 L247.12,70.23 L247.66,70.32 L248.20,70.37 L248.74,70.38 L249.28,70.35 L249.82,70.28 L250.35,70.17 L250.89,70.02 L251.43,69.82 L251.97,69.60 L252.51,69.33 L253.05,69.03 L253.58,68.70 L254.12,68.34 L254.66,67.95 L255.20,67.54 L255.74,67.09 L256.28,66.63 L256.81,66.14 L257.35,65.63 L257.89,65.11 L258.43,64.56 L258.97,64.01 L259.51,63.44 L260.04,62.86 L260.58,62.28 L261.12,61.70 L261.66,61.12 L262.20,60.55 L262.74,60.00 L263.27,59.47 L263.81,58.98 L264.35,58.53 L264.89,58.14 L265.43,57.81 L265.97,57.56 L266.51,57.40 L267.04,57.32 L267.58,57.33 L268.12,57.44 L268.66,57.62 L269.20,57.88 L269.74,58.20 L270.27,58.56 L270.81,58.96 L271.35,59.39 L271.89,59.82 L272.43,60.25 L272.97,60.68 L273.50,61.10 L274.04,61.49 L274.58,61.87 L275.12,62.22 L275.66,62.54 L276.20,62.84 L276.73,63.10 L277.27,63.34 L277.81,63.55 L278.35,63.73 L278.89,63.88 L279.43,64.00 L279.96,64.09 L280.50,64.16 L281.04,64.20 L281.58,64.21 L282.12,64.20 L282.66,64.16 L283.19,64.10 L283.73,64.02 L284.27,63.92 L284.81,63.79 L285.35,63.65 L285.89,63.49 L286.42,63.32 L286.96,63.12 L287.50,62.92 L288.04,62.71 L288.58,62.48 L289.12,62.25 L289.66,62.01 L290.19,61.76 L290.73,61.51 L291.27,61.27 L291.81,61.03 L292.35,60.79 L292.89,60.56 L293.42,60.34 L293.96,60.13 L294.50,59.94 L295.04,59.77 L295.58,59.62 L296.12,59.50 L296.65,59.40 L297.19,59.33 L297.73,59.28 L298.27,59.26 L298.81,59.27 L299.35,59.30 L299.88,59.36 L300.42,59.44 L300.96,59.54 L301.50,59.66 L302.04,59.80 L302.58,59.95 L303.11,60.10 L303.65,60.27 L304.19,60.43 L304.73,60.60 L305.27,60.76 L305.81,60.92 L306.34,61.08 L306.88,61.23 L307.42,61.37 L307.96,61.50 L308.50,61.62 L309.04,61.73 L309.58,61.83 L310.11,61.91 L310.65,61.98 L311.19,62.04 L311.73,62.09 L312.27,62.13 L312.81,62.15 L313.34,62.16 L313.88,62.16 L314.42,62.14 L314.96,62.12 L315.50,62.08 L316.04,62.04 L316.57,61.99 L317.11,61.93 L317.65,61.86 L318.19,61.78 L318.73,61.70 L319.27,61.62 L319.80,61.53 L320.34,61.43 L320.88,61.34 L321.42,61.24 L321.96,61.15 L322.50,61.05 L323.03,60.96 L323.57,60.87 L324.11,60.78 L324.65,60.70 L325.19,60.62 L325.73,60.55 L326.26,60.49 L326.80,60.43 L327.34,60.39 L327.88,60.35 L328.42,60.32 L328.96,60.30 L329.49,60.29 L330.03,60.29 L330.57,60.29 L331.11,60.31 L331.65,60.33 L332.19,60.36 L332.73,60.39 L333.26,60.43 L333.80,60.48 L334.34,60.53 L334.88,60.59 L335.42,60.64 L335.96,60.70 L336.49,60.76 L337.03,60.82 L337.57,60.88 L338.11,60.94 L338.65,61.00 L339.19,61.06 L339.72,61.11 L340.26,61.16 L340.80,61.20 L341.34,61.24 L341.88,61.28 L342.42,61.31 L342.95,61.34 L343.49,61.36 L344.03,61.38 L344.57,61.39 L345.11,61.40 L345.65,61.41 L346.18,61.41 L346.72,61.40 L347.26,61.39 L347.80,61.38 L348.34,61.36 L348.88,61.34 L349.41,61.32 L349.95,61.29 L350.49,61.27 L351.03,61.23 L351.57,61.20 L352.11,61.17 L352.65,61.14 L353.18,61.10 L353.72,61.07 L354.26,61.03 L354.80,61.00 L355.34,60.96 L355.88,60.93 L356.41,60.90 L356.95,60.87 L357.49,60.85 L358.03,60.82 L358.57,60.80 L359.11,60.78 L359.64,60.77 L360.18,60.75 L360.72,60.74 L361.26,60.74 L361.80,60.73 L362.34,60.73 L362.87,60.73 L363.41,60.74 L363.95,60.74 L364.49,60.75 L365.03,60.76 L365.57,60.78 L366.10,60.79 L366.64,60.81 L367.18,60.83 L367.72,60.85 L368.26,60.87 L368.80,60.89 L369.33,60.91 L369.87,60.93 L370.41,60.95 L370.95,60.97 L371.49,60.99 L372.03,61.01 L372.57,61.03 L373.10,61.04 L373.64,61.06 L374.18,61.07 L374.72,61.09 L375.26,61.10 L375.80,61.11 L376.33,61.12 L376.87,61.12 L377.41,61.13 L377.95,61.13 L378.49,61.13 L379.03,61.13 L379.56,61.13 L380.10,61.13 L380.64,61.12 L381.18,61.12 L381.72,61.11 L382.26,61.10 L382.79,61.09 L383.33,61.08 L383.87,61.07 L384.41,61.06 L384.95,61.05 L385.49,61.04 L386.02,61.03 L386.56,61.01 L387.10,61.00 L387.64,60.99 L388.18,60.98 L388.72,60.97 L389.25,60.96 L389.79,60.95 L390.33,60.94 L390.87,60.93 L391.41,60.92 L391.95,60.92 L392.48,60.91 L393.02,60.91 L393.56,60.90 L394.10,60.90 L394.64,60.90 L395.18,60.90 L395.72,60.90 L396.25,60.90 L396.79,60.90 L397.33,60.90 L397.87,60.91 L398.41,60.91 L398.95,60.92 L399.48,60.92 L400.02,60.93 L400.56,60.93 L401.10,60.94 L401.64,60.95 L402.18,60.95 L402.71,60.96 L403.25,60.97 L403.79,60.97 L404.33,60.98 L404.87,60.99 L405.41,60.99 L405.94,61.00 L406.48,61.00 L407.02,61.01 L407.56,61.01 L408.10,61.02 L408.64,61.02 L409.17,61.02 L409.71,61.03 L410.25,61.03 L410.79,61.03 L411.33,61.03 L411.87,61.03 L412.40,61.03 L412.94,61.03 L413.48,61.03 L414.02,61.03 L414.56,61.03 L415.10,61.03 L415.64,61.02 L416.17,61.02 L416.71,61.02 L417.25,61.01 L417.79,61.01 L418.33,61.01 L418.87,61.00 L419.40,61.00 L419.94,61.00 L420.48,60.99 L421.02,60.99 L421.56,60.98 L422.10,60.98 L422.63,60.98 L423.17,60.97 L423.71,60.97 L424.25,60.97 L424.79,60.97 L425.33,60.96 L425.86,60.96 L426.40,60.96 L426.94,60.96 L427.48,60.96 L428.02,60.96 L428.56,60.96 L429.09,60.96 L429.63,60.96 L430.17,60.96 L430.71,60.96 L431.25,60.96 L431.79,60.96 L432.32,60.96 L432.86,60.96 L433.40,60.96 L433.94,60.97 L434.48,60.97 L435.02,60.97 L435.56,60.97 L436.09,60.98 L436.63,60.98 L437.17,60.98 L437.71,60.98 L438.25,60.98 L438.79,60.99 L439.32,60.99 L439.86,60.99 L440.40,60.99 L440.94,60.99 L441.48,60.99 L442.02,61.00 L442.55,61.00 L443.09,61.00 L443.63,61.00 L444.17,61.00 L444.71,61.00 L445.25,61.00 L445.78,61.00 L446.32,61.00 L446.86,61.00 L447.40,61.00 L447.94,61.00 L448.48,61.00 L449.01,61.00 L449.55,61.00 L450.09,61.00 L450.63,60.99 L451.17,60.99 L451.71,60.99 L452.24,60.99 L452.78,60.99 L453.32,60.99 L453.86,60.99 L454.40,60.99 L454.94,60.99 L455.47,60.98 L456.01,60.98 L456.55,60.98 L457.09,60.98 L457.63,60.98 L458.17,60.98 L458.71,60.98 L459.24,60.98 L459.78,60.98 L460.32,60.98 L460.86,60.98 L461.40,60.98 L461.94,60.98 L462.47,60.98 L463.01,60.98 L463.55,60.98 L464.09,60.98 L464.63,60.98 L465.17,60.98 L465.70,60.98 L466.24,60.98 L466.78,60.98 L467.32,60.98 L467.86,60.98 L468.40,60.98 L468.93,60.98 L469.47,60.98 L470.01,60.98 L470.55,60.98 L471.09,60.98 L471.63,60.98 L472.16,60.98 L472.70,60.98 L473.24,60.99 L473.78,60.99 L474.32,60.99 L474.86,60.99 L475.39,60.99 L475.93,60.99 L476.47,60.99 L477.01,60.99 L477.55,60.99 L478.09,60.99 L478.63,60.99 L479.16,60.99 L479.70,60.99 L480.24,60.99 L480.78,60.99 L481.32,60.99 L481.86,60.99 L482.39,60.99 L482.93,60.99 L483.47,60.99 L484.01,60.99 L484.55,60.99 L485.09,60.99 L485.62,60.99 L486.16,60.99 L486.70,60.99 L487.24,60.99 L487.78,60.99 L488.32,60.99 L488.85,60.99 L489.39,60.98 L489.93,60.98 L490.47,60.98 L491.01,60.98 L491.55,60.98 L492.08,60.98 L492.62,60.98 L493.16,60.98 L493.70,60.98 L494.24,60.98 L494.78,60.98 L495.31,60.98 L495.85,60.98 L496.39,60.98 L496.93,60.98 L497.47,60.98 L498.01,60.98 L498.55,60.98 L499.08,60.98 L499.62,60.98 L500.16,60.98 L500.70,60.98 L501.24,60.98 L501.78,60.98 L502.31,60.98 L502.85,60.98 L503.39,60.98 L503.93,60.98 L504.47,60.98 L505.01,60.98 L505.54,60.98 L506.08,60.98 L506.62,60.98 L507.16,60.98 L507.70,60.98 L508.24,60.98 L508.77,60.99 L509.31,60.99 L509.85,60.99 L510.39,60.99 L510.93,60.99 L511.47,60.99 L512.00,60.99 L512.54,60.99 L513.08,60.99 L513.62,60.99 L514.16,60.99 L514.70,60.99 L515.23,60.99 L515.77,60.99 L516.31,60.99 L516.85,60.99 L517.39,60.99 L517.93,60.99 L518.46,60.99 L519.00,60.99 L519.54,60.99 L520.08,60.99 L520.62,60.99 L521.16,60.99 L521.70,60.99 L522.23,60.99 L522.77,60.98 L523.31,60.98 L523.85,60.98 L524.39,60.98 L524.93,60.98 L525.46,60.98 L526.00,60.98 L526.54,60.98 L527.08,60.98 L527.62,60.98 L528.16,60.98 L528.69,60.98 L529.23,60.98 L529.77,60.98 L530.31,60.98 L530.85,60.98 L531.39,60.98 L531.92,60.98 L532.46,60.98 L533.00,60.98 L533.54,60.98 L534.08,60.98 L534.62,60.98 L535.15,60.98 L535.69,60.98 L536.23,60.98 L536.77,60.98 L537.31,60.98 L537.85,60.98 L538.38,60.98 L538.92,60.98 L539.46,60.98 L540.00,60.98" fill="none" stroke="#E69F00" stroke-width="2"/>
  <path d="M56.00,50.14 L56.54,50.27 L57.08,50.37 L57.62,50.46 L58.15,50.54 L58.69,50.61 L59.23,50.68 L59.77,50.75 L60.31,50.82 L60.85,50.89 L61.38,50.96 L61.92,51.04 L62.46,51.11 L63.00,51.19 L63.54,51.27 L64.08,51.36 L64.61,51.45 L65.15,51.54 L65.69,51.64 L66.23,51.74 L66.77,51.86 L67.31,51.97 L67.84,52.10 L68.38,52.23 L68.92,52.37 L69.46,52.51 L70.00,52.66 L70.54,52.82 L71.07,52.99 L71.61,53.17 L72.15,53.35 L72.69,53.53 L73.23,53.72 L73.77,53.92 L74.30,54.12 L74.84,54.33 L75.38,54.54 L75.92,54.76 L76.46,54.98 L77.00,55.20 L77.54,55.43 L78.07,55.66 L78.61,55.89 L79.15,56.13 L79.69,56.36 L80.23,56.60 L80.77,56.83 L81.30,57.06 L81.84,57.29 L82.38,57.51 L82.92,57.73 L83.46,57.95 L84.00,58.16 L84.53,58.37 L85.07,58.58 L85.61,58.79 L86.15,59.00 L86.69,59.20 L87.23,59.41 L87.76,59.61 L88.30,59.82 L88.84,60.03 L89.38,60.24 L89.92,60.46 L90.46,60.67 L90.99,60.90 L91.53,61.12 L92.07,61.35 L92.61,61.59 L93.15,61.83 L93.69,62.07 L94.22,62.32 L94.76,62.57 L95.30,62.83 L95.84,63.09 L96.38,63.35 L96.92,63.62 L97.45,63.89 L97.99,64.16 L98.53,64.44 L99.07,64.72 L99.61,65.00 L100.15,65.28 L100.69,65.57 L101.22,65.86 L101.76,66.15 L102.30,66.44 L102.84,66.74 L103.38,67.03 L103.92,67.33 L104.45,67.63 L104.99,67.94 L105.53,68.24 L106.07,68.55 L106.61,68.85 L107.15,69.16 L107.68,69.48 L108.22,69.79 L108.76,70.10 L109.30,70.42 L109.84,70.74 L110.38,71.06 L110.91,71.38 L111.45,71.70 L111.99,72.03 L112.53,72.35 L113.07,72.68 L113.61,73.01 L114.14,73.34 L114.68,73.67 L115.22,74.01 L115.76,74.34 L116.30,74.68 L116.84,75.02 L117.37,75.36 L117.91,75.70 L118.45,76.05 L118.99,76.39 L119.53,76.74 L120.07,77.09 L120.61,77.43 L121.14,77.79 L121.68,78.14 L122.22,78.49 L122.76,78.85 L123.30,79.20 L123.84,79.56 L124.37,79.92 L124.91,80.28 L125.45,80.64 L125.99,81.01 L126.53,81.37 L127.07,81.74 L127.60,82.10 L128.14,82.47 L128.68,82.84 L129.22,83.21 L129.76,83.58 L130.30,83.96 L130.83,84.33 L131.37,84.70 L131.91,85.08 L132.45,85.45 L132.99,85.83 L133.53,86.21 L134.06,86.59 L134.60,86.97 L135.14,87.35 L135.68,87.73 L136.22,88.11 L136.76,88.49 L137.29,88.87 L137.83,89.25 L138.37,89.63 L138.91,90.01 L139.45,90.40 L139.99,90.78 L140.53,91.16 L141.06,91.54 L141.60,91.92 L142.14,92.30 L142.68,92.68 L143.22,93.06 L143.76,93.44 L144.29,93.82 L144.83,94.20 L145.37,94.57 L145.91,94.95 L146.45,95.32 L146.99,95.69 L147.52,96.06 L148.06,96.43 L148.60,96.80 L149.14,97.16 L149.68,97.52 L150.22,97.89 L150.75,98.24 L151.29,98.60 L151.83,98.95 L152.37,99.30 L152.91,99.65 L153.45,100.00 L153.98,100.34 L154.52,100.68 L155.06,101.02 L155.60,101.36 L156.14,101.69 L156.68,102.02 L157.21,102.34 L157.75,102.67 L158.29,102.99 L158.83,103.31 L159.37,103.62 L159.91,103.94 L160.44,104.25 L160.98,104.56 L161.52,104.86 L162.06,105.17 L162.60,105.47 L163.14,105.77 L163.68,106.06 L164.21,106.36 L164.75,106.65 L165.29,106.95 L165.83,107.24 L166.37,107.52 L166.91,107.81 L167.44,108.10 L167.98,108.38 L168.52,108.67 L169.06,108.95 L169.60,109.23 L170.14,109.51 L170.67,109.79 L171.21,110.07 L171.75,110.35 L172.29,110.63 L172.83,110.91 L173.37,111.19 L173.90,111.46 L174.44,111.74 L174.98,112.01 L175.52,112.28 L176.06,112.54 L176.60,112.77 L177.13,112.89 L177.67,112.76 L178.21,112.07 L178.75,110.58 L179.29,108.36 L179.83,105.73 L180.36,102.92 L180.90,100.03 L181.44,97.10 L181.98,94.15 L182.52,91.16 L183.06,88.16 L183.60,85.14 L184.13,82.09 L184.67,79.02 L185.21,75.93 L185.75,72.83 L186.29,69.70 L186.83,66.55 L187.36,63.40 L187.90,60.25 L188.44,61.66 L188.98,60.28 L189.52,61.64 L190.06,60.32 L190.59,61.61 L191.13,60.35 L191.67,61.58 L192.21,60.39 L192.75,61.55 L193.29,60.42 L193.82,61.51 L194.36,60.46 L194.90,61.48 L195.44,60.50 L195.98,61.44 L196.52,60.54 L197.05,61.41 L197.59,60.57 L198.13,61.37 L198.67,60.61 L199.21,61.34 L199.75,60.64 L200.28,61.31 L200.82,60.67 L201.36,61.28 L201.90,60.70 L202.44,61.25 L202.98,60.73 L203.52,61.22 L204.05,60.75 L204.59,61.20 L205.13,60.77 L205.67,61.18 L206.21,60.79 L206.75,61.16 L207.28,60.81 L207.82,61.14 L208.36,60.83 L208.90,61.12 L209.44,60.85 L209.98,61.11 L210.51,60.86 L211.05,61.10 L211.59,60.87 L212.13,61.09 L212.67,60.89 L213.21,61.07 L213.74,60.90 L214.28,61.06 L214.82,60.91 L215.36,61.06 L215.90,60.91 L216.44,61.05 L216.97,60.92 L217.51,61.04 L218.05,60.93 L218.59,61.04 L219.13,60.93 L219.67,61.03 L220.20,60.94 L220.74,61.03 L221.28,60.94 L221.82,61.02 L222.36,60.95 L222.90,61.02 L223.43,60.95 L223.97,61.01 L224.51,60.96 L225.05,61.01 L225.59,60.96 L226.13,61.01 L226.67,60.96 L227.20,61.00 L227.74,60.96 L228.28,61.00 L228.82,60.97 L229.36,61.00 L229.90,60.97 L230.43,61.00 L230.97,60.97 L231.51,61.00 L232.05,60.97 L232.59,61.00 L233.13,60.97 L233.66,60.99 L234.20,60.97 L234.74,60.99 L235.28,60.98 L235.82,60.99 L236.36,60.98 L236.89,60.99 L237.43,60.98 L237.97,60.99 L238.51,60.98 L239.05,60.99 L239.59,60.98 L240.12,60.99 L240.66,60.98 L241.20,60.99 L241.74,60.98 L242.28,60.99 L242.82,60.98 L243.35,60.99 L243.89,60.98 L244.43,60.99 L244.97,60.98 L245.51,60.99 L246.05,60.98 L246.59,60.99 L247.12,60.98 L247.66,60.99 L248.20,60.98 L248.74,60.99 L249.28,60.98 L249.82,60.99 L250.35,60.98 L250.89,60.99 L251.43,60.98 L251.97,60.99 L252.51,60.98 L253.05,60.99 L253.58,60.98 L254.12,60.99 L254.66,60.98 L255.20,60.99 L255.74,60.98 L256.28,60.99 L256.81,60.98 L257.35,60.99 L257.89,60.98 L258.43,60.99 L258.97,60.98 L259.51,60.99 L260.04,60.98 L260.58,60.99 L261.12,60.98 L261.66,60.99 L262.20,60.98 L262.74,60.99 L263.27,60.98 L263.81,60.98 L264.35,60.98 L264.89,60.98 L265.43,60.98 L265.97,60.98 L266.51,60.98 L267.04,60.98 L267.58,60.98 L268.12,60.98 L268.66,60.98 L269.20,60.98 L269.74,60.98 L270.27,60.98 L270.81,60.98 L271.35,60.98 L271.89,60.98 L272.43,60.98 L272.97,60.98 L273.50,60.98 L274.04,60.98 L274.58,60.98 L275.12,60.98 L275.66,60.98 L276.20,60.98 L276.73,60.98 L277.27,60.98 L277.81,60.98 L278.35,60.98 L278.89,60.98 L279.43,60.98 L279.96,60.98 L280.50,60.98 L281.04,60.98 L281.58,60.98 L282.12,60.98 L282.66,60.98 L283.19,60.98 L283.73,60.98 L284.27,60.98 L284.81,60.98 L285.35,60.98 L285.89,60.98 L286.42,60.98 L286.96,60.98 L287.50,60.98 L288.04,60.98 L288.58,60.98 L289.12,60.98 L289.66,60.98 L290.19,60.98 L290.73,60.98 L291.27,60.98 L291.81,60.98 L292.35,60.98 L292.89,60.98 L293.42,60.98 L293.96,60.98 L294.50,60.98 L295.04,60.98 L295.58,60.98 L296.12,60.98 L296.65,60.98 L297.19,60.98 L297.73,60.98 L298.27,60.98 L298.81,60.98 L299.35,60.98 L299.88,60.98 L300.42,60.98 L300.96,60.98 L301.50,60.98 L302.04,60.98 L302.58,60.98 L303.11,60.98 L303.65,60.98 L304.19,60.98 L304.73,60.98 L305.27,60.98 L305.81,60.98 L306.34,60.98 L306.88,60.98 L307.42,60.98 L307.96,60.98 L308.50,60.98 L309.04,60.98 L309.58,60.98 L310.11,60.98 L310.65,60.98 L311.19,60.98 L311.73,60.98 L312.27,60.98 L312.81,60.98 L313.34,60.98 L313.88,60.98 L314.42,60.98 L314.96,60.98 L315.50,60.98 L316.04,60.98 L316.57,60.98 L317.11,60.98 L317.65,60.98 L318.19,60.98 L318.73,60.98 L319.27,60.98 L319.80,60.98 L320.34,60.98 L320.88,60.98 L321.42,60.98 L321.96,60.98 L322.50,60.98 L323.03,60.98 L323.57,60.98 L324.11,60.98 L324.65,60.98 L325.19,60.98 L325.73,60.98 L326.26,60.98 L326.80,60.98 L327.34,60.98 L327.88,60.98 L328.42,60.98 L328.96,60.98 L329.49,60.98 L330.03,60.98 L330.57,60.98 L331.11,60.98 L331.65,60.98 L332.19,60.98 L332.73,60.98 L333.26,60.98 L333.80,60.98 L334.34,60.98 L334.88,60.98 L335.42,60.98 L335.96,60.98 L336.49,60.98 L337.03,60.98 L337.57,60.98 L338.11,60.98 L338.65,60.98 L339.19,60.98 L339.72,60.98 L340.26,60.98 L340.80,60.98 L341.34,60.98 L341.88,60.98 L342.42,60.98 L342.95,60.98 L343.49,60.98 L344.03,60.98 L344.57,60.98 L345.11,60.98 L345.65,60.98 L346.18,60.98 L346.72,60.98 L347.26,60.98 L347.80,60.98 L348.34,60.98 L348.88,60.98 L349.41,60.98 L349.95,60.98 L350.49,60.98 L351.03,60.98 L351.57,60.98 L352.11,60.98 L352.65,60.98 L353.18,60.98 L353.72,60.98 L354.26,60.98 L354.80,60.98 L355.34,60.98 L355.88,60.98 L356.41,60.98 L356.95,60.98 L357.49,60.98 L358.03,60.98 L358.57,60.98 L359.11,60.98 L359.64,60.98 L360.18,60.98 L360.72,60.98 L361.26,60.98 L361.80,60.98 L362.34,60.98 L362.87,60.98 L363.41,60.98 L363.95,60.98 L364.49,60.98 L365.03,60.98 L365.57,60.98 L366.10,60.98 L366.64,60.98 L367.18,60.98 L367.72,60.98 L368.26,60.98 L368.80,60.98 L369.33,60.98 L369.87,60.98 L370.41,60.98 L370.95,60.98 L371.49,60.98 L372.03,60.98 L372.57,60.98 L373.10,60.98 L373.64,60.98 L374.18,60.98 L374.72,60.98 L375.26,60.98 L375.80,60.98 L376.33,60.98 L376.87,60.98 L377.41,60.98 L377.95,60.98 L378.49,60.98 L379.03,60.98 L379.56,60.98 L380.10,60.98 L380.64,60.98 L381.18,60.98 L381.72,60.98 L382.26,60.98 L382.79,60.98 L383.33,60.98 L383.87,60.98 L384.41,60.98 L384.95,60.98 L385.49,60.98 L386.02,60.98 L386.56,60.98 L387.10,60.98 L387.64,60.98 L388.18,60.98 L388.72,60.98 L389.25,60.98 L389.79,60.98 L390.33,60.98 L390.87,60.98 L391.41,60.98 L391.95,60.98 L392.48,60.98 L393.02,60.98 L393.56,60.98 L394.10,60.98 L394.64,60.98 L395.18,60.98 L395.72,60.98 L396.25,60.98 L396.79,60.98 L397.33,60.98 L397.87,60.98 L398.41,60.98 L398.95,60.98 L399.48,60.98 L400.02,60.98 L400.56,60.98 L401.10,60.98 L401.64,60.98 L402.18,60.98 L402.71,60.98 L403.25,60.98 L403.79,60.98 L404.33,60.98 L404.87,60.98 L405.41,60.98 L405.94,60.98 L406.48,60.98 L407.02,60.98 L407.56,60.98 L408.10,60.98 L408.64,60.98 L409.17,60.98 L409.71,60.98 L410.25,60.98 L410.79,60.98 L411.33,60.98 L411.87,60.98 L412.40,60.98 L412.94,60.98 L413.48,60.98 L414.02,60.98 L414.56,60.98 L415.10,60.98 L415.64,60.98 L416.17,60.98 L416.71,60.98 L417.25,60.98 L417.79,60.98 L418.33,60.98 L418.87,60.98 L419.40,60.98 L419.94,60.98 L420.48,60.98 L421.02,60.98 L421.56,60.98 L422.10,60.98 L422.63,60.98 L423.17,60.98 L423.71,60.98 L424.25,60.98 L424.79,60.98 L425.33,60.98 L425.86,60.98 L426.40,60.98 L426.94,60.98 L427.48,60.98 L428.02,60.98 L428.56,60.98 L429.09,60.98 L429.63,60.98 L430.17,60.98 L430.71,60.98 L431.25,60.98 L431.79,60.98 L432.32,60.98 L432.86,60.98 L433.40,60.98 L433.94,60.98 L434.48,60.98 L435.02,60.98 L435.56,60.98 L436.09,60.98 L436.63,60.98 L437.17,60.98 L437.71,60.98 L438.25,60.98 L438.79,60.98 L439.32,60.98 L439.86,60.98 L440.40,60.98 L440.94,60.98 L441.48,60.98 L442.02,60.98 L442.55,60.98 L443.09,60.98 L443.63,60.98 L444.17,60.98 L444.71,60.98 L445.25,60.98 L445.78,60.98 L446.32,60.98 L446.86,60.98 L447.40,60.98 L447.94,60.98 L448.48,60.98 L449.01,60.98 L449.55,60.98 L450.09,60.98 L450.63,60.98 L451.17,60.98 L451.71,60.98 L452.24,60.98 L452.78,60.98 L453.32,60.98 L453.86,60.98 L454.40,60.98 L454.94,60.98 L455.47,60.98 L456.01,60.98 L456.55,60.98 L457.09,60.98 L457.63,60.98 L458.17,60.98 L458.71,60.98 L459.24,60.98 L459.78,60.98 L460.32,60.98 L460.86,60.98 L461.40,60.98 L461.94,60.98 L462.47,60.98 L463.01,60.98 L463.55,60.98 L464.09,60.98 L464.63,60.98 L465.17,60.98 L465.70,60.98 L466.24,60.98 L466.78,60.98 L467.32,60.98 L467.86,60.98 L468.40,60.98 L468.93,60.98 L469.47,60.98 L470.01,60.98 L470.55,60.98 L471.09,60.98 L471.63,60.98 L472.16,60.98 L472.70,60.98 L473.24,60.98 L473.78,60.98 L474.32,60.98 L474.86,60.98 L475.39,60.98 L475.93,60.98 L476.47,60.98 L477.01,60.98 L477.55,60.98 L478.09,60.98 L478.63,60.98 L479.16,60.98 L479.70,60.98 L480.24,60.98 L480.78,60.98 L481.32,60.98 L481.86,60.98 L482.39,60.98 L482.93,60.98 L483.47,60.98 L484.01,60.98 L484.55,60.98 L485.09,60.98 L485.62,60.98 L486.16,60.98 L486.70,60.98 L487.24,60.98 L487.78,60.98 L488.32,60.98 L488.85,60.98 L489.39,60.98 L489.93,60.98 L490.47,60.98 L491.01,60.98 L491.55,60.98 L492.08,60.98 L492.62,60.98 L493.16,60.98 L493.70,60.98 L494.24,60.98 L494.78,60.98 L495.31,60.98 L495.85,60.98 L496.39,60.98 L496.93,60.98 L497.47,60.98 L498.01,60.98 L498.55,60.98 L499.08,60.98 L499.62,60.98 L500.16,60.98 L500.70,60.98 L501.24,60.98 L501.78,60.98 L502.31,60.98 L502.85,60.98 L503.39,60.98 L503.93,60.98 L504.47,60.98 L505.01,60.98 L505.54,60.98 L506.08,60.98 L506.62,60.98 L507.16,60.98 L507.70,60.98 L508.24,60.98 L508.77,60.98 L509.31,60.98 L509.85,60.98 L510.39,60.98 L510.93,60.98 L511.47,60.98 L512.00,60.98 L512.54,60.98 L513.08,60.98 L513.62,60.98 L514.16,60.98 L514.70,60.98 L515.23,60.98 L515.77,60.98 L516.31,60.98 L516.85,60.98 L517.39,60.98 L517.93,60.98 L518.46,60.98 L519.00,60.98 L519.54,60.98 L520.08,60.98 L520.62,60.98 L521.16,60.98 L521.70,60.98 L522.23,60.98 L522.77,60.98 L523.31,60.98 L523.85,60.98 L524.39,60.98 L524.93,60.98 L525.46,60.98 L526.00,60.98 L526.54,60.98 L527.08,60.98 L527.62,60.98 L528.16,60.98 L528.69,60.98 L529.23,60.98 L529.77,60.98 L530.31,60.98 L530.85,60.98 L531.39,60.98 L531.92,60.98 L532.46,60.98 L533.00,60.98 L533.54,60.98 L534.08,60.98 L534.62,60.98 L535.15,60.98 L535.69,60.98 L536.23,60.98 L536.77,60.98 L537.31,60.98 L537.85,60.98 L538.38,60.98 L538.92,60.98 L539.46,60.98 L540.00,60.98" fill="none" stroke="#009E73" stroke-width="1.75" stroke-dasharray="5 3"/>
  <path d="M56.00,50.14 L56.54,50.27 L57.08,50.37 L57.62,50.46 L58.15,50.54 L58.69,50.61 L59.23,50.68 L59.77,50.75 L60.31,50.82 L60.85,50.89 L61.38,50.96 L61.92,51.04 L62.46,51.11 L63.00,51.19 L63.54,51.27 L64.08,51.36 L64.61,51.45 L65.15,51.54 L65.69,51.64 L66.23,51.74 L66.77,51.86 L67.31,51.97 L67.84,52.10 L68.38,52.23 L68.92,52.37 L69.46,52.51 L70.00,52.66 L70.54,52.82 L71.07,52.99 L71.61,53.17 L72.15,53.35 L72.69,53.53 L73.23,53.72 L73.77,53.92 L74.30,54.12 L74.84,54.33 L75.38,54.54 L75.92,54.76 L76.46,54.98 L77.00,55.20 L77.54,55.43 L78.07,55.66 L78.61,55.89 L79.15,56.13 L79.69,56.36 L80.23,56.60 L80.77,56.83 L81.30,57.06 L81.84,57.29 L82.38,57.51 L82.92,57.73 L83.46,57.95 L84.00,58.16 L84.53,58.37 L85.07,58.58 L85.61,58.79 L86.15,59.00 L86.69,59.20 L87.23,59.41 L87.76,59.61 L88.30,59.82 L88.84,60.03 L89.38,60.24 L89.92,60.46 L90.46,60.67 L90.99,60.90 L91.53,61.12 L92.07,61.35 L92.61,61.59 L93.15,61.83 L93.69,62.07 L94.22,62.32 L94.76,62.57 L95.30,62.83 L95.84,63.09 L96.38,63.35 L96.92,63.62 L97.45,63.89 L97.99,64.16 L98.53,64.44 L99.07,64.72 L99.61,65.00 L100.15,65.28 L100.69,65.57 L101.22,65.86 L101.76,66.15 L102.30,66.44 L102.84,66.74 L103.38,67.03 L103.92,67.33 L104.45,67.63 L104.99,67.94 L105.53,68.24 L106.07,68.55 L106.61,68.85 L107.15,69.16 L107.68,69.48 L108.22,69.79 L108.76,70.10 L109.30,70.42 L109.84,70.74 L110.38,71.06 L110.91,71.38 L111.45,71.70 L111.99,72.03 L112.53,72.35 L113.07,72.68 L113.61,73.01 L114.14,73.34 L114.68,73.67 L115.22,74.01 L115.76,74.34 L116.30,74.68 L116.84,75.02 L117.37,75.36 L117.91,75.70 L118.45,76.05 L118.99,76.39 L119.53,76.74 L120.07,77.09 L120.61,77.43 L121.14,77.79 L121.68,78.14 L122.22,78.49 L122.76,78.85 L123.30,79.20 L123.84,79.56 L124.37,79.92 L124.91,80.28 L125.45,80.64 L125.99,81.01 L126.53,81.37 L127.07,81.74 L127.60,82.10 L128.14,82.47 L128.68,82.84 L129.22,83.21 L129.76,83.58 L130.30,83.96 L130.83,84.33 L131.37,84.70 L131.91,85.08 L132.45,85.45 L132.99,85.83 L133.53,86.21 L134.06,86.59 L134.60,86.97 L135.14,87.35 L135.68,87.73 L136.22,88.11 L136.76,88.49 L137.29,88.87 L137.83,89.25 L138.37,89.63 L138.91,90.01 L139.45,90.40 L139.99,90.78 L140.53,91.16 L141.06,91.54 L141.60,91.92 L142.14,92.30 L142.68,92.68 L143.22,93.06 L143.76,93.44 L144.29,93.82 L144.83,94.20 L145.37,94.57 L145.91,94.95 L146.45,95.32 L146.99,95.69 L147.52,96.06 L148.06,96.43 L148.60,96.80 L149.14,97.16 L149.68,97.52 L150.22,97.89 L150.75,98.24 L151.29,98.60 L151.83,98.95 L152.37,99.30 L152.91,99.65 L153.45,100.00 L153.98,100.34 L154.52,100.68 L155.06,101.02 L155.60,101.36 L156.14,101.69 L156.68,102.02 L157.21,102.34 L157.75,102.67 L158.29,102.99 L158.83,103.31 L159.37,103.62 L159.91,103.94 L160.44,104.25 L160.98,104.56 L161.52,104.86 L162.06,105.17 L162.60,105.47 L163.14,105.77 L163.68,106.06 L164.21,106.36 L164.75,106.65 L165.29,106.95 L165.83,107.24 L166.37,107.52 L166.91,107.81 L167.44,108.10 L167.98,108.38 L168.52,108.67 L169.06,108.95 L169.60,109.23 L170.14,109.51 L170.67,109.79 L171.21,110.07 L171.75,110.35 L172.29,110.63 L172.83,110.91 L173.37,111.19 L173.90,111.46 L174.44,111.74 L174.98,112.01 L175.52,112.28 L176.06,112.54 L176.60,112.77 L177.13,112.89 L177.67,113.24 L178.21,113.46 L178.75,113.59 L179.29,113.93 L179.83,114.15 L180.36,114.27 L180.90,114.62 L181.44,114.83 L181.98,114.91 L182.52,115.30 L183.06,115.50 L183.60,115.52 L184.13,115.99 L184.67,116.15 L185.21,116.44 L185.75,116.66 L186.29,116.76 L186.83,117.13 L187.36,117.31 L187.90,117.57 L188.44,117.80 L188.98,117.91 L189.52,118.26 L190.06,118.44 L190.59,118.71 L191.13,118.93 L191.67,119.00 L192.21,119.39 L192.75,119.54 L193.29,119.85 L193.82,120.04 L194.36,120.29 L194.90,120.51 L195.44,120.56 L195.98,120.98 L196.52,121.08 L197.05,121.43 L197.59,121.57 L198.13,121.88 L198.67,122.05 L199.21,122.33 L199.75,122.52 L200.28,122.78 L200.82,122.98 L201.36,123.23 L201.90,123.44 L202.44,123.68 L202.98,123.89 L203.52,124.13 L204.05,124.35 L204.59,124.58 L205.13,124.79 L205.67,125.03 L206.21,125.24 L206.75,125.48 L207.28,125.68 L207.82,125.93 L208.36,126.12 L208.90,126.38 L209.44,126.55 L209.98,126.84 L210.51,126.97 L211.05,127.28 L211.59,127.37 L212.13,127.73 L212.67,127.74 L213.21,128.16 L213.74,128.40 L214.28,128.58 L214.82,128.85 L215.36,128.98 L215.90,129.30 L216.44,129.34 L216.97,129.73 L217.51,129.97 L218.05,130.14 L218.59,130.42 L219.13,130.50 L219.67,130.85 L220.20,131.08 L220.74,131.26 L221.28,131.53 L221.82,131.61 L222.36,131.96 L222.90,132.20 L223.43,132.35 L223.97,132.64 L224.51,132.66 L225.05,133.06 L225.59,133.31 L226.13,133.40 L226.67,133.74 L227.20,133.97 L227.74,134.10 L228.28,134.41 L228.82,134.64 L229.36,134.79 L229.90,135.08 L230.43,135.30 L230.97,135.46 L231.51,135.74 L232.05,135.96 L232.59,136.12 L233.13,136.41 L233.66,136.62 L234.20,136.77 L234.74,137.06 L235.28,137.29 L235.82,137.40 L236.36,137.71 L236.89,137.95 L237.43,138.01 L237.97,138.36 L238.51,138.61 L239.05,138.82 L239.59,138.98 L240.12,139.26 L240.66,139.48 L241.20,139.56 L241.74,139.89 L242.28,140.14 L242.82,140.35 L243.35,140.48 L243.89,140.77 L244.43,141.01 L244.97,141.00 L245.51,141.37 L246.05,141.65 L246.59,141.88 L247.12,142.08 L247.66,142.24 L248.20,142.51 L248.74,142.75 L249.28,142.95 L249.82,143.08 L250.35,143.37 L250.89,143.61 L251.43,143.82 L251.97,143.89 L252.51,144.20 L253.05,144.46 L253.58,144.69 L254.12,144.64 L254.66,145.00 L255.20,145.29 L255.74,145.54 L256.28,145.76 L256.81,145.96 L257.35,146.07 L257.89,146.35 L258.43,146.60 L258.97,146.83 L259.51,147.04 L260.04,147.09 L260.58,147.39 L261.12,147.72 L261.66,148.07 L262.20,148.29 L262.74,148.53 L263.27,148.74 L263.81,148.95 L264.35,148.99 L264.89,149.46 L265.43,149.81 L265.97,149.93 L266.51,150.30 L267.04,150.39 L267.58,150.77 L268.12,151.14 L268.66,151.33 L269.20,151.70 L269.74,152.02 L270.27,152.00 L270.81,152.55 L271.35,152.90 L271.89,153.02 L272.43,153.40 L272.97,153.45 L273.50,153.45 L274.04,153.45 L274.58,153.63 L275.12,153.65 L275.66,153.74 L276.20,153.74 L276.73,153.75 L277.27,153.75 L277.81,153.75 L278.35,153.75 L278.89,153.75 L279.43,153.75 L279.96,154.13 L280.50,154.13 L281.04,154.13 L281.58,154.15 L282.12,154.16 L282.66,154.16 L283.19,154.16 L283.73,154.16 L284.27,154.16 L284.81,154.16 L285.35,154.16 L285.89,154.16 L286.42,154.16 L286.96,154.16 L287.50,154.16 L288.04,154.16 L288.58,154.16 L289.12,154.16 L289.66,154.16 L290.19,154.16 L290.73,154.16 L291.27,154.16 L291.81,154.16 L292.35,154.16 L292.89,154.16 L293.42,154.16 L293.96,154.16 L294.50,154.16 L295.04,154.16 L295.58,154.16 L296.12,154.16 L296.65,154.17 L297.19,154.17 L297.73,154.17 L298.27,154.27 L298.81,154.27 L299.35,154.27 L299.88,154.27 L300.42,154.27 L300.96,154.27 L301.50,154.27 L302.04,154.27 L302.58,154.27 L303.11,154.37 L303.65,154.37 L304.19,154.37 L304.73,154.57 L305.27,154.57 L305.81,154.57 L306.34,154.57 L306.88,154.58 L307.42,155.00 L307.96,155.05 L308.50,155.46 L309.04,155.88 L309.58,155.88 L310.11,155.88 L310.65,155.88 L311.19,155.88 L311.73,155.88 L312.27,155.89 L312.81,155.89 L313.34,155.89 L313.88,155.89 L314.42,155.89 L314.96,155.89 L315.50,155.89 L316.04,155.90 L316.57,155.90 L317.11,156.01 L317.65,156.01 L318.19,156.01 L318.73,156.01 L319.27,156.01 L319.80,156.01 L320.34,156.06 L320.88,156.06 L321.42,156.06 L321.96,156.06 L322.50,156.06 L323.03,156.06 L323.57,156.06 L324.11,156.06 L324.65,156.06 L325.19,156.06 L325.73,156.06 L326.26,156.06 L326.80,156.06 L327.34,156.06 L327.88,156.06 L328.42,156.06 L328.96,156.06 L329.49,156.06 L330.03,156.06 L330.57,156.06 L331.11,156.06 L331.65,156.06 L332.19,156.17 L332.73,156.17 L333.26,156.17 L333.80,156.17 L334.34,156.17 L334.88,156.17 L335.42,156.17 L335.96,156.17 L336.49,156.17 L337.03,156.17 L337.57,156.17 L338.11,156.17 L338.65,156.17 L339.19,156.17 L339.72,156.17 L340.26,156.17 L340.80,156.17 L341.34,156.17 L341.88,156.17 L342.42,156.17 L342.95,156.17 L343.49,156.17 L344.03,156.17 L344.57,156.17 L345.11,156.17 L345.65,156.17 L346.18,156.17 L346.72,156.17 L347.26,156.17 L347.80,156.17 L348.34,156.17 L348.88,156.17 L349.41,156.17 L349.95,156.17 L350.49,156.17 L351.03,156.17 L351.57,156.17 L352.11,156.17 L352.65,156.17 L353.18,156.17 L353.72,156.17 L354.26,156.17 L354.80,156.17 L355.34,156.17 L355.88,156.17 L356.41,156.17 L356.95,156.17 L357.49,156.17 L358.03,156.17 L358.57,156.17 L359.11,156.17 L359.64,156.17 L360.18,156.17 L360.72,156.17 L361.26,156.17 L361.80,156.17 L362.34,156.17 L362.87,156.17 L363.41,156.17 L363.95,156.17 L364.49,156.17 L365.03,156.17 L365.57,156.17 L366.10,156.17 L366.64,156.17 L367.18,156.17 L367.72,156.17 L368.26,156.17 L368.80,156.17 L369.33,156.17 L369.87,156.17 L370.41,156.17 L370.95,156.17 L371.49,156.17 L372.03,156.17 L372.57,156.17 L373.10,156.17 L373.64,156.17 L374.18,156.17 L374.72,156.17 L375.26,156.17 L375.80,156.17 L376.33,156.17 L376.87,156.17 L377.41,156.17 L377.95,156.17 L378.49,156.17 L379.03,156.17 L379.56,156.17 L380.10,156.17 L380.64,156.17 L381.18,156.17 L381.72,156.17 L382.26,156.17 L382.79,156.17 L383.33,156.17 L383.87,156.17 L384.41,156.17 L384.95,156.17 L385.49,156.17 L386.02,156.17 L386.56,156.17 L387.10,156.17 L387.64,156.17 L388.18,156.17 L388.72,156.17 L389.25,156.17 L389.79,156.17 L390.33,156.17 L390.87,156.17 L391.41,156.17 L391.95,156.17 L392.48,156.17 L393.02,156.17 L393.56,156.17 L394.10,156.17 L394.64,156.17 L395.18,156.17 L395.72,156.17 L396.25,156.17 L396.79,156.17 L397.33,156.17 L397.87,156.17 L398.41,156.17 L398.95,156.17 L399.48,156.17 L400.02,156.17 L400.56,156.17 L401.10,156.17 L401.64,156.17 L402.18,156.17 L402.71,156.17 L403.25,156.17 L403.79,156.17 L404.33,156.17 L404.87,156.17 L405.41,156.17 L405.94,156.17 L406.48,156.17 L407.02,156.17 L407.56,156.17 L408.10,156.17 L408.64,156.17 L409.17,156.17 L409.71,156.17 L410.25,156.17 L410.79,156.17 L411.33,156.17 L411.87,156.17 L412.40,156.17 L412.94,156.17 L413.48,156.17 L414.02,156.17 L414.56,156.17 L415.10,156.17 L415.64,156.17 L416.17,156.17 L416.71,156.17 L417.25,156.17 L417.79,156.17 L418.33,156.17 L418.87,156.17 L419.40,156.17 L419.94,156.17 L420.48,156.17 L421.02,156.17 L421.56,156.17 L422.10,156.17 L422.63,156.17 L423.17,156.17 L423.71,156.17 L424.25,156.17 L424.79,156.17 L425.33,156.17 L425.86,156.17 L426.40,156.17 L426.94,156.17 L427.48,156.17 L428.02,156.17 L428.56,156.17 L429.09,156.17 L429.63,156.17 L430.17,156.17 L430.71,156.17 L431.25,156.17 L431.79,156.17 L432.32,156.17 L432.86,156.17 L433.40,156.17 L433.94,156.17 L434.48,156.17 L435.02,156.17 L435.56,156.17 L436.09,156.17 L436.63,156.17 L437.17,156.17 L437.71,156.17 L438.25,156.17 L438.79,156.17 L439.32,156.17 L439.86,156.17 L440.40,156.17 L440.94,156.17 L441.48,156.17 L442.02,156.17 L442.55,156.17 L443.09,156.17 L443.63,156.17 L444.17,156.17 L444.71,156.17 L445.25,156.17 L445.78,156.17 L446.32,156.17 L446.86,156.17 L447.40,156.17 L447.94,156.17 L448.48,156.17 L449.01,156.17 L449.55,156.17 L450.09,156.17 L450.63,156.17 L451.17,156.17 L451.71,156.17 L452.24,156.17 L452.78,156.17 L453.32,156.17 L453.86,156.17 L454.40,156.17 L454.94,156.17 L455.47,156.17 L456.01,156.17 L456.55,156.17 L457.09,156.17 L457.63,156.17 L458.17,156.17 L458.71,156.17 L459.24,156.17 L459.78,156.17 L460.32,156.17 L460.86,156.17 L461.40,156.17 L461.94,156.17 L462.47,156.17 L463.01,156.17 L463.55,156.17 L464.09,156.17 L464.63,156.17 L465.17,156.17 L465.70,156.17 L466.24,156.17 L466.78,156.17 L467.32,156.17 L467.86,156.17 L468.40,156.17 L468.93,156.17 L469.47,156.17 L470.01,156.17 L470.55,156.17 L471.09,156.17 L471.63,156.17 L472.16,156.17 L472.70,156.17 L473.24,156.17 L473.78,156.17 L474.32,156.17 L474.86,156.17 L475.39,156.17 L475.93,156.17 L476.47,156.17 L477.01,156.17 L477.55,156.17 L478.09,156.17 L478.63,156.17 L479.16,156.17 L479.70,156.17 L480.24,156.17 L480.78,156.17 L481.32,156.17 L481.86,156.17 L482.39,156.17 L482.93,156.17 L483.47,156.17 L484.01,156.17 L484.55,156.17 L485.09,156.17 L485.62,156.17 L486.16,156.17 L486.70,156.17 L487.24,156.17 L487.78,156.17 L488.32,156.17 L488.85,156.17 L489.39,156.17 L489.93,156.17 L490.47,156.17 L491.01,156.17 L491.55,156.17 L492.08,156.17 L492.62,156.17 L493.16,156.17 L493.70,156.17 L494.24,156.17 L494.78,156.17 L495.31,156.17 L495.85,156.17 L496.39,156.17 L496.93,156.17 L497.47,156.17 L498.01,156.17 L498.55,156.17 L499.08,156.17 L499.62,156.17 L500.16,156.17 L500.70,156.17 L501.24,156.17 L501.78,156.17 L502.31,156.17 L502.85,156.17 L503.39,156.17 L503.93,156.17 L504.47,156.17 L505.01,156.17 L505.54,156.17 L506.08,156.17 L506.62,156.17 L507.16,156.17 L507.70,156.17 L508.24,156.17 L508.77,156.17 L509.31,156.17 L509.85,156.17 L510.39,156.17 L510.93,156.17 L511.47,156.17 L512.00,156.17 L512.54,156.17 L513.08,156.17 L513.62,156.17 L514.16,156.17 L514.70,156.17 L515.23,156.17 L515.77,156.17 L516.31,156.17 L516.85,156.17 L517.39,156.17 L517.93,156.17 L518.46,156.17 L519.00,156.17 L519.54,156.17 L520.08,156.17 L520.62,156.17 L521.16,156.17 L521.70,156.17 L522.23,156.17 L522.77,156.17 L523.31,156.17 L523.85,156.17 L524.39,156.17 L524.93,156.17 L525.46,156.17 L526.00,156.17 L526.54,156.17 L527.08,156.17 L527.62,156.17 L528.16,156.17 L528.69,156.17 L529.23,156.17 L529.77,156.17 L530.31,156.17 L530.85,156.17 L531.39,156.17 L531.92,156.17 L532.46,156.17 L533.00,156.17 L533.54,156.17 L534.08,156.17 L534.62,156.17 L535.15,156.17 L535.69,156.17 L536.23,156.17 L536.77,156.17 L537.31,156.17 L537.85,156.17 L538.38,156.17 L538.92,156.17 L539.46,156.17 L540.00,156.17" fill="none" stroke="#0072B2" stroke-width="2.25"/>
  <path d="M56.00,50.14 L56.54,50.27 L57.08,50.37 L57.62,50.47 L58.15,50.55 L58.69,50.63 L59.23,50.71 L59.77,50.78 L60.31,50.87 L60.85,50.95 L61.38,51.04 L61.92,51.13 L62.46,51.22 L63.00,51.33 L63.54,51.43 L64.08,51.55 L64.61,51.67 L65.15,51.81 L65.69,51.95 L66.23,52.10 L66.77,52.27 L67.31,52.44 L67.84,52.63 L68.38,52.82 L68.92,53.03 L69.46,53.24 L70.00,53.47 L70.54,53.69 L71.07,53.93 L71.61,54.17 L72.15,54.41 L72.69,54.66 L73.23,54.90 L73.77,55.15 L74.30,55.40 L74.84,55.65 L75.38,55.89 L75.92,56.14 L76.46,56.38 L77.00,56.62 L77.54,56.85 L78.07,57.09 L78.61,57.32 L79.15,57.54 L79.69,57.76 L80.23,57.98 L80.77,58.20 L81.30,58.41 L81.84,58.62 L82.38,58.83 L82.92,59.04 L83.46,59.25 L84.00,59.45 L84.53,59.66 L85.07,59.87 L85.61,60.08 L86.15,60.29 L86.69,60.51 L87.23,60.73 L87.76,60.95 L88.30,61.18 L88.84,61.41 L89.38,61.65 L89.92,61.89 L90.46,62.14 L90.99,62.39 L91.53,62.65 L92.07,62.91 L92.61,63.18 L93.15,63.44 L93.69,63.72 L94.22,63.99 L94.76,64.27 L95.30,64.55 L95.84,64.84 L96.38,65.13 L96.92,65.42 L97.45,65.71 L97.99,66.01 L98.53,66.31 L99.07,66.61 L99.61,66.91 L100.15,67.21 L100.69,67.52 L101.22,67.83 L101.76,68.14 L102.30,68.45 L102.84,68.77 L103.38,69.08 L103.92,69.40 L104.45,69.72 L104.99,70.04 L105.53,70.37 L106.07,70.69 L106.61,71.02 L107.15,71.35 L107.68,71.68 L108.22,72.01 L108.76,72.35 L109.30,72.68 L109.84,73.02 L110.38,73.36 L110.91,73.70 L111.45,74.05 L111.99,74.39 L112.53,74.74 L113.07,75.09 L113.61,75.44 L114.14,75.79 L114.68,76.14 L115.22,76.50 L115.76,76.85 L116.30,77.21 L116.84,77.57 L117.37,77.93 L117.91,78.30 L118.45,78.66 L118.99,79.03 L119.53,79.40 L120.07,79.76 L120.61,80.14 L121.14,80.51 L121.68,80.88 L122.22,81.26 L122.76,81.63 L123.30,82.01 L123.84,82.39 L124.37,82.77 L124.91,83.15 L125.45,83.53 L125.99,83.92 L126.53,84.30 L127.07,84.69 L127.60,85.07 L128.14,85.46 L128.68,85.85 L129.22,86.24 L129.76,86.63 L130.30,87.02 L130.83,87.41 L131.37,87.80 L131.91,88.20 L132.45,88.59 L132.99,88.98 L133.53,89.38 L134.06,89.77 L134.60,90.17 L135.14,90.56 L135.68,90.95 L136.22,91.35 L136.76,91.74 L137.29,92.13 L137.83,92.53 L138.37,92.92 L138.91,93.31 L139.45,93.70 L139.99,94.09 L140.53,94.48 L141.06,94.86 L141.60,95.25 L142.14,95.63 L142.68,96.02 L143.22,96.40 L143.76,96.77 L144.29,97.15 L144.83,97.53 L145.37,97.90 L145.91,98.27 L146.45,98.63 L146.99,99.00 L147.52,99.36 L148.06,99.72 L148.60,100.08 L149.14,100.43 L149.68,100.78 L150.22,101.13 L150.75,101.47 L151.29,101.81 L151.83,102.15 L152.37,102.49 L152.91,102.82 L153.45,103.15 L153.98,103.48 L154.52,103.80 L155.06,104.12 L155.60,104.44 L156.14,104.76 L156.68,105.07 L157.21,105.39 L157.75,105.70 L158.29,106.00 L158.83,106.31 L159.37,106.61 L159.91,106.91 L160.44,107.21 L160.98,107.51 L161.52,107.81 L162.06,108.10 L162.60,108.40 L163.14,108.69 L163.68,108.98 L164.21,109.27 L164.75,109.55 L165.29,109.82 L165.83,110.05 L166.37,110.15 L166.91,110.54 L167.44,110.76 L167.98,110.84 L168.52,111.25 L169.06,111.45 L169.60,111.49 L170.14,111.95 L170.67,112.13 L171.21,112.41 L171.75,112.65 L172.29,112.76 L172.83,113.12 L173.37,113.32 L173.90,113.32 L174.44,113.81 L174.98,113.94 L175.52,114.27 L176.06,114.47 L176.60,114.72 L177.13,114.95 L177.67,115.06 L178.21,115.42 L178.75,115.59 L179.29,115.87 L179.83,116.08 L180.36,116.32 L180.90,116.55 L181.44,116.63 L181.98,117.01 L182.52,117.14 L183.06,117.47 L183.60,117.63 L184.13,117.92 L184.67,118.10 L185.21,118.37 L185.75,118.57 L186.29,118.82 L186.83,119.03 L187.36,119.27 L187.90,119.49 L188.44,119.72 L188.98,119.94 L189.52,120.17 L190.06,120.39 L190.59,120.63 L191.13,120.84 L191.67,121.08 L192.21,121.28 L192.75,121.53 L193.29,121.72 L193.82,121.98 L194.36,122.14 L194.90,122.44 L195.44,122.56 L195.98,122.88 L196.52,122.95 L197.05,123.32 L197.59,123.55 L198.13,123.76 L198.67,124.00 L199.21,124.17 L199.75,124.45 L200.28,124.55 L200.82,124.90 L201.36,125.11 L201.90,125.32 L202.44,125.57 L202.98,125.70 L203.52,126.02 L204.05,126.03 L204.59,126.44 L205.13,126.69 L205.67,126.81 L206.21,127.13 L206.75,127.35 L207.28,127.53 L207.82,127.80 L208.36,127.86 L208.90,128.22 L209.44,128.46 L209.98,128.58 L210.51,128.90 L211.05,129.13 L211.59,129.28 L212.13,129.57 L212.67,129.79 L213.21,129.95 L213.74,130.23 L214.28,130.45 L214.82,130.62 L215.36,130.90 L215.90,131.11 L216.44,131.27 L216.97,131.55 L217.51,131.78 L218.05,131.90 L218.59,132.21 L219.13,132.44 L219.67,132.51 L220.20,132.85 L220.74,133.10 L221.28,133.30 L221.82,133.47 L222.36,133.75 L222.90,133.97 L223.43,134.06 L223.97,134.38 L224.51,134.63 L225.05,134.84 L225.59,134.97 L226.13,135.26 L226.67,135.50 L227.20,135.71 L227.74,135.85 L228.28,136.13 L228.82,136.37 L229.36,136.57 L229.90,136.71 L230.43,136.99 L230.97,137.23 L231.51,137.44 L232.05,137.53 L232.59,137.84 L233.13,138.09 L233.66,138.31 L234.20,138.51 L234.74,138.65 L235.28,138.93 L235.82,139.17 L236.36,139.38 L236.89,139.40 L237.43,139.73 L237.97,140.00 L238.51,140.24 L239.05,140.45 L239.59,140.66 L240.12,140.76 L240.66,141.04 L241.20,141.29 L241.74,141.52 L242.28,141.73 L242.82,141.93 L243.35,142.04 L243.89,142.32 L244.43,142.56 L244.97,142.79 L245.51,143.00 L246.05,143.20 L246.59,143.26 L247.12,143.54 L247.66,143.80 L248.20,144.04 L248.74,144.26 L249.28,144.47 L249.82,144.68 L250.35,144.88 L250.89,144.96 L251.43,145.23 L251.97,145.47 L252.51,145.71 L253.05,145.93 L253.58,146.14 L254.12,146.35 L254.66,146.55 L255.20,146.75 L255.74,146.80 L256.28,147.06 L256.81,147.31 L257.35,147.54 L257.89,147.77 L258.43,147.99 L258.97,147.99 L259.51,148.23 L260.04,148.61 L260.58,148.97 L261.12,149.07 L261.66,149.30 L262.20,149.53 L262.74,149.75 L263.27,149.97 L263.81,150.16 L264.35,150.36 L264.89,150.37 L265.43,150.60 L265.97,150.83 L266.51,151.05 L267.04,151.49 L267.58,151.88 L268.12,151.94 L268.66,152.33 L269.20,152.33 L269.74,152.33 L270.27,152.65 L270.81,152.68 L271.35,152.88 L271.89,152.72 L272.43,153.46 L272.97,153.48 L273.50,153.48 L274.04,153.48 L274.58,153.48 L275.12,153.48 L275.66,153.48 L276.20,153.48 L276.73,153.48 L277.27,153.48 L277.81,153.48 L278.35,153.48 L278.89,153.59 L279.43,153.59 L279.96,153.59 L280.50,153.59 L281.04,153.59 L281.58,154.00 L282.12,154.00 L282.66,154.21 L283.19,154.21 L283.73,154.21 L284.27,154.21 L284.81,154.21 L285.35,154.21 L285.89,154.21 L286.42,154.21 L286.96,154.63 L287.50,154.63 L288.04,154.63 L288.58,154.65 L289.12,154.65 L289.66,154.65 L290.19,154.65 L290.73,154.65 L291.27,154.65 L291.81,154.65 L292.35,154.65 L292.89,154.65 L293.42,154.65 L293.96,154.65 L294.50,154.65 L295.04,154.86 L295.58,154.86 L296.12,154.86 L296.65,154.86 L297.19,154.86 L297.73,154.86 L298.27,154.86 L298.81,154.86 L299.35,154.86 L299.88,154.88 L300.42,154.88 L300.96,154.88 L301.50,154.88 L302.04,154.88 L302.58,154.88 L303.11,155.32 L303.65,155.32 L304.19,155.76 L304.73,155.76 L305.27,155.76 L305.81,155.76 L306.34,155.76 L306.88,155.76 L307.42,155.76 L307.96,155.76 L308.50,155.76 L309.04,155.76 L309.58,155.76 L310.11,155.76 L310.65,155.76 L311.19,155.76 L311.73,155.76 L312.27,155.76 L312.81,155.76 L313.34,155.76 L313.88,155.76 L314.42,155.76 L314.96,155.76 L315.50,155.76 L316.04,155.76 L316.57,155.76 L317.11,155.76 L317.65,155.76 L318.19,155.76 L318.73,155.76 L319.27,155.76 L319.80,155.76 L320.34,155.76 L320.88,155.76 L321.42,155.76 L321.96,155.76 L322.50,155.76 L323.03,155.76 L323.57,155.76 L324.11,155.76 L324.65,155.76 L325.19,155.76 L325.73,155.76 L326.26,155.76 L326.80,155.76 L327.34,155.76 L327.88,155.76 L328.42,155.76 L328.96,155.76 L329.49,155.76 L330.03,155.76 L330.57,155.76 L331.11,155.76 L331.65,155.76 L332.19,155.76 L332.73,155.76 L333.26,155.76 L333.80,155.76 L334.34,155.76 L334.88,155.76 L335.42,155.76 L335.96,155.76 L336.49,155.76 L337.03,155.76 L337.57,155.76 L338.11,155.76 L338.65,155.76 L339.19,155.76 L339.72,155.76 L340.26,155.76 L340.80,155.79 L341.34,155.79 L341.88,155.79 L342.42,155.79 L342.95,155.79 L343.49,155.79 L344.03,155.79 L344.57,155.79 L345.11,155.79 L345.65,155.79 L346.18,155.79 L346.72,155.79 L347.26,155.79 L347.80,155.79 L348.34,155.79 L348.88,155.79 L349.41,155.79 L349.95,155.79 L350.49,155.79 L351.03,155.79 L351.57,155.79 L352.11,155.79 L352.65,155.79 L353.18,155.79 L353.72,155.79 L354.26,155.79 L354.80,155.79 L355.34,155.79 L355.88,155.79 L356.41,155.79 L356.95,155.79 L357.49,155.79 L358.03,155.79 L358.57,155.79 L359.11,155.79 L359.64,155.79 L360.18,155.79 L360.72,155.79 L361.26,155.79 L361.80,155.79 L362.34,155.79 L362.87,155.79 L363.41,155.79 L363.95,155.79 L364.49,155.79 L365.03,155.79 L365.57,155.79 L366.10,155.79 L366.64,155.79 L367.18,155.79 L367.72,155.79 L368.26,155.79 L368.80,155.79 L369.33,155.79 L369.87,155.79 L370.41,155.79 L370.95,155.79 L371.49,155.79 L372.03,155.79 L372.57,155.79 L373.10,155.79 L373.64,155.79 L374.18,155.79 L374.72,155.79 L375.26,155.79 L375.80,155.79 L376.33,155.79 L376.87,155.79 L377.41,155.79 L377.95,155.79 L378.49,155.79 L379.03,155.79 L379.56,155.79 L380.10,155.79 L380.64,155.79 L381.18,155.79 L381.72,155.79 L382.26,155.79 L382.79,155.79 L383.33,155.79 L383.87,155.79 L384.41,155.79 L384.95,155.79 L385.49,155.79 L386.02,155.79 L386.56,155.79 L387.10,155.79 L387.64,155.79 L388.18,155.79 L388.72,155.79 L389.25,155.79 L389.79,155.79 L390.33,155.79 L390.87,155.79 L391.41,155.79 L391.95,155.79 L392.48,155.79 L393.02,155.79 L393.56,155.79 L394.10,155.79 L394.64,155.79 L395.18,155.79 L395.72,155.79 L396.25,155.79 L396.79,155.79 L397.33,155.79 L397.87,155.79 L398.41,155.79 L398.95,155.79 L399.48,155.79 L400.02,155.79 L400.56,155.79 L401.10,155.79 L401.64,155.79 L402.18,155.79 L402.71,155.79 L403.25,155.79 L403.79,155.79 L404.33,155.79 L404.87,155.79 L405.41,155.79 L405.94,155.79 L406.48,155.79 L407.02,155.79 L407.56,155.79 L408.10,155.79 L408.64,155.79 L409.17,155.79 L409.71,155.79 L410.25,155.79 L410.79,155.79 L411.33,155.79 L411.87,155.79 L412.40,155.79 L412.94,155.79 L413.48,155.79 L414.02,155.79 L414.56,155.79 L415.10,155.79 L415.64,155.79 L416.17,155.79 L416.71,155.79 L417.25,155.79 L417.79,155.79 L418.33,155.79 L418.87,155.79 L419.40,155.79 L419.94,155.79 L420.48,155.79 L421.02,155.79 L421.56,155.79 L422.10,155.79 L422.63,155.79 L423.17,155.79 L423.71,155.79 L424.25,155.79 L424.79,155.79 L425.33,155.79 L425.86,155.79 L426.40,155.79 L426.94,155.79 L427.48,155.79 L428.02,155.79 L428.56,155.79 L429.09,155.79 L429.63,155.79 L430.17,155.79 L430.71,155.79 L431.25,155.79 L431.79,155.79 L432.32,155.79 L432.86,155.79 L433.40,155.79 L433.94,155.79 L434.48,155.79 L435.02,155.79 L435.56,155.79 L436.09,155.79 L436.63,155.79 L437.17,155.79 L437.71,155.79 L438.25,155.79 L438.79,155.79 L439.32,155.79 L439.86,155.79 L440.40,155.79 L440.94,155.79 L441.48,155.79 L442.02,155.79 L442.55,155.79 L443.09,155.79 L443.63,155.79 L444.17,155.79 L444.71,155.79 L445.25,155.79 L445.78,155.79 L446.32,155.79 L446.86,155.79 L447.40,155.79 L447.94,155.79 L448.48,155.79 L449.01,155.79 L449.55,155.79 L450.09,155.79 L450.63,155.79 L451.17,155.79 L451.71,155.79 L452.24,155.79 L452.78,155.79 L453.32,155.79 L453.86,155.79 L454.40,155.79 L454.94,155.79 L455.47,155.79 L456.01,155.79 L456.55,155.79 L457.09,155.79 L457.63,155.79 L458.17,155.79 L458.71,155.79 L459.24,155.79 L459.78,155.79 L460.32,155.79 L460.86,155.79 L461.40,155.79 L461.94,155.79 L462.47,155.79 L463.01,155.79 L463.55,155.79 L464.09,155.79 L464.63,155.79 L465.17,155.79 L465.70,155.79 L466.24,155.79 L466.78,155.79 L467.32,155.79 L467.86,155.79 L468.40,155.79 L468.93,155.79 L469.47,155.79 L470.01,155.79 L470.55,155.79 L471.09,155.79 L471.63,155.79 L472.16,155.79 L472.70,155.79 L473.24,155.79 L473.78,155.79 L474.32,155.79 L474.86,155.79 L475.39,155.79 L475.93,155.79 L476.47,155.79 L477.01,155.79 L477.55,155.79 L478.09,155.79 L478.63,155.79 L479.16,155.79 L479.70,155.79 L480.24,155.79 L480.78,155.79 L481.32,155.79 L481.86,155.79 L482.39,155.79 L482.93,155.79 L483.47,155.79 L484.01,155.79 L484.55,155.79 L485.09,155.79 L485.62,155.79 L486.16,155.79 L486.70,155.79 L487.24,155.79 L487.78,155.79 L488.32,155.79 L488.85,155.79 L489.39,155.79 L489.93,155.79 L490.47,155.79 L491.01,155.79 L491.55,155.79 L492.08,155.79 L492.62,155.79 L493.16,155.79 L493.70,155.79 L494.24,155.79 L494.78,155.79 L495.31,155.79 L495.85,155.79 L496.39,155.79 L496.93,155.79 L497.47,155.79 L498.01,155.79 L498.55,155.79 L499.08,155.79 L499.62,155.79 L500.16,155.79 L500.70,155.79 L501.24,155.79 L501.78,155.79 L502.31,155.79 L502.85,155.79 L503.39,155.79 L503.93,155.79 L504.47,155.79 L505.01,155.79 L505.54,155.79 L506.08,155.79 L506.62,155.79 L507.16,155.79 L507.70,155.79 L508.24,155.79 L508.77,155.79 L509.31,155.79 L509.85,155.79 L510.39,155.79 L510.93,155.79 L511.47,155.79 L512.00,155.79 L512.54,155.79 L513.08,155.79 L513.62,155.79 L514.16,155.79 L514.70,155.79 L515.23,155.79 L515.77,155.79 L516.31,155.79 L516.85,155.79 L517.39,155.79 L517.93,155.79 L518.46,155.79 L519.00,155.79 L519.54,155.79 L520.08,155.79 L520.62,155.79 L521.16,155.79 L521.70,155.79 L522.23,155.79 L522.77,155.79 L523.31,155.79 L523.85,155.79 L524.39,155.79 L524.93,155.79 L525.46,155.79 L526.00,155.79 L526.54,155.79 L527.08,155.79 L527.62,155.79 L528.16,155.79 L528.69,155.79 L529.23,155.79 L529.77,155.79 L530.31,155.79 L530.85,155.79 L531.39,155.79 L531.92,155.79 L532.46,155.79 L533.00,155.79 L533.54,155.79 L534.08,155.79 L534.62,155.79 L535.15,155.79 L535.69,155.79 L536.23,155.79 L536.77,155.79 L537.31,155.79 L537.85,155.79 L538.38,155.79 L538.92,155.79 L539.46,155.79 L540.00,155.79" fill="none" stroke="#D55E00" stroke-width="1.75" stroke-dasharray="5 3"/>
  <line x1="56" y1="18" x2="76" y2="18" stroke="#0072B2" stroke-width="2.25"/>
  <text x="82" y="22" fill="#2d2d2d" font-size="11" font-family="DM Sans, system-ui, sans-serif">floor+Armijo</text>
  <line x1="182" y1="18" x2="202" y2="18" stroke="#009E73" stroke-width="1.75" stroke-dasharray="5 3"/>
  <text x="208" y="22" fill="#2d2d2d" font-size="11" font-family="DM Sans, system-ui, sans-serif">v† floor only</text>
  <line x1="315" y1="18" x2="335" y2="18" stroke="#D55E00" stroke-width="1.75" stroke-dasharray="5 3"/>
  <text x="341" y="22" fill="#2d2d2d" font-size="11" font-family="DM Sans, system-ui, sans-serif">Armijo only</text>
  <line x1="434" y1="18" x2="454" y2="18" stroke="#E69F00" stroke-width="2"/>
  <text x="460" y="22" fill="#2d2d2d" font-size="11" font-family="DM Sans, system-ui, sans-serif">neither</text>
  <text x="56" y="226" fill="#8a8a8a" font-size="9"
    font-family="IBM Plex Mono, ui-monospace, monospace">n=6 k=3 steps=900 lr=0.05 seed=7 · generated by scripts/gen-ringing-plot.mjs</text>
</svg>
